<?xml version="1.0" encoding="UTF-8"?>
<svg width="36px" height="26px" viewBox="0 0 36 26" version="1.1" xmlns="http://www.w3.org/2000/svg" xmlns:xlink="http://www.w3.org/1999/xlink">
    <!-- Generator: Sketch 61 (89581) - https://sketch.com -->
    <title>充值渠道-银行卡icon</title>
    <desc>Created with Sketch.</desc>
    <g id="页面-1" stroke="none" stroke-width="1" fill="none" fill-rule="evenodd">
        <g id="个人中心" transform="translate(-133.000000, -77.000000)" fill="#FFA300" fill-rule="nonzero">
            <g id="充值渠道-银行卡icon" transform="translate(133.000000, 77.000000)">
                <path d="M35.889451,9.96929194 L35.889451,23.2616812 C35.889451,24.5909201 35.2248315,25.2555396 33.8955926,25.2555396 L1.99385839,25.2555396 C0.664619465,25.2555396 2.10142295e-14,24.5909201 2.10142295e-14,23.2616812 L1.39088021e-14,9.96929194 L35.889451,9.96929194 Z M32.5663537,15.9508671 L24.5909201,15.9508671 L23.2616812,21.2678228 L31.2371147,21.2678228 L32.5663537,15.9508671 Z M3.32309731,12.6277698 C2.58897893,12.6277698 1.99385839,13.2228903 1.99385839,13.9570087 C1.99385839,14.4946357 2.31771705,14.9793244 2.8144196,15.1850654 C3.31112215,15.3908063 3.88285152,15.2770823 4.2630112,14.8969226 C4.64317088,14.5167629 4.75689492,13.9450336 4.55115398,13.448331 C4.34541304,12.9516284 3.86072428,12.6277698 3.32309731,12.6277698 Z M7.31081409,12.6277698 C6.57669571,12.6277698 5.98157515,13.2228903 5.98157515,13.9570087 C5.98157515,14.4946357 6.30543381,14.9793244 6.80213635,15.1850654 C7.2988389,15.3908063 7.87056827,15.2770823 8.25072795,14.8969226 C8.63088763,14.5167629 8.74461168,13.9450336 8.53887075,13.448331 C8.33312982,12.9516285 7.84844106,12.6277698 7.31081409,12.6277698 Z M11.2985309,12.6277698 C10.5644125,12.6277698 9.96929194,13.2228903 9.96929194,13.9570087 C9.96929194,14.4946357 10.2931506,14.9793244 10.7898532,15.1850654 C11.2865557,15.3908063 11.8582851,15.2770823 12.2384448,14.8969226 C12.6186044,14.5167629 12.7323285,13.9450336 12.5265875,13.448331 C12.3208466,12.9516284 11.8361578,12.6277698 11.2985309,12.6277698 Z M15.2862476,12.6277698 C14.5521293,12.6277698 13.9570087,13.2228903 13.9570087,13.9570087 C13.9570087,14.4946357 14.2808674,14.9793244 14.7775699,15.1850654 C15.2742725,15.3908063 15.8460018,15.2770823 16.2261615,14.8969226 C16.6063212,14.5167629 16.7200452,13.9450336 16.5143043,13.448331 C16.3085634,12.9516285 15.8238746,12.6277698 15.2862476,12.6277698 Z M33.8955926,-2.07121769e-15 C35.2248315,-2.07121769e-15 35.889451,0.664619465 35.889451,1.99385839 L35.889451,6.64619464 L1.39088021e-14,6.64619464 L2.10142295e-14,1.99385839 C2.10142295e-14,0.664619465 0.664619465,-2.07121769e-15 1.99385839,-2.07121769e-15 L33.8955926,-2.07121769e-15 Z" id="形状结合"></path>
            </g>
        </g>
    </g>
</svg>