<?xml version="1.0" encoding="UTF-8"?>
<svg width="67px" height="50px" viewBox="0 0 67 50" version="1.1" xmlns="http://www.w3.org/2000/svg" xmlns:xlink="http://www.w3.org/1999/xlink">
    <!-- Generator: Sketch 61 (89581) - https://sketch.com -->
    <title>无数据icon</title>
    <desc>Created with Sketch.</desc>
    <g id="页面-1" stroke="none" stroke-width="1" fill="none" fill-rule="evenodd">
        <g id="个人中心" transform="translate(-296.000000, -134.000000)" fill="#8C8D8D" fill-rule="nonzero">
            <g id="无数据icon" transform="translate(296.000000, 134.000000)">
                <path d="M49.0479355,46.5277417 C45.185364,41.8980641 37.6671443,42.1023145 31.9767487,46.8681592 C29.4591797,43.7022767 24.6654525,43.1576087 20.8373681,45.7788233 C19.5268528,44.3490699 17.9749267,43.0895252 16.1815899,42.0682728 C11.5258117,39.4130165 5.90439052,38.6981398 0.420918367,40.0257679 L0.627841845,40.9108534 C5.93887776,39.6513087 11.3188882,40.3321437 15.8022302,42.8852747 C17.5610797,43.8724854 19.0785186,45.0979883 20.3200594,46.4937 L21.2512151,46.4937 L21.2857023,46.5617835 C21.3201896,46.5277417 21.3546768,46.5277417 21.3891641,46.4937 L21.4581386,46.4937 L21.4236513,46.4596582 C25.0792994,44.0426942 29.6661032,44.7575709 31.7353379,48.0596204 L31.8387997,47.9915369 L31.9422614,48.0936621 C37.3222718,43.1576087 44.7025425,42.715066 48.3926779,47.1064514 L48.3581906,47.1404932 L48.4271651,47.1404932 L48.4616524,47.1745349 L48.4961396,47.1404932 L49.7031932,47.1404932 C54.8417929,43.0554835 61.152959,41.6597718 66.6709184,43.3278175 L66.6709184,42.4086903 C60.9115482,40.7066029 54.3244842,42.2384815 49.0479355,46.5277417 Z M21.5616003,47.8213281 C20.5614702,47.6851612 19.4923655,47.8894116 18.5612099,48.4340796 C17.9749267,47.8213281 17.2851818,47.2426184 16.5264624,46.8000757 C14.4572276,45.6086145 11.9396586,45.3022388 9.49106412,45.8809485 L9.56003862,46.2554078 C10.594656,46.0171155 11.6637606,45.9149903 12.6638908,46.0171155 C11.6292734,45.949032 10.5601688,46.0171155 9.49106412,46.2554078 L9.56003862,46.629867 C11.9051714,46.0511573 14.3192786,46.3915747 16.3195389,47.5149524 C17.0782583,47.9234534 17.733516,48.4681214 18.3542864,49.1149146 L18.5267226,49.1149146 L18.6646716,49.319165 C19.5268528,48.7404553 20.4924957,48.5021631 21.4236513,48.6383301 C22.3203197,48.7744971 23.0790391,49.2510816 23.5618606,50 L24.2860928,49.5234155 C23.6998096,48.6042883 22.6996794,47.9915369 21.5616003,47.8213281 L21.5616003,47.8213281 Z" id="形状"></path>
                <path d="M50.7413022,48.0986287 L51.3632828,48.75 C53.1601159,46.7958861 55.4407117,45.8016878 57.3757627,45.8702532 L57.4448717,44.978903 C55.2679393,44.8417722 52.7454621,45.9388186 50.7413022,48.0986287 L50.7413022,48.0986287 Z M57.4448717,10.1133966 C58.757942,10.1133966 59.8291309,9.01635021 59.8291309,7.64504219 C59.8291309,6.27373418 58.757942,5.17668776 57.4448717,5.17668776 C56.1318014,5.17668776 55.0606124,6.27373418 55.0606124,7.64504219 C55.0606124,9.01635021 56.1318014,10.1133966 57.4448717,10.1133966 Z M57.4448717,5.79377637 C58.4469516,5.79377637 59.2417047,6.61656118 59.2417047,7.64504219 C59.2417047,8.67352321 58.4469516,9.49630802 57.4448717,9.49630802 C56.4427917,9.49630802 55.6480386,8.67352321 55.6480386,7.64504219 C55.6480386,6.61656118 56.4427917,5.79377637 57.4448717,5.79377637 L57.4448717,5.79377637 Z M4.30007832,19.8839662 C5.40582175,19.8839662 6.30423828,18.9583333 6.30423828,17.8270042 C6.30423828,16.6956751 5.40582175,15.7700422 4.30007832,15.7700422 C3.1943349,15.7700422 2.29591837,16.6956751 2.29591837,17.8270042 C2.29591837,18.9583333 3.1943349,19.8839662 4.30007832,19.8839662 Z M4.30007832,16.2842827 C5.12938589,16.2842827 5.78592105,16.9699367 5.78592105,17.8270042 C5.78592105,18.6840717 5.12938589,19.3697257 4.30007832,19.3697257 C3.47077076,19.3697257 2.8142356,18.6840717 2.8142356,17.8270042 C2.8142356,16.9699367 3.47077076,16.2842827 4.30007832,16.2842827 L4.30007832,16.2842827 Z M48.218825,3.53111814 L49.7046677,3.53111814 L49.7046677,5.07383966 C49.7046677,5.41666667 49.9811036,5.69092827 50.2920939,5.69092827 C50.6030842,5.69092827 50.8795201,5.41666667 50.8795201,5.07383966 L50.8795201,3.53111814 L52.3653628,3.53111814 C52.7109076,3.53111814 53.021898,3.22257384 53.021898,2.84546414 C53.021898,2.46835443 52.7454621,2.15981013 52.3653628,2.15981013 L50.8795201,2.15981013 L50.8795201,0.617088608 C50.8795201,0.274261603 50.6030842,0 50.2920939,0 C49.9811036,0 49.7046677,0.274261603 49.7046677,0.617088608 L49.7046677,2.15981013 L48.218825,2.15981013 C47.8732801,2.15981013 47.5622898,2.46835443 47.5622898,2.84546414 C47.5622898,3.22257384 47.8732801,3.53111814 48.218825,3.53111814 Z M64.424877,20.7753165 L65.1159667,20.7753165 L65.1159667,21.4952532 C65.1159667,21.6666667 65.2541846,21.7695148 65.3924025,21.7695148 C65.5306205,21.7695148 65.6688384,21.632384 65.6688384,21.4952532 L65.6688384,20.7753165 L66.359928,20.7753165 C66.5327004,20.7753165 66.6709184,20.6381857 66.6709184,20.4667722 C66.6709184,20.2953586 66.5327004,20.1582278 66.359928,20.1582278 L65.6688384,20.1582278 L65.6688384,19.4382911 C65.6688384,19.2668776 65.5306205,19.1640295 65.3924025,19.1640295 C65.2541846,19.1640295 65.1159667,19.3011603 65.1159667,19.4382911 L65.1159667,20.1582278 L64.424877,20.1582278 C64.2521046,20.1582278 64.1138867,20.2953586 64.1138867,20.4667722 C64.1138867,20.6381857 64.2521046,20.7753165 64.424877,20.7753165 Z M26.069402,7.33649789 L26.7604916,7.33649789 L26.7604916,8.0564346 C26.7604916,8.2278481 26.8987096,8.3306962 27.0369275,8.3306962 C27.1751454,8.3306962 27.3133633,8.1935654 27.3133633,8.0564346 L27.3133633,7.33649789 L28.004453,7.33649789 C28.1772254,7.33649789 28.3154433,7.19936709 28.3154433,7.02795359 C28.3154433,6.85654008 28.1772254,6.71940928 28.004453,6.71940928 L27.3133633,6.71940928 L27.3133633,5.99947257 C27.3133633,5.82805907 27.1751454,5.72521097 27.0369275,5.72521097 C26.8987096,5.72521097 26.7604916,5.86234177 26.7604916,5.99947257 L26.7604916,6.71940928 L26.069402,6.71940928 C25.8966296,6.71940928 25.7584117,6.85654008 25.7584117,7.02795359 C25.7929661,7.16508439 25.9311841,7.33649789 26.069402,7.33649789 Z M4.78384107,24.8549578 C4.78384107,25.1292194 4.99116796,25.3349156 5.26760382,25.3349156 L6.33879276,25.3349156 L6.33879276,26.4662447 C6.33879276,26.7062236 6.54611966,26.9119198 6.75344655,26.9119198 C6.96077344,26.9119198 7.16810033,26.7062236 7.16810033,26.4662447 L7.16810033,25.3349156 L8.23928927,25.3349156 C8.51572513,25.3349156 8.72305202,25.1292194 8.72305202,24.8549578 C8.72305202,24.5806962 8.51572513,24.375 8.23928927,24.375 L7.16810033,24.375 L7.16810033,23.2436709 C7.16810033,23.003692 6.96077344,22.7979958 6.75344655,22.7979958 C6.54611966,22.7979958 6.33879276,23.003692 6.33879276,23.2436709 L6.33879276,24.375 L5.26760382,24.375 C4.99116796,24.375 4.78384107,24.5806962 4.78384107,24.8549578 L4.78384107,24.8549578 Z" id="形状"></path>
                <path d="M24.1709184,26.5625 C24.1709184,27.7706229 25.1502955,28.75 26.3584184,28.75 C27.5665413,28.75 28.5459184,27.7706229 28.5459184,26.5625 C28.5459184,25.3543771 27.5665413,24.375 26.3584184,24.375 C25.1502955,24.375 24.1709184,25.3543771 24.1709184,26.5625 Z" id="路径"></path>
                <path d="M38.5459184,27.1875 C38.5459184,28.3956229 39.5252955,29.375 40.7334184,29.375 C41.9415413,29.375 42.9209184,28.3956229 42.9209184,27.1875 C42.9209184,25.9793771 41.9415413,25 40.7334184,25 C39.5252955,25 38.5459184,25.9793771 38.5459184,27.1875 L38.5459184,27.1875 Z" id="路径"></path>
                <path d="M42.2921759,36.7731956 L42.9209184,36.2302389 C38.1354892,32.0562592 30.2762078,32.090194 25.4209184,36.3320433 L26.0496609,36.875 C30.5556489,32.9385639 37.8560481,32.9046291 42.2921759,36.7731956 Z" id="路径"></path>
                <path d="M11.8754638,16.8413462 C11.8754638,14.9463141 13.3617328,13.3958333 15.1936456,13.3958333 L52.5231911,13.3958333 C54.355104,13.3958333 55.8413729,14.9463141 55.8413729,16.8413462 L55.8413729,39.375 L56.6709184,39.375 L56.6709184,15.9455128 C56.6709184,14.0504808 55.1846494,12.5 53.3527365,12.5 L14.3641002,12.5 C12.5321873,12.5 11.0459184,14.0504808 11.0459184,15.9455128 L11.0459184,39.375 L11.8754638,39.375 L11.8754638,16.8413462 Z" id="路径"></path>
            </g>
        </g>
    </g>
</svg>