<svg xmlns="http://www.w3.org/2000/svg" width="14.188" height="14.188" viewBox="0 0 14.188 14.188">
  <defs>
    <style>
      .cls-1 {
        fill: #fff;
        fill-rule: evenodd;
      }
    </style>
  </defs>
  <path id="全部1" class="cls-1" d="M697.934,210.1a1.382,1.382,0,0,1-.895-1.485c0.029-1.122,0-2.244.009-3.366a1.206,1.206,0,0,1,1.386-1.4q1.731-.006,3.463,0a1.213,1.213,0,0,1,1.375,1.376c0,1.122-.022,2.245.008,3.366a1.43,1.43,0,0,1-.873,1.5h-4.473Zm7.071,0a1.455,1.455,0,0,1-.87-1.54c0.037-1.132.007-2.267,0.011-3.4a1.18,1.18,0,0,1,1.261-1.3q1.856-.02,3.713,0a1.145,1.145,0,0,1,1.241,1.239c0.013,1.254-.007,2.508.008,3.762a1.391,1.391,0,0,1-.818,1.242h-4.546Zm6.206-10.208a2.136,2.136,0,0,1-.745,1.153c-0.734.73-1.453,1.475-2.181,2.211a1.237,1.237,0,0,1-2.023.009q-1.227-1.224-2.447-2.455a1.223,1.223,0,0,1,0-1.927c0.837-.847,1.674-1.7,2.528-2.526a4.088,4.088,0,0,1,.679-0.447h0.5a12.658,12.658,0,0,1,1.026.812c0.662,0.642,1.289,1.321,1.942,1.974a2.035,2.035,0,0,1,.712,1.123v0.073Zm-3.941-3.045a2.641,2.641,0,0,0-.456.295q-1.141,1.131-2.264,2.282a0.516,0.516,0,0,0,0,.846q1.137,1.161,2.295,2.3a0.516,0.516,0,0,0,.848,0q1.162-1.136,2.3-2.293a0.544,0.544,0,0,0-.011-0.881q-1.128-1.144-2.271-2.275A2.646,2.646,0,0,0,707.27,196.842Zm-4,3c0,0.59,0,1.181,0,1.772a1.229,1.229,0,0,1-1.3,1.359q-1.8.029-3.606,0a1.21,1.21,0,0,1-1.315-1.338c-0.012-1.206-.014-2.413,0-3.618a1.191,1.191,0,0,1,1.33-1.312q1.785-.011,3.57,0a1.212,1.212,0,0,1,1.321,1.327C703.275,198.639,703.272,199.242,703.272,199.845Z" transform="translate(-697.031 -195.906)"/>
</svg>
