<svg id="新new" xmlns="http://www.w3.org/2000/svg" width="36.063" height="34.906" viewBox="0 0 36.063 34.906">
  <defs>
    <style>
      .cls-1 {
        fill: #cf2a2a;
      }

      .cls-1, .cls-2 {
        fill-rule: evenodd;
      }

      .cls-2 {
        fill: #fff;
      }
    </style>
  </defs>
  <path id="矩形_812" data-name="矩形 812" class="cls-1" d="M605.87,396.109L605.182,431l-35.376-.2Z" transform="translate(-569.812 -396.094)"/>
  <path id="new" class="cls-2" d="M589.123,427.678l-3.975-3.98,6.635,1.323,0.688-.686-5.059-5.065-0.642.642,3.971,3.976-6.632-1.32-0.687.687,5.058,5.065Zm8.268-8.257-0.6-.6-3.11,3.1-1.722-1.724,2.8-2.8-0.593-.595-2.8,2.8-1.549-1.552,2.992-2.988-0.6-.6-3.662,3.657,5.058,5.065Zm2.494-2.491L597.105,412c-0.117-.21-0.265-0.457-0.445-0.743q0.135,0.087.753,0.436l4.922,2.793,0.646-.645-3.67-6.452-0.674.672,2.456,4.049q0.467,0.777.849,1.354a19.116,19.116,0,0,0-2.185-1.4l-3.286-1.839-0.808.807,2.452,4.383q0.09,0.159.707,1.164-0.6-.425-1.25-0.822l-4.086-2.551-0.687.687,6.4,3.722Z" transform="translate(-569.812 -396.094)"/>
</svg>
