<svg xmlns="http://www.w3.org/2000/svg" width="10.407" height="13.624" viewBox="0 0 10.407 13.624">
  <defs>
    <style>
      .cls-1 {
        fill: #fff;
        fill-rule: evenodd;
      }
    </style>
  </defs>
  <path id="推荐" class="cls-1" d="M816.705,204.513a11.372,11.372,0,0,0-2.572-5.928,18.842,18.842,0,0,0-1.906-2.068c-0.105-.1-0.2-0.216-0.3-0.324h-0.068a6.031,6.031,0,0,1,.536,3.044,4.5,4.5,0,0,1-.819,2.41,1.474,1.474,0,0,1-2.581-.04,4.023,4.023,0,0,1-.588-1.254,0.26,0.26,0,0,0-.114-0.232c-0.122-.028-0.154.111-0.208,0.19a9.329,9.329,0,0,0-1.737,4.228,1.237,1.237,0,0,1-.045.163v0.749a5.6,5.6,0,0,0,.675,1.938,5.266,5.266,0,0,0,3.308,2.287l0.557,0.131H812.2a6.229,6.229,0,0,0,2.525-1.008A4.569,4.569,0,0,0,816.705,204.513Zm-3.243,2.294a2.155,2.155,0,0,1-3.246.718,1.37,1.37,0,0,1-.6-1.328,1.236,1.236,0,0,1,1.031-1,2.757,2.757,0,0,1,.67-0.083,2.59,2.59,0,0,0,2.43-1.55c0.077-.15.14-0.307,0.21-0.461A6.6,6.6,0,0,1,813.462,206.807Z" transform="translate(-806.312 -196.188)"/>
</svg>
