<svg xmlns="http://www.w3.org/2000/svg" width="18.06" height="18.031" viewBox="0 0 18.06 18.031">
  <defs>
    <style>
      .cls-1 {
        fill: #fff;
        fill-rule: evenodd;
      }
    </style>
  </defs>
  <path id="搜寻" class="cls-1" d="M1697.42,213.568c-0.38-.305-0.79-0.58-1.14-0.922-1.24-1.224-2.46-2.472-3.65-3.671,0.78-.768,1.56-1.552,2.38-2.364a2.444,2.444,0,0,1,.21.183c1.26,1.267,2.53,2.527,3.77,3.81a5.008,5.008,0,0,1,.59.889v0.812a2.2,2.2,0,0,1-1.26,1.263h-0.9Zm-2.35-11.269a6.765,6.765,0,1,1-6.74-6.774A6.737,6.737,0,0,1,1695.07,202.3Zm-1.71,0a5.055,5.055,0,1,0-5.08,5.046A5.035,5.035,0,0,0,1693.36,202.3Zm-7.87-.028h-1.08a3.829,3.829,0,0,1,3.87-3.917v1.1A2.851,2.851,0,0,0,1685.49,202.275Z" transform="translate(-1681.53 -195.531)"/>
</svg>
