<svg xmlns="http://www.w3.org/2000/svg" width="14.281" height="13.812" viewBox="0 0 14.281 13.812">
  <defs>
    <style>
      .cls-1 {
        fill: #fff;
        fill-rule: evenodd;
      }
    </style>
  </defs>
  <path id="收藏" class="cls-1" d="M944.228,195.1h0.145a1.5,1.5,0,0,1,1.077.967c0.427,0.918.887,1.821,1.325,2.733a0.506,0.506,0,0,0,.423.322q1.743,0.292,3.477.633a1.016,1.016,0,0,1,.8.957,1.2,1.2,0,0,1-.474.972c-0.753.714-1.5,1.431-2.264,2.139a0.462,0.462,0,0,0-.174.494c0.2,0.991.368,1.991,0.561,2.984a1.249,1.249,0,0,1-.689,1.6h-0.508c-1.119-.561-2.242-1.117-3.356-1.688a0.482,0.482,0,0,0-.5,0c-1.127.57-2.26,1.127-3.391,1.687h-0.435a1.141,1.141,0,0,1-.73-1.517q0.285-1.509.578-3.016a0.539,0.539,0,0,0-.187-0.569c-0.779-.7-1.532-1.436-2.306-2.146a1.14,1.14,0,0,1-.376-1.177,1,1,0,0,1,.889-0.739c1.112-.2,2.221-0.425,3.335-0.613a0.539,0.539,0,0,0,.444-0.346c0.434-.9.9-1.791,1.311-2.7A1.613,1.613,0,0,1,944.228,195.1Z" transform="translate(-937.188 -195.094)"/>
</svg>
