<svg id="圖層_1" data-name="圖層 1" xmlns="http://www.w3.org/2000/svg" viewBox="0 0 17.01 17.01"><defs><style>.cls-1{fill:#fff;fill-rule:evenodd;}</style></defs><title>图标</title><path id="邀請" class="cls-1" d="M15.56,13H13.29v2.27a.46.46,0,0,1-.46.46.47.47,0,0,1-.46-.46V13H10.1a.44.44,0,0,1-.45-.45.46.46,0,0,1,.45-.46h2.27V9.8a.46.46,0,0,1,.46-.46.45.45,0,0,1,.46.46v2.27h2.27a.45.45,0,0,1,.46.46.44.44,0,0,1-.45.45h0Zm-4.88-2.34.3.11-.22.91-.46-.19a1,1,0,0,1-.52-.72.89.89,0,0,1,.34-.82,4.65,4.65,0,0,0,1.34-3.32V4.34c0-1-1.64-2.27-3.19-2.27S5.08,3.39,5.08,4.34V6.62A4.83,4.83,0,0,0,6.47,9.93a.92.92,0,0,1-.19,1.54l-4,1.89a.55.55,0,0,0-.38.52v.93h8.2v.91H1.9A.93.93,0,0,1,1,14.81H1V13.44a1.62,1.62,0,0,1,.92-.91l4-1.88a5.72,5.72,0,0,1-1.73-4V4.34c0-1.51,2.09-3.18,4.1-3.18s4.1,1.67,4.1,3.18V6.62a5.43,5.43,0,0,1-1.69,4Z"/></svg>