<svg id="圖層_1" data-name="圖層 1" xmlns="http://www.w3.org/2000/svg" viewBox="0 0 17.01 17.01"><defs><style>.cls-1{fill:#fff;}</style></defs><title>图标</title><path class="cls-1" d="M12.37,1H4.7A1.7,1.7,0,0,0,3,2.68V14.39a1.71,1.71,0,0,0,1.7,1.7h7.67a1.71,1.71,0,0,0,1.7-1.7V2.68A1.7,1.7,0,0,0,12.37,1ZM4.7,2.11h7.67a.57.57,0,0,1,.57.57v9.05H4.14v-9a.57.57,0,0,1,.56-.57ZM12.37,15H4.7a.56.56,0,0,1-.56-.56V12.87h8.8v1.52a.56.56,0,0,1-.57.56ZM6.08,4h5a.57.57,0,1,0,0-1.13h-5A.57.57,0,1,0,6.08,4Zm1.73,9.94a.76.76,0,0,0,.38.66.74.74,0,0,0,.76,0,.76.76,0,0,0,.38-.66.76.76,0,1,0-1.52,0Zm0,0"/></svg>