<svg id="圖層_1" data-name="圖層 1" xmlns="http://www.w3.org/2000/svg" viewBox="0 0 17.01 17.01"><defs><style>.cls-1{fill:#fff;fill-rule:evenodd;}</style></defs><title>图标</title><path id="密码" class="cls-1" d="M12.67,6.62H12.2V4.83a3.7,3.7,0,0,0-7.4-.27V6.62H4.34A1.87,1.87,0,0,0,2.49,8.5v5.64A1.87,1.87,0,0,0,4.34,16h8.33a1.88,1.88,0,0,0,1.85-1.88V8.5a1.87,1.87,0,0,0-1.85-1.88ZM5.73,4.83a2.77,2.77,0,1,1,5.54-.27,1.22,1.22,0,0,1,0,.27V6.62H5.73Zm7.86,9.31a.94.94,0,0,1-.92.94H4.34a.94.94,0,0,1-.92-.94V8.5a.94.94,0,0,1,.92-.94h8.33a.94.94,0,0,1,.92.94ZM8.5,9.44a.93.93,0,0,0-.92.93h0a.94.94,0,0,0,.46.81v1.54a.47.47,0,0,0,.93,0V11.19a.95.95,0,0,0-.46-1.75Z"/></svg>