<svg id="圖層_1" data-name="圖層 1" xmlns="http://www.w3.org/2000/svg" viewBox="0 0 17.01 17.01"><defs><style>.cls-1{fill:#fff;fill-rule:evenodd;}</style></defs><title>图标</title><path id="安全防护" class="cls-1" d="M8.5,16C6.25,16,2,12.62,2,9.41V3.35a.43.43,0,0,1,.09-.22.32.32,0,0,1,.21-.08h.35A9.94,9.94,0,0,0,5.6,2.44a13.88,13.88,0,0,0,2.51-1.3L8.33,1H8.5a.25.25,0,0,1,.17,0l.22.13A11.91,11.91,0,0,0,11.4,2.53a9.93,9.93,0,0,0,2.95.6h.34a.43.43,0,0,1,.22.09.2.2,0,0,1,.09.22V9.5c0,3.16-4.25,6.5-6.5,6.5ZM14,4.08a11.06,11.06,0,0,1-2.94-.65A18.93,18.93,0,0,1,8.5,2.18,12.18,12.18,0,0,1,5.94,3.44,9.56,9.56,0,0,1,3,4.08V9.41C3,11.92,6.68,15,8.5,15a6.11,6.11,0,0,0,3.42-1.78A5.59,5.59,0,0,0,14,9.41V4.08ZM8.07,10.84a.62.62,0,0,1-.87,0L5.43,9.07a.59.59,0,0,1-.17-.57.63.63,0,0,1,.42-.42.6.6,0,0,1,.57.16L7.59,9.63,11,6.21a.58.58,0,0,1,.83,0,.59.59,0,0,1,0,.8Z"/></svg>