<?xml version="1.0" encoding="UTF-8"?>
<svg width="18px" height="14px" viewBox="0 0 18 14" version="1.1" xmlns="http://www.w3.org/2000/svg" xmlns:xlink="http://www.w3.org/1999/xlink">
    <!-- Generator: Sketch 61 (89581) - https://sketch.com -->
    <title>余额刷新icon</title>
    <desc>Created with Sketch.</desc>
    <g id="页面-1" stroke="none" stroke-width="1" fill="none" fill-rule="evenodd">
        <g id="首页" transform="translate(-23.000000, -397.000000)" fill="#FFFFFF" fill-rule="nonzero">
            <g id="余额刷新icon" transform="translate(23.000000, 397.000000)">
                <path d="M5.58,4.8628125 L0,4.8628125 L2.79,8.3728125 L5.58,4.8628125 Z M18,8.3728125 L15.21,4.8628125 L12.42,8.3728125 L18,8.3728125 Z" id="形状"></path>
                <path d="M9,1.5328125 C11.25,1.5328125 13.23,2.9728125 14.04,4.9528125 L15.12,3.6028125 C13.95,1.4428125 11.61,0.0028125 9,0.0028125 C5.85,0.0028125 3.24,2.0728125 2.34,4.9528125 L3.96,4.9528125 C4.77,2.8828125 6.75,1.5328125 9,1.5328125 Z M9,12.3328125 C6.48,12.3328125 4.32,10.6228125 3.78,8.2828125 L2.61,9.7228125 C3.69,12.1528125 6.12,13.8628125 9,13.8628125 C12.33,13.8628125 15.12,11.5228125 15.84,8.3728125 L14.22,8.3728125 C13.59,10.7128125 11.52,12.3328125 9,12.3328125 Z" id="形状"></path>
            </g>
        </g>
    </g>
</svg>