<?xml version="1.0" encoding="utf-8"?>
<!-- Generator: Adobe Illustrator 23.0.3, SVG Export Plug-In . SVG Version: 6.00 Build 0)  -->
<svg version="1.1" id="图层_1" xmlns="http://www.w3.org/2000/svg" xmlns:xlink="http://www.w3.org/1999/xlink" x="0px" y="0px"
	 viewBox="0 0 118 13" style="enable-background:new 0 0 118 13;" xml:space="preserve">
<style type="text/css">
	.st0{fill:#8D8D8D;}
</style>
<g>
	<polygon class="st0" points="6.8,5.79 1.14,0.14 0.44,0.84 6.09,6.5 0.44,12.16 1.14,12.86 6.8,7.21 6.8,7.21 7.51,6.5 6.8,5.79 	
		"/>
	<polygon class="st0" points="11.14,0.14 10.44,0.84 16.09,6.5 10.44,12.16 11.14,12.86 16.8,7.21 17.51,6.5 16.8,5.79 	"/>
	<polygon class="st0" points="21.14,0.14 20.43,0.84 26.09,6.5 20.43,12.16 21.14,12.86 26.8,7.21 27.51,6.5 26.8,5.79 	"/>
	<polygon class="st0" points="36.8,5.79 31.14,0.14 30.43,0.84 36.09,6.5 30.43,12.16 31.14,12.86 36.8,7.21 36.8,7.21 37.51,6.5 
		36.8,5.79 	"/>
	<polygon class="st0" points="46.8,5.79 41.14,0.14 40.44,0.84 46.09,6.5 40.44,12.16 41.14,12.86 46.8,7.21 46.8,7.21 47.51,6.5 
		46.8,5.79 	"/>
	<polygon class="st0" points="51.14,0.14 50.44,0.84 56.09,6.5 50.44,12.16 51.14,12.86 56.8,7.21 57.51,6.5 56.8,5.79 	"/>
	<polygon class="st0" points="61.14,0.14 60.43,0.84 66.09,6.5 60.43,12.16 61.14,12.86 66.8,7.21 67.51,6.5 66.8,5.79 	"/>
	<polygon class="st0" points="76.8,5.79 76.8,5.79 71.14,0.14 70.43,0.84 76.09,6.5 70.43,12.16 71.14,12.86 76.8,7.21 76.8,7.21 
		77.51,6.5 76.8,5.79 	"/>
	<polygon class="st0" points="81.14,0.14 80.44,0.84 86.09,6.5 80.44,12.16 81.14,12.86 86.8,7.21 86.8,7.21 87.51,6.5 86.8,5.79 	
		"/>
	<polygon class="st0" points="91.14,0.14 90.44,0.84 96.09,6.5 90.44,12.16 91.14,12.86 96.8,7.21 97.51,6.5 96.8,5.79 	"/>
	<polygon class="st0" points="101.14,0.14 100.43,0.84 106.09,6.5 100.43,12.16 101.14,12.86 106.8,7.21 107.51,6.5 106.8,5.79 	"/>
	<polygon class="st0" points="117.45,6.45 116.8,5.79 116.8,5.79 116.8,5.79 111.14,0.14 110.7,0.58 110.43,0.84 110.44,0.84 
		110.43,0.84 116.09,6.5 110.43,12.16 110.44,12.16 110.43,12.16 110.7,12.42 111.14,12.86 116.8,7.21 116.8,7.21 116.8,7.21 
		117.45,6.55 117.51,6.5 	"/>
</g>
</svg>
