<?xml version="1.0" encoding="UTF-8"?>
<svg width="24px" height="21px" viewBox="0 0 24 21" version="1.1" xmlns="http://www.w3.org/2000/svg" xmlns:xlink="http://www.w3.org/1999/xlink">
    <!-- Generator: Sketch 61 (89581) - https://sketch.com -->
    <title>游戏记录icon</title>
    <desc>Created with Sketch.</desc>
    <g id="页面-1" stroke="none" stroke-width="1" fill="none" fill-rule="evenodd">
        <g id="首页" transform="translate(-101.000000, -164.000000)" fill="#FFFFFF" fill-rule="nonzero">
            <g id="游戏记录icon" transform="translate(101.000000, 164.000000)">
                <path d="M10.9929017,0.00789773366 L12.9873615,0.00789773366 L12.9873615,2.70366154 L18.638331,2.70366154 C20.0489007,2.70366153 21.4016972,3.27169585 22.3991206,4.28280341 C23.396544,5.29391098 23.9568906,6.66526713 23.9568906,8.09518916 L23.9568906,18.2043034 C23.9568906,18.9192644 23.6767173,19.6049425 23.1780056,20.1104963 C22.6792939,20.61605 22.0028957,20.9000672 21.2976108,20.9000672 L17.9735111,20.9000672 C17.2682262,20.9000672 16.591828,20.61605 16.0931163,20.1104963 C15.5944046,19.6049425 15.3142313,18.9192644 15.3142313,18.2043034 L15.3142313,17.5303624 L8.66603186,17.5303624 L8.66603186,18.2043034 C8.66603186,19.6931326 7.47543174,20.9000672 6.00675207,20.9000672 L2.68265235,20.9000672 C1.9773675,20.9000672 1.30096928,20.61605 0.802257582,20.1104963 C0.303545882,19.6049425 0.0233725658,18.9192644 0.0233725658,18.2043034 L0.0233725658,8.09518916 C0.0233725658,6.66526713 0.583719189,5.29391098 1.58114259,4.28280341 C2.57856599,3.27169585 3.93136244,2.70366153 5.34193214,2.70366154 L10.9929017,2.70366154 L10.9929017,0.00789773366 Z M21.9624307,8.09518916 C21.9624307,7.20148789 21.6122141,6.34439029 20.9888245,5.71244806 C20.3654349,5.08050583 19.5199371,4.72548438 18.638331,4.72548438 L5.34193214,4.72548438 C4.46032607,4.72548438 3.6148283,5.08050583 2.99143868,5.71244806 C2.36804905,6.34439029 2.01783242,7.20148789 2.01783242,8.09518916 L2.01783242,15.5085396 L21.9624307,15.5085396 L21.9624307,8.09518916 Z M21.9624307,15.5467208 L17.3086911,15.5467208 L21.9624307,15.5467208 Z M17.3086911,15.5085396 L17.3086911,18.2043034 C17.3086911,18.3830437 17.3787345,18.5544632 17.5034124,18.6808516 C17.6280903,18.8072401 17.7971899,18.8782443 17.9735111,18.8782443 L21.2976108,18.8782443 C21.6647807,18.8782443 21.9624307,18.5765107 21.9624307,18.2043034 L21.9624307,15.5085396 L17.3086911,15.5085396 L17.3086911,15.5085396 Z M2.01783242,15.5467208 L6.67157203,15.5467208 L2.01783242,15.5467208 Z M6.67157203,15.5085396 L2.01783242,15.5085396 L2.01783242,18.2043034 C2.01783242,18.5765107 2.31548244,18.8782443 2.68265235,18.8782443 L6.00675207,18.8782443 C6.18307329,18.8782443 6.35217284,18.8072401 6.47685077,18.6808516 C6.6015287,18.5544632 6.67157203,18.3830437 6.67157203,18.2043034 L6.67157203,15.5085396 L6.67157203,15.5085396 Z M6.00675207,8.43215963 L6.00675207,6.41033676 L8.0012119,6.41033676 L8.0012119,8.43215963 L9.99567175,8.43215963 L9.99567175,10.4539825 L8.0012119,10.4539825 L8.0012119,12.4758053 L6.00675207,12.4758053 L6.00675207,10.4539825 L4.01229225,10.4539825 L4.01229225,8.43215963 L6.00675207,8.43215963 L6.00675207,8.43215963 Z M15.9790513,9.10610057 C15.2447114,9.10610057 14.6494114,8.50263328 14.6494114,7.75821866 C14.6494114,7.01380404 15.2447114,6.41033676 15.9790513,6.41033676 C16.7133911,6.41033676 17.3086911,7.01380406 17.3086911,7.75821866 C17.3086911,8.50263327 16.7133911,9.10610057 15.9790513,9.10610057 L15.9790513,9.10610057 Z M18.638331,12.4758053 C18.1632533,12.4758709 17.7242357,12.2189804 17.4866782,11.8019174 C17.2491206,11.3848543 17.2491206,10.8709925 17.4866782,10.4539295 C17.7242357,10.0368664 18.1632533,9.77997593 18.638331,9.78004152 C19.3726001,9.78014292 19.9677898,10.3835805 19.9677898,11.1279234 C19.9677898,11.8722663 19.3726001,12.4757039 18.638331,12.4758053 L18.638331,12.4758053 Z" id="形状"></path>
            </g>
        </g>
    </g>
</svg>