<?xml version="1.0" encoding="utf-8"?>
<!-- Generator: Adobe Illustrator 23.0.3, SVG Export Plug-In . SVG Version: 6.00 Build 0)  -->
<svg version="1.1" id="图层_1" xmlns="http://www.w3.org/2000/svg" xmlns:xlink="http://www.w3.org/1999/xlink" x="0px" y="0px"
	 viewBox="0 0 52 52" style="enable-background:new 0 0 52 52;" xml:space="preserve">
<style type="text/css">
	.st0{filter:url(#Adobe_OpacityMaskFilter);}
	.st1{fill-rule:evenodd;clip-rule:evenodd;fill:#FFFFFF;}
	.st2{mask:url(#mask-2_1_);fill-rule:evenodd;clip-rule:evenodd;fill:#FFFFFF;}
</style>
<title>找回密码-密保icon</title>
<desc>Created with Sketch.</desc>
<g id="页面-1">
	<g id="首页" transform="translate(-179.000000, -150.000000)">
		<g id="找回密码-密保icon" transform="translate(179.000000, 148.000000)">
			<g id="编组" transform="translate(0.000000, 1.579725)">
				<g id="Clip-2">
				</g>
				<defs>
					<filter id="Adobe_OpacityMaskFilter" filterUnits="userSpaceOnUse" x="0" y="0.67" width="51.08" height="51.08">
						<feColorMatrix  type="matrix" values="1 0 0 0 0  0 1 0 0 0  0 0 1 0 0  0 0 0 1 0"/>
					</filter>
				</defs>
				<mask maskUnits="userSpaceOnUse" x="0" y="0.67" width="51.08" height="51.08" id="mask-2_1_">
					<g class="st0">
						<polygon id="path-1_1_" class="st1" points="0,0.67 51.08,0.67 51.08,51.75 0,51.75 						"/>
					</g>
				</mask>
				<path id="Fill-1" class="st2" d="M43.44,25.37c-0.05,0.28-0.1,0.56-0.15,0.84H25.54v19.87c-0.25-0.02-1.3-0.11-2.84-0.55
					c-1.45-0.43-2.84-1.01-4.17-1.73c-1.22-0.66-3.63-2.29-6.04-5.8c-2.26-3.29-3.84-7.25-4.7-11.79h17.74V7.65
					c0.82,0.5,1.77,1.04,2.84,1.57c2.2,1.09,4.5,1.97,6.86,2.64c3.19,0.91,6.47,1.51,9.78,1.8C44.74,16.56,44.26,20.52,43.44,25.37
					 M48.33,8.12c-2.47,0-6.49-0.3-11.55-1.73c-2.96-0.82-5.78-2.06-8.4-3.67c-1.86-1.16-2.84-2.06-2.84-2.06s-0.97,0.9-2.84,2.06
					c-2.61,1.61-5.44,2.84-8.4,3.67C9.23,7.82,5.22,8.12,2.75,8.12C0.98,8.12,0,7.97,0,7.97s0.07,6.63,2.04,18.34
					c1.61,9.56,5.83,16.02,10.01,19.76c1.15,1.05,2.43,1.96,3.79,2.71c3.48,1.88,6.43,2.57,8.13,2.82c0.52,0.08,1.05,0.13,1.57,0.14
					c0.13,0,4.26-0.02,9.7-2.97c5.11-2.76,11.69-9.96,13.8-22.47c1.98-11.71,2.04-18.34,2.04-18.34S50.1,8.12,48.33,8.12"/>
			</g>
		</g>
	</g>
</g>
</svg>
