<?xml version="1.0" encoding="utf-8"?>
<!-- Generator: Adobe Illustrator 23.0.3, SVG Export Plug-In . SVG Version: 6.00 Build 0)  -->
<svg version="1.1" id="图层_1" xmlns="http://www.w3.org/2000/svg" xmlns:xlink="http://www.w3.org/1999/xlink" x="0px" y="0px"
	 viewBox="0 0 55 57" style="enable-background:new 0 0 55 57;" xml:space="preserve">
<style type="text/css">
	.st0{filter:url(#Adobe_OpacityMaskFilter);}
	.st1{fill-rule:evenodd;clip-rule:evenodd;fill:#FFFFFF;}
	.st2{mask:url(#mask-2_1_);fill-rule:evenodd;clip-rule:evenodd;fill:#FFFFFF;}
</style>
<title>找回密码-客服icon</title>
<desc>Created with Sketch.</desc>
<g id="页面-1">
	<g id="首页" transform="translate(-180.000000, -310.000000)">
		<g id="找回密码-客服icon" transform="translate(180.000000, 310.000000)">
			<g id="Clip-2">
			</g>
			<defs>
				<filter id="Adobe_OpacityMaskFilter" filterUnits="userSpaceOnUse" x="0" y="0" width="54.74" height="56.53">
					<feColorMatrix  type="matrix" values="1 0 0 0 0  0 1 0 0 0  0 0 1 0 0  0 0 0 1 0"/>
				</filter>
			</defs>
			<mask maskUnits="userSpaceOnUse" x="0" y="0" width="54.74" height="56.53" id="mask-2_1_">
				<g class="st0">
					<polygon id="path-1_1_" class="st1" points="0,0 54.74,0 54.74,56.53 0,56.53 					"/>
				</g>
			</mask>
			<path id="Fill-1" class="st2" d="M50.2,18.58c-0.04,0-0.07,0.01-0.11,0.01C47.63,7.94,38.24,0,26.97,0
				C15.39,0,5.78,8.38,3.65,19.47C1.58,19.84,0,21.66,0,23.87v8.81c0,2.47,1.98,4.47,4.43,4.47c1.38,0,2.6-0.65,3.41-1.65
				c1.96,5.18,5.94,9.35,10.99,11.55c0.01-0.03,0.11-0.21,0.22-0.36c0.08-0.1,0.17-0.19,0.24-0.19c0.08,0,0.15,0.03,0.22,0.07
				c-1.17-0.87-5.39-5.34-6.3-11.57c-0.4-2.74,1.65-5.44,4.05-5.88c3.84-0.71,7.66-1.53,11.51-2.23c2.44-0.44,4.11-1.78,5.13-4.02
				c0.24-0.52,0.58-1.57,0.74-3.1c0.04-0.23,0.23-0.4,0.47-0.4c0.16,0,0.29,0.08,0.38,0.2l0.11-0.07c1.51,2.2,4.52,7.07,4.95,12.2
				c0.5,5.87,0.22,9.89-4.27,14c-0.01,0-0.01,0.01-0.02,0.02c-0.06,0.07-0.1,0.15-0.1,0.25c0,0.13,0.07,0.23,0.17,0.3
				c0.04,0.02,0.07,0.04,0.11,0.05c0.03,0.01,0.06,0.02,0.09,0.02c0.03,0,0.06-0.01,0.08-0.02c0.06-0.03,0.12-0.07,0.19-0.11
				c4.54-2.5,8.03-6.68,9.64-11.71c0.65,0.97,1.67,1.67,2.86,1.91c-1.9,8.65-9.62,14.06-19.17,14.89c-0.57-1.42-1.98-2.43-3.64-2.43
				c-2.16,0-3.92,1.71-3.92,3.83c0,2.11,1.75,3.82,3.92,3.82c1.74,0,3.2-1.12,3.71-2.66c11.06-0.9,19.93-7.47,21.78-17.69
				c1.64-0.68,2.78-2.29,2.78-4.16V23.1C54.74,20.61,52.71,18.58,50.2,18.58 M27.63,44.6c0.28,0,0.56-0.02,0.84-0.05
				c2.71-0.33,5.02-2.22,5.87-4.83c0.06-0.2-0.03-0.41-0.22-0.49c-0.19-0.09-0.41-0.01-0.51,0.16c-0.01,0.02-1.09,1.76-5.29,2.32
				c-0.63,0.08-1.24,0.13-1.82,0.13c-2.94,0-4.25-1.11-4.26-1.12c-0.15-0.13-0.37-0.14-0.52-0.01c-0.15,0.13-0.19,0.35-0.08,0.52
				C22.91,43.31,25.21,44.6,27.63,44.6"/>
		</g>
	</g>
</g>
</svg>
