<?xml version="1.0" encoding="UTF-8"?>
<svg width="24px" height="20px" viewBox="0 0 24 20" version="1.1" xmlns="http://www.w3.org/2000/svg" xmlns:xlink="http://www.w3.org/1999/xlink">
    <!-- Generator: Sketch 61 (89581) - https://sketch.com -->
    <title>个人资料icon</title>
    <desc>Created with Sketch.</desc>
    <g id="页面-1" stroke="none" stroke-width="1" fill="none" fill-rule="evenodd">
        <g id="首页" transform="translate(-101.000000, -98.000000)" fill="#FFFFFF" fill-rule="nonzero">
            <g id="个人资料icon" transform="translate(101.000000, 98.000000)">
                <path d="M3.716,1.33333333 C2.708,1.33333333 2.40133333,1.39466667 2.08666667,1.568 C1.85980396,1.69146227 1.676054,1.88125969 1.56,2.112 C1.392,2.43733333 1.33333333,2.75466667 1.33333333,3.79733333 L1.33333333,16.2026667 C1.33333333,17.2453333 1.392,17.5626667 1.56,17.8866667 C1.684,18.1266667 1.856,18.304 2.08666667,18.432 C2.40133333,18.6053333 2.708,18.6666667 3.716,18.6666667 L20.284,18.6666667 C21.292,18.6666667 21.5986667,18.6053333 21.9133333,18.432 C22.1403946,18.3081861 22.3241663,18.1179009 22.44,17.8866667 C22.608,17.5626667 22.6666667,17.2453333 22.6666667,16.2026667 L22.6666667,3.79733333 C22.6666667,2.75466667 22.608,2.43733333 22.44,2.112 C22.323946,1.88125969 22.140196,1.69146227 21.9133333,1.568 C21.5986667,1.39466667 21.292,1.33333333 20.284,1.33333333 L3.716,1.33333333 Z M3.84533333,0 L20.1546667,0 C21.492,0 21.976,0.142666667 22.4653333,0.410666667 C22.9546667,0.678666667 23.3373333,1.072 23.5986667,1.57333333 C23.8613333,2.07466667 24,2.57333333 24,3.944 L24,16.0546667 C24,17.428 23.8613333,17.924 23.6,18.4253333 C23.3471352,18.9183918 22.9517787,19.3239691 22.4653333,19.5893333 C21.976,19.856 21.492,20 20.1546667,20 L3.84533333,20 C2.508,20 2.024,19.8573333 1.53466667,19.5893333 C1.04871539,19.3237567 0.653843908,18.9182005 0.401333333,18.4253333 C0.138666667,17.924 0,17.4266667 0,16.0546667 L0,3.944 C0,2.572 0.138666667,2.07466667 0.4,1.57333333 C0.662666667,1.072 1.04533333,0.68 1.53466667,0.410666667 C2.024,0.142666667 2.508,0 3.84533333,0 Z M5,5.33333333 C4.44771525,5.33333333 4,5.78104858 4,6.33333333 C4,6.88561808 4.44771525,7.33333333 5,7.33333333 L11,7.33333333 C11.5522847,7.33333333 12,6.88561808 12,6.33333333 C12,5.78104858 11.5522847,5.33333333 11,5.33333333 L5,5.33333333 Z M5,9.33333333 C4.44771525,9.33333333 4,9.78104858 4,10.3333333 C4,10.8856181 4.44771525,11.3333333 5,11.3333333 L11,11.3333333 C11.5522847,11.3333333 12,10.8856181 12,10.3333333 C12,9.78104858 11.5522847,9.33333333 11,9.33333333 L5,9.33333333 Z M5,13.3333333 C4.44771525,13.3333333 4,13.7810486 4,14.3333333 C4,14.8856181 4.44771525,15.3333333 5,15.3333333 L8.33333333,15.3333333 C8.88561808,15.3333333 9.33333333,14.8856181 9.33333333,14.3333333 C9.33333333,13.7810486 8.88561808,13.3333333 8.33333333,13.3333333 L5,13.3333333 L5,13.3333333 Z M16,10.6666667 C17.4727593,10.6666667 18.6666667,9.47275933 18.6666667,8 C18.6666667,6.52724067 17.4727593,5.33333333 16,5.33333333 C14.5272407,5.33333333 13.3333333,6.52724067 13.3333333,8 C13.3333333,9.47275933 14.5272407,10.6666667 16,10.6666667 Z M14.248,12 C13.7653333,12 13.5906667,12.0346667 13.4053333,12.108 C13.2230944,12.1788144 13.0610204,12.2932734 12.9333333,12.4413333 C12.8026667,12.5933333 12.7106667,12.7466667 12.5506667,13.2013333 L11.852,15.1853333 C11.7437968,15.4913783 11.7908768,15.8309028 11.9782714,16.0959588 C12.165666,16.3610148 12.470057,16.5186205 12.7946667,16.5186667 L19.524,16.5186667 C19.8486097,16.5186205 20.1530007,16.3610148 20.3403953,16.0959588 C20.5277899,15.8309028 20.5748699,15.4913783 20.4666667,15.1853333 L19.768,13.2013333 C19.608,12.7466667 19.5146667,12.5933333 19.3853333,12.4413333 C19.2576463,12.2932734 19.0955723,12.1788144 18.9133333,12.108 C18.7266667,12.0346667 18.5533333,12 18.0693333,12 L14.248,12 L14.248,12 Z" id="形状"></path>
            </g>
        </g>
    </g>
</svg>