<?xml version="1.0" encoding="UTF-8"?>
<svg width="32px" height="32px" viewBox="0 0 32 32" version="1.1" xmlns="http://www.w3.org/2000/svg" xmlns:xlink="http://www.w3.org/1999/xlink">
    <!-- Generator: Sketch 58 (84663) - https://sketch.com -->
    <title>icon_laba_normal@2x</title>
    <desc>Created with Sketch.</desc>
    <g id="页面-1" stroke="none" stroke-width="1" fill="none" fill-rule="evenodd">
        <g id="首页" transform="translate(-227.000000, -244.000000)">
            <g id="标签栏" transform="translate(22.000000, 1.000000)"></g>
            <path d="M241.662999,248.411857 C243.031054,247.411827 245,248.345145 245,250.005173 L245,269.998449 C245,271.651738 243.031054,272.591765 241.662999,271.585114 L234.422972,266.271768 C234.182646,266.093342 233.887311,265.997098 233.583793,265.998475 L230.46153,265.998475 C228.549783,265.998475 227,264.506092 227,262.66512 L227,257.331734 C227,256.447753 227.364734,255.599956 228.013879,254.974736 C228.663024,254.349633 229.543459,253.998496 230.46153,253.998496 L233.583793,253.998496 C233.887068,253.998496 234.181946,253.905123 234.422972,253.725086 L241.662999,248.411857 Z M255.139015,250.400168 C257.620197,253.069649 259.01112,256.708159 258.999933,260.500228 C258.999933,264.325197 257.629345,267.911843 255.139015,270.607047 C254.646498,271.133615 253.855083,271.130594 253.36601,270.600257 C252.877048,270.067498 252.878122,269.205457 253.36849,268.674223 C255.376663,266.514022 256.502026,263.569159 256.492024,260.500228 C256.500841,257.431506 255.375699,254.487091 253.36849,252.326322 C252.878122,251.795088 252.877048,250.932928 253.36601,250.400168 C253.600655,250.144047 253.919668,250 254.252457,250 C254.585357,250 254.904371,250.144047 255.139015,250.400168 Z M251.364515,254.389253 C253.057888,256.005892 254.00684,258.205808 254,260.498511 C254,262.811957 253.063822,264.979123 251.364515,266.614459 C251.104536,266.86302 250.752198,267.001791 250.385343,267 C250.018519,267.001908 249.666059,266.863137 249.406172,266.614459 C249.146103,266.36511 249,266.026625 249,265.673767 C249,265.320908 249.146103,264.982541 249.406172,264.733191 C250.578767,263.61195 251.235423,262.087162 251.230189,260.498511 C251.235423,258.90983 250.578767,257.385043 249.406172,256.263919 C249.146224,256.015825 249,255.67848 249,255.326527 C249,254.974692 249.146224,254.637346 249.406172,254.389253 C249.947066,253.870249 250.823652,253.870249 251.364515,254.389253 Z" id="laba-(6)" fill="#000000"></path>
        </g>
    </g>
</svg>