<?xml version="1.0" encoding="UTF-8"?>
<svg width="49px" height="48px" viewBox="0 0 49 48" version="1.1" xmlns="http://www.w3.org/2000/svg" xmlns:xlink="http://www.w3.org/1999/xlink">
    <!-- Generator: Sketch 58 (84663) - https://sketch.com -->
    <title>成功</title>
    <desc>Created with Sketch.</desc>
    <g id="控件" stroke="none" stroke-width="1" fill="none" fill-rule="evenodd">
        <g id="大冠控件规范" transform="translate(-94.000000, -4817.000000)" fill="#000000" fill-rule="nonzero">
            <g id="成功" transform="translate(90.000000, 4812.000000)">
                <rect id="矩形" opacity="0" x="0" y="0" width="56" height="56"></rect>
                <path d="M50.246652,19.5154907 C49.0545672,16.7003798 47.353188,14.1762942 45.1872876,12.0103938 C43.0213871,9.84449331 40.4917049,8.1375175 37.6821907,6.95102937 C34.7663402,5.71976814 31.6769938,5.09294423 28.4869079,5.09294423 C25.2968219,5.09294423 22.2074755,5.71976814 19.291625,6.95102937 C16.4765141,8.14311411 13.9524285,9.84449331 11.7865281,12.0103938 C9.62062763,14.1762942 7.91365181,16.7059764 6.72716368,19.5154907 C5.49590245,22.4313412 4.86907854,25.5206876 4.86907854,28.7107735 C4.86907854,31.9008595 5.49590245,34.9902059 6.72716368,37.9060564 C7.91924842,40.7211673 9.62062763,43.2452529 11.7865281,45.4111533 C13.9524285,47.5770538 16.4821108,49.2840296 19.291625,50.4705177 C22.2018788,51.701779 25.2968219,52.3286029 28.4869079,52.3286029 C31.6769939,52.3286029 34.7663402,51.701779 37.6821907,50.4705177 C40.4973016,49.278433 43.0213872,47.5770538 45.1872876,45.4111533 C47.3531881,43.2452529 49.0601639,40.7155707 50.246652,37.9060564 C51.4779133,34.9958026 52.1047372,31.9008595 52.1047372,28.7107735 C52.1047372,25.5206876 51.4779133,22.4313412 50.246652,19.5154907 Z M28.4869079,49.8660804 C16.8235059,49.8660804 7.33160105,40.3741755 7.33160105,28.7107735 C7.33160105,17.0473716 16.8235059,7.55546673 28.4869079,7.55546673 C40.1503098,7.55546673 49.6422147,17.0473716 49.6422147,28.7107735 C49.6422147,40.3741755 40.1503098,49.8660804 28.4869079,49.8660804 Z M39.0141915,20.6795922 L39.0141915,20.6795922 C38.5104937,20.2262642 37.7269639,20.2710373 37.2736358,20.7747351 L25.5374775,33.8540875 L19.509894,28.4477313 C19.0061962,27.9944033 18.2226664,28.0391764 17.7693383,28.5428742 L17.7693383,28.5428742 C17.3160104,29.046572 17.3607835,29.8301019 17.8644813,30.2834299 L24.7819308,36.4845093 C24.7875275,36.4901059 24.7931241,36.4901059 24.7987207,36.4957025 C24.8043174,36.5012992 24.809914,36.5068958 24.809914,36.5068958 L24.809914,36.5068958 C25.3136118,36.9602238 26.0971417,36.9154507 26.5504697,36.4117529 L39.1093344,22.4145512 C39.5626624,21.9164501 39.5178893,21.1329203 39.0141915,20.6795922 Z" id="形状"></path>
            </g>
        </g>
    </g>
</svg>