<?xml version="1.0" encoding="UTF-8"?>
<svg width="23px" height="24px" viewBox="0 0 23 24" version="1.1" xmlns="http://www.w3.org/2000/svg" xmlns:xlink="http://www.w3.org/1999/xlink">
    <!-- Generator: Sketch 61 (89581) - https://sketch.com -->
    <title>交易记录icon</title>
    <desc>Created with Sketch.</desc>
    <g id="页面-1" stroke="none" stroke-width="1" fill="none" fill-rule="evenodd">
        <g id="首页" transform="translate(-102.000000, -129.000000)" fill="#FFFFFF" fill-rule="nonzero">
            <g id="交易记录icon" transform="translate(102.000000, 129.000000)">
                <path d="M19.6769531,0.018452381 L3.33945312,0.018452381 C2.46445312,0.018452381 1.61445312,0.348611111 0.989453125,0.932738095 C0.364453125,1.52956349 0.014453125,2.31686508 0.014453125,3.16765873 L0.014453125,21.453373 C0.014453125,21.6946429 0.176953125,21.9867063 0.376953125,22.1263889 L2.71445313,23.7517857 C3.13945312,24.0184524 3.67695313,24.0184524 4.10195313,23.7390873 L6.63945313,21.9232143 L9.27695313,23.7517857 C9.46445313,23.8914683 9.71445313,23.9549603 9.95195313,23.9549603 C10.2019531,23.9549603 10.4519531,23.8787698 10.6394531,23.7390873 L13.1519531,21.9232143 L15.7519531,23.7517857 C16.1394531,24.0184524 16.7394531,24.0184524 17.1269531,23.7390873 L19.3894531,21.669246 C19.6144531,21.4914683 19.7269531,21.2248016 19.7394531,20.8311508 L19.7394531,6.18988095 C21.6019531,6.16448413 22.9895313,4.86924603 22.9895313,3.16765873 C23.0019531,1.42797619 21.5144531,0.018452381 19.6769531,0.018452381 L19.6769531,0.018452381 Z M18.3644531,20.7295635 C18.3519531,20.8565476 18.3019531,20.9581349 18.2019531,21.0470238 L16.5894531,22.5454365 C16.5019531,22.6089286 16.3769531,22.6089286 16.2894531,22.5581349 L13.8519531,20.805754 C13.3019531,20.4375 13.0394531,20.4375 12.4894531,20.7930556 L10.1019531,22.5200397 C10.0144531,22.5835317 9.87695312,22.5835317 9.78945312,22.5200397 L7.28945312,20.7803571 C6.73945312,20.4121032 6.48945312,20.4121032 5.92695312,20.7803571 L3.51445312,22.5581349 C3.42695312,22.621627 3.30195312,22.6089286 3.21445312,22.5454365 L1.57695312,21.1486111 C1.48945312,21.0724206 1.42695312,20.9581349 1.41445312,20.8311508 L1.38945312,5.64384921 L1.38945312,3.42162698 C1.40195312,3.3327381 1.67695312,1.38988095 3.36445312,1.38988095 L3.50195312,1.38988095 C4.35195312,1.50416667 4.97695312,2.39305556 4.91445312,3.39623016 C4.71445312,4.46289683 3.62695312,4.67876984 3.35195312,4.67876984 C2.80195312,4.67876984 2.60195312,5.04702381 2.60195312,5.36448413 C2.60195312,5.75813492 2.88945312,6.16448413 3.35195312,6.16448413 L18.3644531,6.16448413 L18.3644531,20.7295635 Z M19.6894531,4.75496032 L5.73945312,4.65337302 C5.96445312,4.47559524 6.32695312,4.04384921 6.32695312,3.16765873 C6.32695312,2.20257937 5.92695312,1.64384921 5.72695312,1.41527778 L19.6894531,1.36448413 C20.4144531,1.40257937 21.6144531,1.66924603 21.6144531,3.06607143 C21.6144531,4.05654762 20.6019531,4.75496032 19.6894531,4.75496032 Z" id="形状"></path>
                <path d="M15.9519531,16.005754 L4.01445312,16.005754 C3.62695312,16.005754 3.31445312,16.3232143 3.31445312,16.7168651 C3.31445312,17.1105159 3.62695312,17.4279762 4.01445312,17.4279762 L15.9394531,17.4279762 C16.3144531,17.4279762 16.6394531,17.1105159 16.6519531,16.7168651 C16.6519531,16.3232143 16.3394531,16.005754 15.9519531,16.005754 L15.9519531,16.005754 Z M10.8644531,10.9771825 L15.9394531,10.9771825 C16.3269531,10.9771825 16.6394531,10.6597222 16.6394531,10.2660714 C16.6394531,9.87242063 16.3269531,9.55496032 15.9394531,9.55496032 L10.8644531,9.55496032 C10.4769531,9.55496032 10.1644531,9.87242063 10.1644531,10.2660714 C10.1644531,10.6597222 10.4769531,10.9771825 10.8644531,10.9771825 Z M10.8644531,14.2025794 L15.9394531,14.2025794 C16.3269531,14.2025794 16.6394531,13.885119 16.6394531,13.4914683 C16.6394531,13.0978175 16.3269531,12.7803571 15.9394531,12.7803571 L10.8644531,12.7803571 C10.4769531,12.7803571 10.1644531,13.0978175 10.1644531,13.4914683 C10.1644531,13.885119 10.4769531,14.2025794 10.8644531,14.2025794 Z M3.31445312,10.2660714 C3.31445312,10.6597222 3.62695312,10.9771825 4.01445312,10.9771825 L5.21445313,10.9771825 L5.21445313,11.485119 L4.01445313,11.485119 C3.62695312,11.485119 3.31445312,11.8025794 3.31445312,12.1962302 C3.31445312,12.589881 3.62695313,12.9073413 4.01445313,12.9073413 L5.21445313,12.9073413 L5.21445313,14.1263889 C5.21445313,14.5200397 5.52695313,14.8375 5.91445312,14.8375 C6.30195313,14.8375 6.61445313,14.5200397 6.61445313,14.1390873 L6.61445313,12.9073413 L7.81445312,12.9073413 C8.18945312,12.9073413 8.51445312,12.589881 8.52695313,12.1962302 C8.52695313,11.8025794 8.21445313,11.485119 7.82695313,11.485119 L6.61445313,11.485119 L6.61445313,10.9771825 L7.81445312,10.9771825 C8.18945312,10.9771825 8.51445312,10.6597222 8.52695313,10.2660714 C8.52695313,9.87242063 8.21445313,9.55496032 7.82695313,9.55496032 L7.13945312,9.55496032 L8.03945312,8.55178571 C8.16445312,8.41210317 8.22695312,8.2343254 8.22695312,8.04384921 C8.21445312,7.85337302 8.13945312,7.67559524 8.00195312,7.54861111 C7.86445312,7.42162698 7.67695312,7.35813492 7.50195312,7.35813492 C7.31445312,7.37083333 7.13945312,7.44702381 7.01445312,7.58670635 L5.90195312,8.81845238 L4.75195312,7.58670635 C4.62695312,7.44702381 4.45195312,7.37083333 4.26445313,7.37083333 C4.07695313,7.37083333 3.90195312,7.4343254 3.76445313,7.56130952 C3.62695313,7.68829365 3.55195313,7.86607143 3.55195313,8.05654762 C3.55195313,8.24702381 3.61445313,8.42480159 3.73945313,8.56448413 L4.65195313,9.55496032 L4.02695313,9.55496032 C3.62695312,9.55496032 3.31445312,9.87242063 3.31445312,10.2660714 Z" id="形状"></path>
            </g>
        </g>
    </g>
</svg>