<svg id="魚蝦蟹" xmlns="http://www.w3.org/2000/svg" viewBox="0 0 120 65"><defs><style>.cls-1{fill:#242526;}.cls-2{fill:#8c8d8d;}.cls-3{fill:#514f4e;}.cls-4{fill:#3e3a39;}.cls-5{fill:#545251;}.cls-6{fill:#fff;}</style></defs><title>魚蝦蟹</title><g id="蟹"><rect class="cls-1" x="0.5" y="0.5" width="119" height="64"/><path class="cls-2" d="M119,1V64H1V1H119m1-1H0V65H120V0Z"/><path class="cls-3" d="M38.2,40.36c-1,0-.74.87-.71,1.73,0,.29.37.5.8.46s6.07-.6,6-.9C44,39.78,45,40.61,38.2,40.36Z"/><path class="cls-3" d="M40.17,12.22a14.7,14.7,0,0,1,2.92.61,1.5,1.5,0,0,0,1.46-.39A13.48,13.48,0,0,1,51.7,8c.85-.22.74-.47.46-.51C44.69,6.38,37,11.87,40.17,12.22Z"/><path class="cls-3" d="M68.31,7.88a13.52,13.52,0,0,1,7.62,4.56,1.3,1.3,0,0,0,.58.36,1.17,1.17,0,0,0,.88,0,14.7,14.7,0,0,1,2.92-.61c.54-.06.79-.61.43-1A14.64,14.64,0,0,0,68.32,7.52.18.18,0,0,0,68.31,7.88Z"/><path class="cls-3" d="M83.2,51c-.22-.25-3.16-3.32-3.41-3.12l-.72.58a38.18,38.18,0,0,1,2.68,3.35.54.54,0,0,0,.65.27C83.1,51.67,83.67,51.53,83.2,51Z"/><path class="cls-3" d="M34.58,36.33c1.06-1.63.59-.51-1.36-2.26a11.94,11.94,0,0,1-1.68-1.48c-.52-.55-1,.07-1.64.55C29,33.83,34.35,36.68,34.58,36.33Z"/><path class="cls-3" d="M36.49,35.36a.81.81,0,0,0-1,.16c-.54.88-1.18,1.51-.12,1.83.75.27,6.56,1.53,6.61.91,0-.14.15-1.33,0-1.35A17.06,17.06,0,0,1,36.49,35.36Z"/><path class="cls-3" d="M79.61,47.54c.79-.65-5.13-4-5.35-3.66l-.68.91a31.26,31.26,0,0,1,4.31,3.29C78.53,48.67,78.92,48.11,79.61,47.54Z"/><path class="cls-3" d="M92.28,39.1a9,9,0,0,1-2.71,1.27.41.41,0,0,0-.27.43c0,.21,0,.76.14.88s3.31-2.09,3-2.53A.13.13,0,0,0,92.28,39.1Z"/><path class="cls-3" d="M86,36.33c.21.32,5.56-2.51,4.68-3.19-.61-.48-1.12-1.1-1.64-.55a17.14,17.14,0,0,1-3.6,2.75C85.32,35.4,85.92,36.24,86,36.33Z"/><path class="cls-3" d="M85,35.52a.79.79,0,0,0-1-.16,17.13,17.13,0,0,1-5.53,1.55c-.17,0,0,1.46.11,1.46a20,20,0,0,0,6.5-1C86.21,37,85.57,36.4,85,35.52Z"/><path class="cls-3" d="M83.1,52c-.32.19-.85.4-.7.71a5.88,5.88,0,0,1,.46,2.48c0,.14.28.13.33,0,.15-.49.7-3.07.14-3.22A.31.31,0,0,0,83.1,52Z"/><path class="cls-3" d="M76.53,40.33c-.17,0-.33,1.43-.21,1.45,1.15.19,6.73,1.24,6.75.31C83.14,39.59,83.73,40.62,76.53,40.33Z"/><path class="cls-3" d="M88.3,40.48c-5.86.71-4.82-.08-4.85,1.51,0,.22,4.72.28,5,.28.85,0,.58-.71.52-1.44C88.93,40.59,88.63,40.44,88.3,40.48Z"/><path class="cls-3" d="M90.58,32.7c.82.68.75-2.08.57-3.05-.06-.22-.05-.46-.29-.51s-.17,0-.18.08a5.69,5.69,0,0,1-.8,2.55C89.68,32.06,90.29,32.46,90.58,32.7Z"/><path class="cls-3" d="M46.26,50.06a15.7,15.7,0,0,0-2.17,3.19c-.25.6.41.63,1.13.82a.44.44,0,0,0,.51-.34,14.92,14.92,0,0,1,1.52-3.18s0,0,0,0A3.32,3.32,0,0,0,46.26,50.06Z"/><path class="cls-3" d="M74.09,49.05c-.3-.3-3.58-3.39-3.88-3.12l-.8.74c-.07,0-.06,0-.06,0a0,0,0,0,0,0,0,22.81,22.81,0,0,1,3,3.34c.41.62,1,.07,1.73-.32C74.33,49.64,74.32,49.31,74.09,49.05Z"/><path class="cls-3" d="M45.47,54.61c0-.12-.13-.25-.32-.3s-.68-.25-.84-.17c-.45.22.81,2,1.13,2.4l.23.23a.24.24,0,0,0,.21,0c.08,0,.12-.06.1-.11A3.63,3.63,0,0,1,45.47,54.61Z"/><path class="cls-3" d="M50.21,45.91c-.83.56-4.66,3.35-3.74,3.86.7.39,1.32.94,1.73.32.94-1.28,3-3.4,3-3.4S50.32,45.83,50.21,45.91Z"/><path class="cls-3" d="M66.27,43.12A14.7,14.7,0,0,0,68,42.5a35.41,35.41,0,0,1,4.45,2c.33.19.73.2.88,0,.52-.72,1.08-1.17.19-1.55a38.72,38.72,0,0,0-3.78-1.37c.3-.19.59-.38.86-.58,1.46.35,2.93.67,4.42,1,.42.08.81-.1.86-.39.13-.87.5-1.72-.5-1.78s-2-.15-3.07-.24a8.18,8.18,0,0,0,1-1.38c1.12.25,4.86,1,4.81.07-.11-2.4.22-1.43-4.06-1.77l0-.09A9.31,9.31,0,0,0,76.71,34a17.14,17.14,0,0,1,3.58-1.67c.72-.22-.23-.61-.76-1a2.17,2.17,0,0,0,2.45-.3c5.77-5.48,3.63-6,1.08-7.43,2.29.8,3.12,1.36,3.12-.66,0-3.42-1.92-11-6.3-10.21h0v0c-1.73.32-3.86,1-3.86,1-1.82,0-4.55-4.7-4.69-3.3-.25,2.59.93,5.2,1.64,5.72a17.68,17.68,0,0,0,6.57,5.87.62.62,0,0,0-.67.6,24.23,24.23,0,0,1-1,7.87.81.81,0,0,0-.38.07c-.68-3.34-5.48-6.07-12-7h0c.91-.83-1.67-1.26-2-.38a36.28,36.28,0,0,0-6.34,0c-.37-.88-2.94-.44-2,.38h0c-6.51,1-11.31,3.71-12,7.05h0a4.42,4.42,0,0,0-.11.74,3.36,3.36,0,0,0-1.91.51,2.09,2.09,0,0,1,1.5-.85l.1-.4a28.22,28.22,0,0,1-1-7.94.61.61,0,0,0-.66-.6,18.85,18.85,0,0,0,6.56-5.87c1.88-1.39,2.09-7.41,1-5.83A10.87,10.87,0,0,1,46,12.94h0c-2.07,1.49-.24.68-5.73-.22-4.08-.67-6.13,7.49-5.89,11.12.07,1.13,1.85.27,3.09-.16-2.54,1.39-4.72,1.92,1.08,7.43a2.17,2.17,0,0,0,2.44.3c-1.11.72-1.4.71-.13,1.16a21.12,21.12,0,0,1,3,1.47,9.23,9.23,0,0,0,2.64,2.38.32.32,0,0,1,0,.09,25.43,25.43,0,0,1-3.14.08c-.41,0-.77.16-.78.46-.06,1.35-1.05,2.41,4.68,1.17a8.32,8.32,0,0,0,1,1.37c-1,.09-2,.18-3,.24-.41,0-.73.27-.68.56.13.89,0,1.8,1,1.61,1.47-.27,2.92-.59,4.36-.94.28.2.56.4.86.58-.92.28-4.65,1.38-4.16,2,1.2,1.64,0,1.11,5.91-1.17.55.23,1.12.43,1.71.62-.81.39-4.28,2-3.65,2.59s1,1.18,1.59.68a30.54,30.54,0,0,1,3.93-2.8,20.91,20.91,0,0,0,4,.45h.15a20.74,20.74,0,0,0,4.09-.46c5.24,3.18,3.9,3.66,5.54,2.13C70.58,45.14,67.08,43.52,66.27,43.12Z"/><path class="cls-3" d="M29.71,32.8c.28,0,1.18-.72,1-1a5.81,5.81,0,0,1-.79-2.55c0-.06-.09-.1-.18-.08C29.24,29.23,29.06,32.77,29.71,32.8Z"/><path class="cls-3" d="M37.46,52c-.79-.45-.4,2.07-.19,2.87.06.18.07.42.29.42s.14,0,.14-.1a5.88,5.88,0,0,1,.46-2.48C38.31,52.38,37.78,52.17,37.46,52Z"/><path class="cls-3" d="M37.09,41c0-.06-4.75-.49-4.83-.5-.81-.11-.69.65-.75,1.35s4.56.32,5.53.25C37.16,42.07,37.09,41.09,37.09,41Z"/><path class="cls-3" d="M46.3,43.88c-.25-.33-4.72,2.62-5.11,2.91-.77.56-.12.85.61,1.45a.71.71,0,0,0,.87-.16A27.51,27.51,0,0,1,47,44.82,7.36,7.36,0,0,0,46.3,43.88Z"/><path class="cls-3" d="M31,40.37a8.84,8.84,0,0,1-2.71-1.27c-.13-.1-.29.15-.18.28a9,9,0,0,0,2.81,2.32C31.36,41.94,31.43,40.48,31,40.37Z"/><path class="cls-3" d="M74.18,50.05s-.8.44-.84.45,0,0,0,.06a14.62,14.62,0,0,1,1.52,3.17c.14.57.77.27,1.43.09.23,0,.32-.31.21-.57S74.55,49.85,74.18,50.05Z"/><path class="cls-3" d="M76,54.13c-.32.09-.94.2-.92.48a3.63,3.63,0,0,1-.51,2.09c0,.11.21.17.31.07C75.54,56.1,77,53.86,76,54.13Z"/><path class="cls-3" d="M37.36,51c-.48.57.1.71.8,1.08a.54.54,0,0,0,.65-.27,38.18,38.18,0,0,1,2.68-3.35l-.72-.58C40.52,47.63,37.58,50.71,37.36,51Z"/><path class="cls-3" d="M77,22.22a53,53,0,0,0-4.83-5,5.72,5.72,0,0,0,1.73,3A9.45,9.45,0,0,0,77,22.22Z"/><path class="cls-3" d="M46,20.89a5.81,5.81,0,0,0,1.86-3.1c-1.71,1.8-3.54,3.23-5.16,5.15A9.84,9.84,0,0,0,46,20.89Z"/><path class="cls-4" d="M83.38,28.22h0a22.54,22.54,0,0,1-2,2.25l-.22.23.32-.13a5.71,5.71,0,0,0,1.9-1.42L84,28.6l.38-.55a4,4,0,0,0,1-2.09l0-.29-.16.25A13,13,0,0,1,83.38,28.22Z"/><path class="cls-4" d="M85.32,19.14v-.05a12,12,0,0,0-1.92-3.89l-.28-.34.14.4c.13.36.27.72.41,1.07a16.66,16.66,0,0,1,.93,2.91,18.07,18.07,0,0,1,.68,3.14l.15.93.07.42.09-.42A11.07,11.07,0,0,0,85.32,19.14Z"/><path class="cls-4" d="M77.82,31.13h-.16l.11.1a3.47,3.47,0,0,0,1.52.93l.14,0,0-.13A1.54,1.54,0,0,0,77.82,31.13Z"/><path class="cls-4" d="M69.58,40.52a12.49,12.49,0,0,1-5,2.11,19.33,19.33,0,0,1-5.68.44,21.58,21.58,0,0,1-5.57-1.22l-.07.12a16.88,16.88,0,0,0,7.55,1.66,20.5,20.5,0,0,0,3.95-.39A12.83,12.83,0,0,0,70,40.87a9.92,9.92,0,0,0,3.12-4.23l-.14,0A12.6,12.6,0,0,1,69.58,40.52Z"/><path class="cls-5" d="M41,30.17c-.55.22-1.18.57-1.56.21-4.38-4.18-4.48-5,.67-7,1.17-.46.8-.28-.24.36C37.63,25.15,39.43,28.21,41,30.17ZM76.57,12.06a.5.5,0,0,0,.39.18c.64-.19,1.22-.26,1.81-.38C76.37,9.51,72.49,8,70.93,8A13.65,13.65,0,0,1,76.57,12.06ZM49.55,8a13.45,13.45,0,0,0-9.22,3.69,8.21,8.21,0,0,1,2,.26C44.37,9.81,46.59,9.18,49.55,8Zm-9,11.79a24.87,24.87,0,0,0,4.15-4.85c1.61-.26,3.44-2.37,3.9-3.66-4,4.1-4.17,3.23-7.29,2.72.26.13.54.25.81.37A22.43,22.43,0,0,0,40,13.8c-2.25-.37-4,5.56-4.22,7.48,0,0-.15,1.75-.15,1.78,3.39-1.5,7-2.91,8.85-5.84A11.74,11.74,0,0,1,40.58,19.79Zm38.81,9.58a6.51,6.51,0,0,0,3.22-4.54,24.06,24.06,0,0,0-2.4-1.29A19.2,19.2,0,0,1,79.39,29.37Zm-5-1.24c1.77,4.91-5,6.26-5,6.26-.84,11-21.53,7.13-18.78.49-4.25-.47-5.52-2.61-5.89-3.64-.08-4,6.26-6.3,11.07-7a19.94,19.94,0,0,0,2.33.26,5.71,5.71,0,0,0-2.31.9,16.9,16.9,0,0,1,8.76,0,5.72,5.72,0,0,0-2.27-.89,20.12,20.12,0,0,0,2.48-.27C69,24.87,72.49,26.28,74.34,28.13ZM58.76,40.52c-1.1-.78-2.7-2.15-2.57-3.36a3.9,3.9,0,0,0-2.27-4C56.82,36.64,53.36,39.16,58.76,40.52Zm7.15-7.39a4.36,4.36,0,0,0-1.83,1.7c-1.34,2.06.52,2.1-1.22,4.12a10.22,10.22,0,0,1-1.79,1.57,5.89,5.89,0,0,0,2.36-1.14c2-1.56.67-2.33,1.35-4.31A6.67,6.67,0,0,1,65.91,33.13ZM80.29,13.25,79,14.2c-3.37.82-3.37,1.39-6.15-1a7.71,7.71,0,0,0,1,2.23l.17.13A18.25,18.25,0,0,0,81.71,22a7.31,7.31,0,0,0,.55-4,9,9,0,0,1,1.6,3.85C84.14,19,82.23,15.59,80.29,13.25Z"/><polygon class="cls-4" points="64.53 24.29 64.53 24.29 64.52 24.29 64.53 24.29"/><path class="cls-4" d="M55.77,24.29l.1,0h-.06Z"/><path class="cls-4" d="M48.63,11.28c-2.25,2.34-3.29,3.06-4.34,3.15a24.41,24.41,0,0,1-3.71,4.23,14,14,0,0,0,2.29-1.24,27.14,27.14,0,0,0,1.86-2.48C46.34,14.68,48.17,12.57,48.63,11.28Z"/><path class="cls-4" d="M76.57,12.06a.5.5,0,0,0,.39.18c.64-.19,1.22-.26,1.81-.38a12.15,12.15,0,0,0-1.08-.92l-.73.17a.49.49,0,0,1-.39-.17,13.23,13.23,0,0,0-1.76-1.75A11,11,0,0,0,70.93,8,13.65,13.65,0,0,1,76.57,12.06Z"/><path class="cls-4" d="M40.58,19.79q.33-.3.66-.63a41.49,41.49,0,0,1-5.55,2.74c0,.51-.08,1.14-.08,1.16,3.39-1.5,7-2.91,8.85-5.84A11.74,11.74,0,0,1,40.58,19.79Z"/><path class="cls-4" d="M69.35,33.26C69,37.35,66,39.39,62.45,40a6.75,6.75,0,0,1-1.38.52c.18-.13.34-.27.52-.41a15.46,15.46,0,0,1-3.4,0l.57.43a8.78,8.78,0,0,1-1.69-.59c-3.39-.63-6.26-2.27-6.69-4.41-1.23,6.24,18.15,9.55,19-1.13,0,0,5.87-1.18,5.23-5.31C74.11,32.3,69.35,33.26,69.35,33.26Z"/><path class="cls-4" d="M79.73,28.05c-.1.44-.21.88-.34,1.32a6.51,6.51,0,0,0,3.22-4.54l-.3-.17A6.17,6.17,0,0,1,79.73,28.05Z"/><path class="cls-4" d="M49.55,8a14,14,0,0,0-4.7.88,10.73,10.73,0,0,0-2.54,1.94c-.25-.06-.52-.1-.78-.15a12.93,12.93,0,0,0-1.2,1,8.21,8.21,0,0,1,2,.26C44.37,9.81,46.59,9.18,49.55,8Z"/><path class="cls-4" d="M82.26,16.84a7.79,7.79,0,0,1,.07,1.25,8.83,8.83,0,0,1,1.53,3.73,6.31,6.31,0,0,0,0-1.15A9.09,9.09,0,0,0,82.26,16.84Z"/><path class="cls-4" d="M82.29,18.52a7.22,7.22,0,0,1-.58,2.34A18.25,18.25,0,0,1,74,14.45l-.17-.12c-.11-.17-.18-.34-.28-.51s-.46-.36-.73-.6a7.71,7.71,0,0,0,1,2.23l.17.13A18.25,18.25,0,0,0,81.71,22,7.36,7.36,0,0,0,82.29,18.52Z"/><path class="cls-4" d="M50.57,33.76c-4-.45-5.32-2.32-5.78-3.4a3.66,3.66,0,0,0-.11.88c.36,1,1.61,3.07,5.65,3.6A3.35,3.35,0,0,1,50.57,33.76Z"/><path class="cls-4" d="M39.48,29.25c-1.71-1.63-2.76-2.74-3.11-3.62-.52,1.05.58,2.33,3.11,4.75.38.36,1,0,1.56-.21-.22-.27-.45-.56-.66-.87A.84.84,0,0,1,39.48,29.25Z"/><path class="cls-6" d="M48.63,11.28a5.5,5.5,0,0,1-2,2.86,3.25,3.25,0,0,1-2,.67,14.25,14.25,0,0,1-2-.23,5.7,5.7,0,0,0-3.33,0A6,6,0,0,0,37,16.84a4.2,4.2,0,0,1,1.9-2.9,6.2,6.2,0,0,1,4-.33,12.24,12.24,0,0,0,1.76.3,2.75,2.75,0,0,0,1.46-.38A9.62,9.62,0,0,0,48.63,11.28Z"/><path class="cls-6" d="M41,11.06A9.51,9.51,0,0,1,44.8,8.53,9.28,9.28,0,0,1,49.55,8a22.43,22.43,0,0,0-2.28.45,13.83,13.83,0,0,0-2.15.69A30.22,30.22,0,0,0,41,11.06Z"/><path class="cls-6" d="M37,27.78a1.64,1.64,0,0,1-1.09-1.56A2.55,2.55,0,0,1,37,24.57a8.09,8.09,0,0,1,1.83-.93,10.37,10.37,0,0,1,2-.5c-1.14.7-2.37,1.19-3.33,1.92a2.52,2.52,0,0,0-1,1.22A1.61,1.61,0,0,0,37,27.78Z"/><path class="cls-6" d="M44.6,30.71c.15-2.13,2-4,4.11-5a13.22,13.22,0,0,1,3.43-1.16c.6-.12,1.21-.18,1.81-.24s1.21,0,1.82,0c-1.12.43-2.19.81-3.25,1.19a31.56,31.56,0,0,0-3,1.32,16.34,16.34,0,0,0-2.68,1.68A11.26,11.26,0,0,0,44.6,30.71Z"/><path class="cls-6" d="M70.93,8a10.12,10.12,0,0,1,4.56.83,9.84,9.84,0,0,1,3.58,2.54c-1.34-.69-2.57-1.41-3.93-1.95A27.38,27.38,0,0,0,70.93,8Z"/><path class="cls-6" d="M72.56,13.22a6.64,6.64,0,0,0,5.68.66l-.06,0A4.27,4.27,0,0,1,80,13.49a2.56,2.56,0,0,1,1.75.7A4.38,4.38,0,0,1,83,16.84a8.4,8.4,0,0,0-1.85-2.1A1.88,1.88,0,0,0,80,14.39a3,3,0,0,0-1.25.38h-.06a6.12,6.12,0,0,1-3.47.15A4.79,4.79,0,0,1,72.56,13.22Z"/><path class="cls-6" d="M80,23.46a5.05,5.05,0,0,1,3,1.11,2.42,2.42,0,0,1,.77,1.32,1.7,1.7,0,0,1-.46,1.35A2.25,2.25,0,0,0,82.42,25,15,15,0,0,0,80,23.46Z"/><path class="cls-6" d="M64.74,24.26a13,13,0,0,1,6.14.9,7.7,7.7,0,0,1,2.61,1.64,3.09,3.09,0,0,1,1.08,2.57,5.65,5.65,0,0,0-1.92-1.82,13.5,13.5,0,0,0-2.44-1.2C68.48,25.62,66.63,25.05,64.74,24.26Z"/></g></svg>