<svg id="魚蝦蟹" xmlns="http://www.w3.org/2000/svg" viewBox="0 0 120 65"><defs><style>.cls-1{fill:#242526;}.cls-2{fill:#c42b2a;}.cls-3{fill:#8a1c21;}.cls-4{fill:#e94d19;}.cls-5{fill:#ca151d;}.cls-6{fill:#fff;}.cls-7{fill:#e71f3c;}</style></defs><title>魚蝦蟹</title><g id="魚"><rect class="cls-1" x="0.5" y="0.5" width="119" height="64"/><path class="cls-2" d="M119,1V64H1V1H119m1-1H0V65H120V0Z"/><path class="cls-3" d="M102,35.13l-4-1.25c1.16-.39,1.63-.55,4.38-1.42C93.21,21.52,76,16.34,72,16.39c-.43.09.76.66.59,1.27a45.83,45.83,0,0,0-10.12.51c-1.81-.83-7.07-3.05-7.84-2.74-.93.38.14,1,.63,2.23A2.88,2.88,0,0,1,55,19.87a31.68,31.68,0,0,0-3.75,1.47l-.51-.2-.25.57c-.48.25-.91.47-1.22.65l-1-.31-.4,1.18c-.37.21-.73.43-1.09.66l-1.33-.29c-.14.53-.21.79-.34,1.32-.37.24-.72.52-1.08.79-.55-.09-.82-.13-1.37-.2-.12.58-.17.87-.29,1.44-.92.74.09-.13-1.43,1.15l-1-.13c-.09.46-.13.69-.22,1.16-.39.32-.78.64-1.18.95l-1-.13c-.06.39-.1.59-.17,1a14.8,14.8,0,0,1-1.31.8l-1-.25c-.1.33-.14.49-.24.83-4.25-.22-9.85-7.19-16.53-6.8,3.42,3.43,5.09,5.18,8.33,8.74,1.58,1.75.37,2.31-4.15,14.43.07-.2,1.19-.58,1.42-.71A17.26,17.26,0,0,0,25.21,47a15.12,15.12,0,0,0,2.65-2.41c1.74-2,2.81-4.47,4.27-6.67.25-.37,1-1.87,1.56-1.85-2.21-.1-3.32-.14-5.54-.19a23.17,23.17,0,0,1,7.38-.6c.23.31.35.46.59.76l.7-.57c.36,0,.72.1,1.1.17l.83,1.09,1-.78,1.52.29c.37.49.54.74.9,1.23l1.06-.83,1.11.24c.28.38.41.57.68,1l.85-.65,1.57.31.43.63.58-.42c8.93,1.55,21.6,2.07,30.72,2.09a91.76,91.76,0,0,1-29.92-1.72c3.32,1.19,5.56,3.11,4.37,6.63a13.7,13.7,0,0,0,6.09-3.59,98.22,98.22,0,0,0,15.22.28c.27.66-.65,1.33-.36,1.43A11.56,11.56,0,0,0,80,41a88.5,88.5,0,0,0,19.56-4.06C102.79,35.89,103.17,35.48,102,35.13Z"/><path class="cls-3" d="M23.34,42.85q.87-1.56,1.59-3.21a6.08,6.08,0,0,0-1.13-7.06c-.77-.88-1.6-1.72-2.45-2.52a35.48,35.48,0,0,0,1.89,3,6.41,6.41,0,0,1,1,6.29C23.89,40.5,23.6,41.67,23.34,42.85Z"/><path class="cls-3" d="M25.43,48.38a8.58,8.58,0,0,0,2.37-1.3,12,12,0,0,0,2-1.93,11.19,11.19,0,0,0,2.31-5,39.31,39.31,0,0,1-3,4.4A33.54,33.54,0,0,1,25.43,48.38Z"/><path class="cls-4" d="M96.47,31.08c-.1.76-1.17,1-2,.89.55,0,1.14-.2,1.2-.67.14-1,.07-1.15-.17-1.56,0,0-1.1-.92-2,1.28a.57.57,0,0,0,0,.28.81.81,0,0,1,0-.61c1.21-3,2.79-1.78,2.79-1.78C96.58,29.49,96.67,29.68,96.47,31.08Z"/><path class="cls-4" d="M100.47,35.5l-2.09-1.07L97.75,34c.89-.92,1.34-1.38,2.25-2.29-1-.91-1.51-1.6-2.58-2.51.51,3.47-4,4.19-4.41,1.78.26-1.54,1.15-3.17,2.64-3.27C84.89,18.74,67.21,15.94,52.85,22L53,22l-1.45.52c-8.25,3.87-11.28,9-15.21,10,7.87-1.7,30.9-4.84,33.06-5,0,0-9.23,1.87-19.53,3.66,8.61,3.16,20.53,5.39,33.67,5.71,0-3.07-.41-3.83.72-7.42,0,3.1.65,7.18,3.11,9.26a18.42,18.42,0,0,1-.95-1.82c2,0,9.6-.19,11.3-.7C98,36.21,100.21,35.58,100.47,35.5ZM71.94,29.56A14.63,14.63,0,0,1,82.25,28.2C82.05,28.17,80.73,28.18,71.94,29.56Z"/><path class="cls-5" d="M93.5,29.19c1-1.15,2.47-1.44,3.29-.64s.68,2.37-.32,3.52-2.48,1.44-3.3.65S92.5,30.34,93.5,29.19Z"/><path class="cls-3" d="M93.79,32.47c2.17,2.1,4.82-3.91,1.43-3.35C93.69,29.37,92.79,31.49,93.79,32.47Zm1-.3c-.65.76-1.51-.08-.86-.83S95.5,31.42,94.84,32.17Z"/><path class="cls-6" d="M93.46,31.24a.9.9,0,0,1,1.32-.1,1,1,0,0,1,0,1.41.9.9,0,0,1-1.32.1A1,1,0,0,1,93.46,31.24Z"/><path class="cls-7" d="M48.84,37.79c6,.79,12,1.42,18,1.64,3,.18,6,.2,9,.17s6-.19,9-.33a83.2,83.2,0,0,1-18.11,1.06A91,91,0,0,1,48.84,37.79Z"/><path class="cls-7" d="M28.15,35.9a21.24,21.24,0,0,1,6.24-.82,18.54,18.54,0,0,1,6.2,1.06c-2.1,0-4.15-.19-6.21-.16S30.25,36,28.15,35.9Z"/><path class="cls-5" d="M68.63,27.59c-1.85.14-18.38.83-28.2,2.56a11.12,11.12,0,0,1-4.11,2.36c3.21-.69,8.94-1.63,14.75-2.5C50.67,29.87,68.63,27.59,68.63,27.59Z"/><path class="cls-5" d="M52.9,30.63l-3,.54c8.61,3.16,20.53,5.39,33.67,5.71,0-.61,0-1.11,0-1.57A113.9,113.9,0,0,1,52.9,30.63Z"/><path class="cls-5" d="M97.7,34.63c-1.7.51-9.32.69-11.3.7a16.34,16.34,0,0,0,.8,1.56c2.72,0,9-.23,10.5-.69.27,0,2.51-.62,2.77-.7l-2-1A6.1,6.1,0,0,1,97.7,34.63Z"/><path class="cls-5" d="M87.1,36.89c-2.24-2.14-2.88-6-2.86-9a13,13,0,0,0-.75,5.29,13.91,13.91,0,0,1,.75-3.72c0,3.1.65,7.18,3.11,9.26a18.42,18.42,0,0,1-.95-1.82Z"/><path class="cls-6" d="M46.7,25.29A37.06,37.06,0,0,1,58.18,20,42.33,42.33,0,0,1,70.7,18.48,41.73,41.73,0,0,1,83.12,20.8,45.51,45.51,0,0,1,89,23.31c1.87,1,3.63,2.21,5.39,3.36a66.88,66.88,0,0,0-11.59-4.53,45.25,45.25,0,0,0-12.09-1.85,46.8,46.8,0,0,0-12.19,1.07A52.88,52.88,0,0,0,46.7,25.29Z"/><path class="cls-6" d="M21.35,26.67a17.38,17.38,0,0,1,4.57,1.89,36.73,36.73,0,0,1,4.17,2.71l0,0a5.45,5.45,0,0,0,3.66,1.14c-1.27.63-2.81.14-4-.45h0l0,0C26.91,30.17,24.21,28.34,21.35,26.67Z"/></g></svg>