<svg id="魚蝦蟹" xmlns="http://www.w3.org/2000/svg" viewBox="0 0 120 65"><defs><style>.cls-1{fill:#242526;}.cls-2{fill:#c42b2a;}.cls-3{fill:#8a1c21;}.cls-4{fill:#e94d19;}.cls-5{fill:#fff;}.cls-6{fill:#ca151d;}.cls-7{fill:#e71f3c;}</style></defs><title>魚蝦蟹</title><g id="蝦"><rect class="cls-1" x="0.5" y="0.5" width="119" height="64"/><path class="cls-2" d="M119,1V64H1V1H119m1-1H0V65H120V0Z"/><path class="cls-3" d="M39.47,49.62a5.61,5.61,0,0,0-.65.33,5.8,5.8,0,0,0-.59-2.71,1.12,1.12,0,0,1,0-.88c1-2.42.92-5.65-1-7.4C41.77,34.6,46.15,45.71,39.47,49.62ZM36,38.89a3.37,3.37,0,0,0-3.21.46,2.07,2.07,0,0,0-2.78.14.94.94,0,0,1,0,.09,4.64,4.64,0,0,0-4.6-1,5.92,5.92,0,0,0-7.69-.38l.73.68s-1.52.6-1.72,4.32c.83.92,1.25,1,1.25,1a10.1,10.1,0,0,0-1.14,4.47c3.46,1.82,5.82,1,7.17-.29,3.64-3.58-1.46-2-.43-6.51,0,2.72,2.41,4.08,4.88,4.76,1.11.3,3.23-3.43,2.19-6.15,1.51,1.35.87,3.83-.09,5.59a9.6,9.6,0,0,1-.25,1.68c3.48-1.33,4.42-5.87,2.92-7.9C35,40.85,35,43.64,34,45.55a1.06,1.06,0,0,0,0,.89,5.68,5.68,0,0,1,.33,2.61,6.86,6.86,0,0,1,.69-.29C38.6,46.94,39.52,40.17,36,38.89Zm39.45-4.11c-2.92-1.11-4.68,1.66-6.77,1.2,0,0-2.14-.4-2.26-.43,2.46-.45,4.24-2.33,4.79-5.76A26.59,26.59,0,0,0,72.85,25,43.75,43.75,0,0,1,84.52,13.5c6.92-4.73,13.83-5,20.56-4.17-11.2-1.9-21.15,0-32,12.91a1.26,1.26,0,0,0-.13-.23c7.93-11.88,16.83-15.45,27-15.78C90.91,6.11,81.34,8,71.8,21.17c-5-.75-29,11.18-27.44,16A3.14,3.14,0,0,0,41,38.37c2.36.94,3,5.48,2.26,8a1.19,1.19,0,0,0,.07.83,9.15,9.15,0,0,1,.78,2.21,6.63,6.63,0,0,0,3.67-5.33c5.78,5.33,12.55,2.59,17.3-3.58a1,1,0,0,0,1,1.25c2.58-.3,5.87.25,5.54-2.91A4,4,0,0,0,71,37c1.59.66,2.48,3.9.21,4.93a7.28,7.28,0,0,0,3.21,0A9.28,9.28,0,0,0,76.89,41C78.23,40.29,78.65,36,75.41,34.78Zm24.65-18.4A3.59,3.59,0,0,0,97.85,15a4.69,4.69,0,0,1,0,1.61c-.08.58-1.63,2.59-3.43,4.5C90.8,24.33,89,22.53,82.58,24.64a13.93,13.93,0,0,0-8.42,8.22A5,5,0,0,1,78.48,36a4.3,4.3,0,0,1-.17,3.53,3.25,3.25,0,0,0,1.64.68c9.75.08,19.86-15.95,20.45-21.91a2.53,2.53,0,0,0,0-.85l0-.09a2,2,0,0,0-.07-.26,2.42,2.42,0,0,0-.23-.59A.56.56,0,0,0,100.06,16.38ZM85.5,23A38,38,0,0,1,90,22.21l2-5.47a1.86,1.86,0,0,1,1.25-1.47C91.55,15.16,91,16,90.2,17S86.18,22.11,85.5,23Z"/><path class="cls-3" d="M55.09,52.41c.29,0,.83,0,.91.24a21.71,21.71,0,0,1,.7,3.12C56.45,55.8,54.51,52.4,55.09,52.41Z"/><path class="cls-3" d="M55.05,52c.45-.07.74-.07.85-.52.58-2.33.38-1.52.64-2.54.14-.52-.5-.89-1-1.29C55,47.12,54.73,52.09,55.05,52Z"/><path class="cls-3" d="M56.19,47.16c-.41.17.27.6.62.88l0,0s0,0,0,.06c.36.28,2-1.25,1.8-1.4A6.22,6.22,0,0,0,56.19,47.16Z"/><polygon class="cls-3" points="55.98 56.89 56.84 56.51 57.77 56.75 56.7 55.97 55.98 56.89"/><path class="cls-3" d="M60.23,45.67c-.65.43,1,.8,1.19.32C61.81,44.9,61.85,44.59,60.23,45.67Z"/><path class="cls-3" d="M62.15,45.09c-.34-.19-.25.71-.27,1.18S65.6,49.34,66,49c.12-.09.44-.28.41-.41A23.61,23.61,0,0,0,62.15,45.09Z"/><polygon class="cls-3" points="44.4 55.19 45.22 54.91 45.94 55.15 45.24 54.46 44.4 55.19"/><path class="cls-3" d="M45.29,51c-.38,5.21.07,3.18.94.13C46.32,50.78,45.32,50.55,45.29,51Z"/><path class="cls-3" d="M50.14,46.76c-.82-.09,0,1.51.52,1.37C54.49,47,54.78,47.26,50.14,46.76Z"/><path class="cls-3" d="M45.75,50.42A1.46,1.46,0,0,0,47,50.35c.48-.29,3.25-1.83,3-2.25-.14-.21-.41-.72-.62-.72C48.93,47.37,45.16,50.31,45.75,50.42Z"/><polygon class="cls-3" points="75.44 49.13 76.11 48.32 77.15 48.09 75.7 47.85 75.44 49.13"/><path class="cls-3" d="M65.35,43.47c.13-.71.39-1.6-.23-1.23-4.42,2.68-4.5,2.46-.43,1.79A.78.78,0,0,0,65.35,43.47Z"/><path class="cls-3" d="M67.39,49.26c-.22-.43-1.22.27-.92.6C68.82,52.5,69.23,52.91,67.39,49.26Z"/><path class="cls-3" d="M73.1,44.06c-.28-.34-.63.3-.88.66a.19.19,0,0,0,0,.27C75.62,47.7,77.55,49.45,73.1,44.06Z"/><path class="cls-3" d="M72.47,43.62c0-.18-5.68-1.3-5.86-1.33-.46-.09-.62,1-.75,1.44h0c-.06.22,5.33,1,6,.49C72,44.12,72.5,43.75,72.47,43.62Z"/><polygon class="cls-3" points="67.83 53.3 68.86 52.81 69.85 53.01 68.82 52.21 67.83 53.3"/><path class="cls-3" d="M75.63,27.15A12.53,12.53,0,0,0,73,32.64c2.11-3.45,4.29-6.71,7.91-8.61A7.55,7.55,0,0,0,78,25.1,11.72,11.72,0,0,0,75.63,27.15Z"/><path class="cls-3" d="M97.12,28.07a14.7,14.7,0,0,0,3.63-4.88,15.28,15.28,0,0,0,1-2.94,9,9,0,0,0,.06-3.07C101,21.17,99.1,24.53,97.12,28.07Z"/><path class="cls-4" d="M38.09,38.43A5.67,5.67,0,0,1,40,42a3.34,3.34,0,0,1,1.81,1.91s.06-.13.06-.16c.73-2.07-.08-4.36-1.26-5.12A3.17,3.17,0,0,0,38.09,38.43ZM30.25,41c-.35-3.18-5.36-3.26-6.07-1,0,0-.05.31-.05.31,3.16-1.11,5.1,1.07,5.93,2.41A4.3,4.3,0,0,0,30.25,41Zm3-.57a2,2,0,0,0-.9-1.24,2,2,0,0,0-1.5,0,3,3,0,0,1,1.21,1.95,1.85,1.85,0,0,1,1.14,1A2.8,2.8,0,0,0,33.3,40.38Zm3.85,3a3.83,3.83,0,0,0,.23-2.43c-.41-1.57-1.32-2.22-2.67-2.11a3.08,3.08,0,0,0-.53.08s-.18.07-.2,0a4.26,4.26,0,0,1,1.59,2.88A2.69,2.69,0,0,1,37.15,43.34Zm9.41-3.71h0a4,4,0,0,0-1.05-1.44,3.5,3.5,0,0,0-3.11-.53s1.65,1.28,2.24,4.82a4.58,4.58,0,0,1,2.19,2.61.86.86,0,0,1,.07-.21A7.13,7.13,0,0,0,46.56,39.63Zm20.71-2.14-.13.16a2.49,2.49,0,0,0,3.32,0C70,36.19,68.47,36.86,67.27,37.49Zm.4-5.39a7,7,0,0,1-3.94.27c2.78-1.24,6.43-5.33,7.06-9.95-8,2.14-17,5.63-23.23,11.71-1.31,1.28-1.61.82-.44,3.21,2.43,5,8.17,5,12.06,2-1.43,2.18-4.08,3.65-5.46,3.71,3.39.49,8.45-3.15,8.38-8.47-2.39-1.83-3.46-5.21-3.05-6.68a4.14,4.14,0,0,0,.56,2C61,32.78,65.67,34.66,67.67,32.1Zm4.78,3.5a4.52,4.52,0,0,1,1.18,2.22c1.23.29,3,.13,3-1.31C75.51,34.48,74.28,34.72,72.45,35.6ZM79.22,34c5.43,1.38,11.11-2.85,14-7.1A18.61,18.61,0,0,0,95.28,23c-3.22,2.43-6.58,1-12.17,2.73s-6.37,5.58-6.37,5.58c.34.13.65.27,1,.42a9,9,0,0,0,4.85.94A15.81,15.81,0,0,0,85.7,32a9.43,9.43,0,0,1-6.52,1.94Z"/><path class="cls-5" d="M67.67,32.1a9.07,9.07,0,0,1-2.65.44,10.74,10.74,0,0,1-1,.66A3.52,3.52,0,0,0,67.67,32.1Z"/><path class="cls-5" d="M24.18,39.94s-.05.31-.05.31a4.2,4.2,0,0,1,.45-.11c1.61-1.16,5.06-.65,5.34,2,0,.11,0,.22,0,.33l.14.21A4.3,4.3,0,0,0,30.25,41C29.9,37.77,24.89,37.69,24.18,39.94Z"/><path class="cls-5" d="M47.23,35.3c6.23-6.08,15.22-9.57,23.24-11.71,0,.34-.14.66-.22,1a11.38,11.38,0,0,0,.54-2.16c-8,2.14-17,5.63-23.23,11.71-1,.94-1.37.95-1.06,1.83C46.69,35.8,46.93,35.6,47.23,35.3Z"/><path class="cls-5" d="M56.81,41.73a6.65,6.65,0,0,1-3.09,1.33,6,6,0,0,0,3.41-.66,8.56,8.56,0,0,0,1.72-1.88A9.8,9.8,0,0,1,56.81,41.73Z"/><path class="cls-5" d="M82.79,26.87c5.43-1.72,8.75-.39,11.88-2.54.21-.42.41-.87.61-1.36-3.22,2.43-6.58,1-12.17,2.73s-6.37,5.58-6.37,5.58l.12.06C77.53,30.07,79.13,28,82.79,26.87Z"/><path class="cls-5" d="M82.22,33.81c-.2,0-.39,0-.59,0a8.74,8.74,0,0,1-2.45.12l0,0a9.52,9.52,0,0,0,5.39-.29c.26-.17.52-.34.76-.53A15.12,15.12,0,0,1,82.22,33.81Z"/><path class="cls-5" d="M72.45,35.6a3.11,3.11,0,0,1,.6.78,2.26,2.26,0,0,1,3.14,1.09,1.28,1.28,0,0,0,.46-1C75.51,34.48,74.28,34.72,72.45,35.6Z"/><path class="cls-5" d="M59.29,31.1a4,4,0,0,1-.56-2c-.41,1.48.65,4.86,3.05,6.69a8,8,0,0,1-.17,1.71,8,8,0,0,0,.49-2.88,8.18,8.18,0,0,1-2-2.3A5.55,5.55,0,0,1,59.29,31.1Z"/><path class="cls-5" d="M67.27,37.49l-.13.16a2.41,2.41,0,0,0,.85.52,1.92,1.92,0,0,1,1.65-.06,3.11,3.11,0,0,0,.82-.45C70,36.19,68.47,36.86,67.27,37.49Z"/><path class="cls-5" d="M46.56,39.63a4,4,0,0,0-1.05-1.44,3.5,3.5,0,0,0-3.11-.53,4.53,4.53,0,0,1,.85,1,3.08,3.08,0,0,1,1.94.68,4.15,4.15,0,0,1,1.05,1.43h0A7.23,7.23,0,0,1,46.81,45l0,.05a.86.86,0,0,1,.07-.21,7.13,7.13,0,0,0-.34-5.25Z"/><path class="cls-5" d="M30.9,39.13a2.47,2.47,0,0,1,.88,1.07,1.42,1.42,0,0,1,.29.1,2.1,2.1,0,0,1,.9,1.24.8.8,0,0,1,0,.15,1.47,1.47,0,0,1,.25.4,2.8,2.8,0,0,0,0-1.71,2,2,0,0,0-.9-1.24A2,2,0,0,0,30.9,39.13Z"/><path class="cls-5" d="M38.09,38.43a4.13,4.13,0,0,1,.88,1,2.51,2.51,0,0,1,1.27.38,4.42,4.42,0,0,1,1.49,4l0,.08s.06-.13.06-.16c.73-2.07-.08-4.36-1.26-5.12A3.17,3.17,0,0,0,38.09,38.43Z"/><path class="cls-5" d="M34.71,38.8a3.08,3.08,0,0,0-.53.08s-.18.07-.2,0A3.23,3.23,0,0,1,34.91,40a2.41,2.41,0,0,1,2.15,2.08,3.29,3.29,0,0,1,.08,1.23v0a3.83,3.83,0,0,0,.23-2.43C37,39.34,36.06,38.69,34.71,38.8Z"/><path class="cls-6" d="M38.75,38.3a4.64,4.64,0,0,0-.66.13,4.65,4.65,0,0,1,1.38,2A7.4,7.4,0,0,0,38.75,38.3Z"/><path class="cls-6" d="M41.36,42.2a1.22,1.22,0,0,0-.07.17,3.38,3.38,0,0,0-1.8-1.92A8.34,8.34,0,0,1,40,42a3.34,3.34,0,0,1,1.81,1.91s.06-.13.06-.16a5.11,5.11,0,0,0-.23-3.87A5.16,5.16,0,0,1,41.36,42.2Z"/><path class="cls-6" d="M43,37.53a4,4,0,0,0-.64.13A6.23,6.23,0,0,1,44,40.17,10,10,0,0,0,43,37.53Z"/><path class="cls-6" d="M32.78,40.51a1.88,1.88,0,0,0-1.14-1c-.05-.18-.1-.35-.16-.51a2.56,2.56,0,0,0-.58.14,3,3,0,0,1,1.21,1.95,1.85,1.85,0,0,1,1.14,1,2.8,2.8,0,0,0,0-1.71,2.76,2.76,0,0,0-.37-.75A3.43,3.43,0,0,1,32.78,40.51Z"/><path class="cls-6" d="M36.68,41.76a2.65,2.65,0,0,0-1.58-1.53,5.94,5.94,0,0,0-.45-1.42,2.42,2.42,0,0,0-.47.07s-.18.07-.2,0a4.26,4.26,0,0,1,1.59,2.88,2.69,2.69,0,0,1,1.58,1.53,3.83,3.83,0,0,0,.23-2.43A3.69,3.69,0,0,0,37,40,4.13,4.13,0,0,1,36.68,41.76Z"/><path class="cls-6" d="M58.52,26.79a6.3,6.3,0,0,0,.56,2.79,3.92,3.92,0,0,1,0-1.47,5,5,0,0,1-.45-1.34Z"/><path class="cls-6" d="M29.59,41.08a5.49,5.49,0,0,0-3.45-2.61,2.39,2.39,0,0,0-2,1.47s-.05.31-.05.31c3.16-1.11,5.09,1.07,5.93,2.41A4.3,4.3,0,0,0,30.25,41a2.67,2.67,0,0,0-.48-1.25A4.22,4.22,0,0,1,29.59,41.08Z"/><path class="cls-6" d="M46.44,43.3a.65.65,0,0,0-.08.22A4.63,4.63,0,0,0,44.28,41a12,12,0,0,1,.36,1.51,4.58,4.58,0,0,1,2.19,2.61.86.86,0,0,1,.07-.21,7.12,7.12,0,0,0-.27-5.06A7,7,0,0,1,46.44,43.3Z"/><path class="cls-6" d="M67.67,32.1a7,7,0,0,1-3.94.27,7.79,7.79,0,0,0,1.17-.66,6.5,6.5,0,0,1-5.76-3.35l-.09-.2a5.32,5.32,0,0,0,.56,1.78C61,32.78,65.67,34.66,67.67,32.1Z"/><path class="cls-6" d="M85.23,30.42a15.14,15.14,0,0,1-3.16.64,9,9,0,0,1-4.85-.94h0a4.73,4.73,0,0,0-.48,1.16c.34.13.65.27,1,.42a9.35,9.35,0,0,0,1.94.7A9.55,9.55,0,0,0,85.23,30.42Z"/><path class="cls-6" d="M73.16,36.24c-.08-.29-.18-.57-.28-.83l-.43.19a4.52,4.52,0,0,1,1.18,2.22c1.23.29,3,.13,3-1.31a3.92,3.92,0,0,0-.68-.92C75.48,36.4,74.16,36.48,73.16,36.24Z"/><path class="cls-6" d="M92.7,25.3c-2.42,3.62-6.9,7.21-11.53,7.35a9,9,0,0,0,1.37,0A15.81,15.81,0,0,0,85.7,32a9.43,9.43,0,0,1-6.52,1.94l0,0c5.43,1.38,11.11-2.85,14-7.1A18.61,18.61,0,0,0,95.28,23a7.23,7.23,0,0,1-1.7,1C93.29,24.42,93,24.89,92.7,25.3Z"/><path class="cls-6" d="M57.2,40.54a10.3,10.3,0,0,0,2-1.19c-1.43,2.18-4.08,3.65-5.46,3.71,3.39.49,8.45-3.15,8.38-8.47-.19-.15-.36-.32-.53-.48A8.83,8.83,0,0,1,57.2,40.54Z"/><path class="cls-6" d="M69.9,22.68c-1.18,3.83-4.23,7-6.63,8.11a5.75,5.75,0,0,0,2.8,0,14.28,14.28,0,0,0,4.72-8.38Z"/><path class="cls-6" d="M58.71,37.78c-3.89,3-9.63,3-12.06-2l-.23-.48c-.11.35.1.83.7,2.05a6.85,6.85,0,0,0,6.82,4A9.26,9.26,0,0,0,58.71,37.78Z"/><path class="cls-6" d="M67.27,37.49l-.13.16a2.49,2.49,0,0,0,3.32,0C70,36.19,68.47,36.86,67.27,37.49Z"/><path class="cls-7" d="M41.43,46.27a11.75,11.75,0,0,1-1.14,1.26c-.31.49-.77.81-1.09,1.35a3.87,3.87,0,0,0,1.53-1A2.85,2.85,0,0,0,41.43,46.27Z"/><path class="cls-7" d="M24.42,46.58a6.71,6.71,0,0,1-3.16,1.74,6.06,6.06,0,0,1-3.58-.24,4.77,4.77,0,0,0,3.71.81A4.89,4.89,0,0,0,23.13,48,4.5,4.5,0,0,0,24.42,46.58Z"/><path class="cls-7" d="M29.42,43.94a7,7,0,0,1-1.05,1.49,12,12,0,0,1-1.74-.65c-.6-.29-1.18-.66-1.81-1a6.82,6.82,0,0,0,1.63,1.36,3.62,3.62,0,0,0,2,.72h.11l0,0A3.38,3.38,0,0,0,29.42,43.94Z"/><path class="cls-7" d="M32.54,44.24c-.36.3-.5.68-.81.95s-.47.64-.64,1.1c.47-.06.74-.44,1.07-.73A2.4,2.4,0,0,0,32.54,44.24Z"/><path class="cls-7" d="M36.53,45.54c-.43.34-.62.8-1,1.12a6.06,6.06,0,0,1-.92,1.14c.58.05,1-.42,1.35-.75A3.47,3.47,0,0,0,36.53,45.54Z"/><path class="cls-7" d="M46.62,46.17c-.44.16-.65.48-1,.66-.23.34-.58.52-.79.94.49,0,.8-.3,1.18-.49C46.23,46.93,46.58,46.65,46.62,46.17Z"/><path class="cls-7" d="M62.81,42.46a18.64,18.64,0,0,1-6.93,2.32,11.42,11.42,0,0,1-7.06-1.34A10,10,0,0,0,56,45.37a14.11,14.11,0,0,0,3.63-1A13.91,13.91,0,0,0,62.81,42.46Z"/><path class="cls-7" d="M71.13,40a11.11,11.11,0,0,1-2.65.33,15.13,15.13,0,0,1-2.69,0,5.74,5.74,0,0,0,2.71.62A5.09,5.09,0,0,0,71.13,40Z"/><path class="cls-7" d="M77.38,39.67a24,24,0,0,1-2.41.78,8.44,8.44,0,0,1-1.86.46,3.18,3.18,0,0,0,2,.11A5.87,5.87,0,0,0,77.38,39.67Z"/><path class="cls-7" d="M98.87,20a40.14,40.14,0,0,1-3,5.5c-1.12,1.78-2.32,3.51-3.57,5.22A18.73,18.73,0,0,1,88,35.27a18.34,18.34,0,0,1-5.81,3,14.68,14.68,0,0,0,6.11-2.62,19.45,19.45,0,0,0,4.62-4.52C95.15,27.54,97.7,24.06,98.87,20Z"/><path class="cls-6" d="M68.44,24.93a1.46,1.46,0,1,1-1.81-1A1.45,1.45,0,0,1,68.44,24.93Z"/><path class="cls-3" d="M67.23,26.12a1,1,0,0,0,.44-1.93c.14.09.11.26.13.42.16,1.49-1.23.08-.94-.36A1,1,0,0,0,67.23,26.12Z"/><path class="cls-5" d="M67.73,24.55a.53.53,0,1,1-.66-.34A.52.52,0,0,1,67.73,24.55Z"/></g></svg>