<?xml version="1.0" encoding="UTF-8"?>
<svg width="30px" height="30px" viewBox="0 0 30 30" version="1.1" xmlns="http://www.w3.org/2000/svg" xmlns:xlink="http://www.w3.org/1999/xlink">
    <!-- Generator: Sketch 61 (89581) - https://sketch.com -->
    <title>添加银行卡icon</title>
    <desc>Created with Sketch.</desc>
    <g id="页面-1" stroke="none" stroke-width="1" fill="none" fill-rule="evenodd">
        <g id="个人中心" transform="translate(-73.000000, -352.000000)" fill="#8C8D8D">
            <g id="添加银行卡icon" transform="translate(73.000000, 352.000000)">
                <path d="M27.121,29.8409 L26.841,28.8809 C27.812,28.5979 28.593,27.8199 28.878,26.8499 L29.837,27.1329 C29.453,28.4359 28.425,29.4609 27.121,29.8409 L27.121,29.8409 Z M28.999,25.1479 L30,25.1479 L30,21.1489 L28.999,21.1489 L28.999,25.1479 Z M28.999,19.1489 L30,19.1489 L30,15.1479 L28.999,15.1479 L28.999,19.1489 Z M28.999,13.1479 L30,13.1479 L30,9.1489 L28.999,9.1489 L28.999,13.1479 Z M30,7.1479 L28.999,7.1479 L28.999,3.9999 C28.999,3.7849 28.977,3.5709 28.933,3.3649 L29.91,3.1539 C29.958,3.3759 29.987,3.6039 29.997,3.8379 C29.997,3.8529 29.998,3.8689 29.998,3.8839 L29.998,3.8849 L29.998,3.8919 L29.998,3.8929 L29.998,3.8979 L29.998,3.8999 L29.998,3.9039 L29.998,3.9069 L29.998,3.9119 L29.998,3.9129 C30,3.9149 30,3.9159 30,3.9179 L30,3.9209 L30,3.9239 L30,3.9269 L30,3.9299 L30,3.9329 L30,3.9379 L30,3.9409 L30,3.9439 L30,3.9469 L30,3.9499 L30,3.9529 L30,3.9579 L30,3.9599 L30,3.9639 L30,3.9669 L30,3.9699 L30,3.9729 L30,3.9779 L30,3.9799 L30,3.9839 L30,3.9869 L30,3.9919 L30,3.9929 L30,3.9999 L30,7.1479 Z M28.269,2.0379 C27.698,1.3779 26.872,1.0009 26,1.0009 L25.433,1.0009 L25.433,-0.0001 L26,-0.0001 L26.007,-0.0001 L26.01,-0.0001 L26.015,-0.0001 L26.016,-0.0001 L26.02,-0.0001 L26.023,-0.0001 L26.026,-0.0001 L26.029,-0.0001 L26.034,-0.0001 L26.037,-0.0001 L26.04,-0.0001 L26.044,-0.0001 L26.048,-0.0001 L26.051,-0.0001 L26.055,-0.0001 L26.058,-0.0001 L26.062,-0.0001 L26.063,-0.0001 L26.068,-0.0001 L26.071,-0.0001 L26.077,-0.0001 L26.079,-0.0001 L26.084,-0.0001 C26.085,0.0019 26.087,0.0019 26.087,0.0019 L26.091,0.0019 L26.095,0.0019 L26.098,0.0019 L26.1,0.0019 L26.105,0.0019 L26.108,0.0019 L26.111,0.0019 L26.114,0.0019 L26.117,0.0019 L26.12,0.0019 L26.125,0.0019 L26.128,0.0019 L26.131,0.0019 L26.135,0.0019 L26.139,0.0019 C26.139,0.0019 26.141,0.0019 26.142,0.0029 L26.146,0.0029 L26.148,0.0029 L26.154,0.0029 L26.157,0.0029 L26.162,0.0029 L26.165,0.0029 L26.168,0.0029 L26.171,0.0029 L26.175,0.0029 L26.178,0.0029 C26.179,0.0029 26.181,0.0049 26.182,0.0049 L26.185,0.0049 L26.188,0.0049 L26.191,0.0049 L26.196,0.0049 L26.199,0.0049 L26.202,0.0049 L26.205,0.0049 L26.21,0.0049 C26.21,0.0049 26.211,0.0049 26.211,0.0059 L26.216,0.0059 L26.219,0.0059 L26.222,0.0059 L26.228,0.0059 L26.231,0.0059 L26.234,0.0059 L26.239,0.0059 C26.239,0.0079 26.24,0.0079 26.242,0.0079 L26.245,0.0079 L26.248,0.0079 L26.251,0.0079 L26.255,0.0079 L26.259,0.0079 L26.262,0.0079 C26.262,0.0079 26.264,0.0079 26.266,0.0089 L26.268,0.0089 L26.271,0.0089 L26.274,0.0089 L26.279,0.0089 L26.282,0.0089 L26.287,0.0089 C26.287,0.0109 26.287,0.0109 26.288,0.0109 L26.295,0.0109 L26.302,0.0109 C26.306,0.0109 26.307,0.0109 26.309,0.0119 L26.309,0.0119 L26.314,0.0119 L26.317,0.0119 L26.322,0.0119 L26.324,0.0119 C26.325,0.0119 26.327,0.0119 26.328,0.0139 L26.331,0.0139 L26.335,0.0139 L26.338,0.0139 L26.342,0.0139 L26.344,0.0139 C26.346,0.0139 26.347,0.0149 26.349,0.0149 L26.351,0.0149 L26.356,0.0149 L26.357,0.0149 L26.362,0.0149 C26.363,0.0149 26.363,0.0169 26.365,0.0169 L26.378,0.0169 L26.379,0.0169 C26.381,0.0189 26.382,0.0189 26.384,0.0189 L26.387,0.0189 L26.392,0.0189 L26.394,0.0189 C26.394,0.0189 26.396,0.0199 26.397,0.0199 L26.4,0.0199 L26.405,0.0199 L26.407,0.0199 L26.411,0.0199 C26.411,0.0219 26.413,0.0219 26.413,0.0219 L26.418,0.0219 L26.421,0.0219 L26.426,0.0219 C26.426,0.0219 26.427,0.0219 26.427,0.0229 L26.432,0.0229 L26.433,0.0229 L26.439,0.0229 L26.44,0.0229 C26.442,0.0249 26.445,0.0249 26.447,0.0249 L26.45,0.0249 L26.453,0.0249 C26.454,0.0249 26.454,0.0259 26.456,0.0259 L26.461,0.0259 L26.462,0.0259 L26.467,0.0259 C26.469,0.0259 26.469,0.0279 26.47,0.0279 L26.473,0.0279 L26.476,0.0279 L26.48,0.0279 C26.48,0.0289 26.482,0.0289 26.482,0.0289 L26.487,0.0289 L26.49,0.0289 L26.493,0.0289 C26.494,0.0309 26.494,0.0309 26.496,0.0309 L26.499,0.0309 L26.502,0.0309 C26.504,0.0309 26.506,0.0319 26.507,0.0319 L26.509,0.0319 C26.513,0.0319 26.517,0.0339 26.522,0.0339 L26.523,0.0339 L26.528,0.0339 C26.53,0.0349 26.53,0.0349 26.531,0.0349 L26.536,0.0349 L26.538,0.0349 C26.539,0.0349 26.541,0.0349 26.542,0.0369 L26.544,0.0369 L26.549,0.0369 L26.552,0.0369 C26.553,0.0389 26.553,0.0389 26.555,0.0389 L26.558,0.0389 L26.562,0.0389 L26.563,0.0399 L26.568,0.0399 L26.571,0.0399 C26.573,0.0399 26.574,0.0399 26.576,0.0419 L26.578,0.0419 L26.582,0.0419 L26.584,0.0419 C26.587,0.0429 26.589,0.0429 26.59,0.0429 L26.592,0.0429 C26.593,0.0429 26.595,0.0429 26.598,0.0449 L26.6,0.0449 L26.603,0.0449 C26.603,0.0449 26.605,0.0449 26.605,0.0459 L26.61,0.0459 L26.613,0.0459 C26.614,0.0459 26.616,0.0459 26.616,0.0479 L26.619,0.0479 L26.624,0.0479 C26.624,0.0479 26.625,0.0479 26.625,0.0489 L26.63,0.0489 L26.633,0.0489 C26.633,0.0489 26.635,0.0489 26.636,0.0509 L26.64,0.0509 L26.642,0.0509 C26.643,0.0509 26.645,0.0519 26.645,0.0519 L26.65,0.0519 L26.651,0.0519 C26.656,0.0539 26.661,0.0539 26.665,0.0549 L26.667,0.0549 L26.672,0.0549 L26.673,0.0569 L26.678,0.0569 L26.681,0.0569 C26.683,0.0589 26.684,0.0589 26.685,0.0589 L26.687,0.0589 C26.688,0.0589 26.69,0.0589 26.691,0.0599 L26.693,0.0599 L26.698,0.0599 C26.699,0.0599 26.699,0.0619 26.701,0.0619 L26.704,0.0619 L26.707,0.0619 C26.709,0.0629 26.71,0.0629 26.712,0.0629 L26.713,0.0629 C26.715,0.0629 26.716,0.0629 26.718,0.0649 L26.72,0.0649 C26.723,0.0649 26.724,0.0649 26.725,0.0659 C26.73,0.0659 26.734,0.0679 26.739,0.0679 L26.741,0.0679 C26.742,0.0699 26.744,0.0699 26.745,0.0699 L26.747,0.0699 C26.749,0.0699 26.75,0.0709 26.752,0.0709 L26.753,0.0709 C26.756,0.0709 26.758,0.0709 26.76,0.0719 L26.761,0.0719 L26.766,0.0719 C26.766,0.0739 26.767,0.0739 26.767,0.0739 L26.771,0.0739 C26.771,0.0739 26.773,0.0739 26.774,0.0749 L26.777,0.0749 L26.781,0.0749 C26.782,0.0769 26.784,0.0769 26.785,0.0769 L26.787,0.0769 C26.789,0.0769 26.79,0.0789 26.793,0.0789 L26.813,0.0829 C26.816,0.0829 26.818,0.0829 26.819,0.0849 L26.821,0.0849 L26.825,0.0849 C26.827,0.0849 26.827,0.0859 26.827,0.0859 L26.832,0.0859 C26.833,0.0859 26.833,0.0859 26.835,0.0879 L26.84,0.0879 L26.841,0.0879 C26.843,0.0899 26.844,0.0899 26.846,0.0899 L26.847,0.0899 C26.849,0.0909 26.85,0.0909 26.851,0.0909 L26.853,0.0909 C26.854,0.0909 26.857,0.0919 26.859,0.0919 C26.862,0.0919 26.864,0.0939 26.865,0.0939 L26.867,0.0939 C26.87,0.0949 26.875,0.0949 26.88,0.0969 L26.881,0.0969 C26.883,0.0969 26.884,0.0989 26.886,0.0989 L26.887,0.0989 C26.889,0.0989 26.891,0.0999 26.892,0.0999 L26.894,0.0999 C26.896,0.0999 26.897,0.1019 26.899,0.1019 L26.901,0.1019 C26.902,0.1019 26.904,0.1029 26.905,0.1029 L26.907,0.1029 C26.908,0.1029 26.91,0.1029 26.912,0.1049 L26.913,0.1049 C26.915,0.1049 26.916,0.1049 26.918,0.1059 L26.92,0.1059 C26.921,0.1059 26.924,0.1059 26.926,0.1079 C26.929,0.1079 26.931,0.1099 26.932,0.1099 L26.934,0.1099 C26.941,0.1109 26.95,0.1139 26.958,0.1149 L26.96,0.1149 C26.961,0.1169 26.964,0.1169 26.966,0.1169 L26.967,0.1169 C26.969,0.1189 26.971,0.1189 26.972,0.1189 L26.974,0.1189 C26.975,0.1199 26.976,0.1199 26.977,0.1199 L26.979,0.1199 C26.981,0.1219 26.982,0.1219 26.984,0.1219 L26.985,0.1219 C26.987,0.1229 26.988,0.1229 26.99,0.1229 L26.992,0.1229 C26.995,0.1249 26.996,0.1249 26.998,0.1249 L26.998,0.1259 C27.009,0.1279 27.019,0.1309 27.03,0.1339 L27.032,0.1339 C27.033,0.1339 27.035,0.1349 27.036,0.1349 L27.038,0.1349 C27.039,0.1369 27.043,0.1369 27.044,0.1369 C27.047,0.1389 27.049,0.1389 27.051,0.1389 C27.051,0.1389 27.051,0.1399 27.052,0.1399 C27.054,0.1399 27.055,0.1399 27.057,0.1419 L27.058,0.1419 C27.059,0.1419 27.061,0.1419 27.062,0.1429 L27.064,0.1429 C27.073,0.1449 27.081,0.1479 27.09,0.1509 C27.092,0.1509 27.094,0.1509 27.097,0.1529 C27.098,0.1529 27.101,0.1539 27.102,0.1539 C27.105,0.1539 27.107,0.1549 27.108,0.1549 L27.11,0.1549 C27.112,0.1569 27.113,0.1569 27.115,0.1569 L27.116,0.1569 C27.118,0.1589 27.119,0.1589 27.121,0.1589 L27.123,0.1599 C27.124,0.1599 27.126,0.1599 27.129,0.1619 C27.131,0.1619 27.134,0.1629 27.135,0.1629 C27.145,0.1659 27.156,0.1699 27.167,0.1729 C27.17,0.1739 27.172,0.1739 27.174,0.1749 C27.177,0.1749 27.178,0.1749 27.18,0.1769 L27.182,0.1769 C27.183,0.1769 27.184,0.1789 27.185,0.1789 L27.187,0.1789 C27.188,0.1799 27.19,0.1799 27.193,0.1799 L27.193,0.1819 C27.195,0.1819 27.198,0.1819 27.199,0.1829 C27.212,0.1859 27.225,0.1909 27.238,0.1949 C27.239,0.1949 27.243,0.1969 27.244,0.1969 L27.246,0.1969 C27.247,0.1989 27.249,0.1989 27.25,0.1989 C27.25,0.1989 27.25,0.1999 27.252,0.1999 C27.254,0.1999 27.255,0.1999 27.257,0.2019 L27.258,0.2019 C27.26,0.2019 27.262,0.2029 27.263,0.2029 L27.265,0.2029 C27.266,0.2049 27.267,0.2049 27.268,0.2059 L27.27,0.2059 C27.278,0.2079 27.287,0.2109 27.295,0.2139 C27.298,0.2159 27.3,0.2159 27.301,0.2169 L27.303,0.2169 C27.305,0.2169 27.306,0.2189 27.308,0.2189 L27.308,0.2189 C27.31,0.2199 27.312,0.2199 27.313,0.2199 L27.315,0.2219 C27.316,0.2219 27.318,0.2219 27.319,0.2229 L27.321,0.2229 C27.323,0.2229 27.324,0.2249 27.327,0.2249 C27.329,0.2259 27.33,0.2259 27.334,0.2279 C27.335,0.2279 27.338,0.2299 27.34,0.2299 C27.353,0.2359 27.369,0.2399 27.383,0.2459 L27.385,0.2459 C27.386,0.2459 27.388,0.2479 27.389,0.2479 L27.391,0.2479 C27.392,0.2499 27.393,0.2499 27.396,0.2509 C27.414,0.2569 27.429,0.2629 27.446,0.2699 C27.449,0.2709 27.45,0.2709 27.452,0.2729 C27.455,0.2729 27.457,0.2739 27.458,0.2739 C27.479,0.2819 27.5,0.2909 27.519,0.2989 L27.521,0.2989 C27.933,0.4679 28.308,0.7039 28.638,0.9929 C28.641,0.9959 28.643,0.9989 28.648,1.0019 C28.664,1.0159 28.681,1.0299 28.696,1.0459 C28.697,1.0469 28.699,1.0489 28.7,1.0499 L28.702,1.0499 C28.711,1.0589 28.721,1.0669 28.729,1.0759 C28.731,1.0779 28.732,1.0789 28.734,1.0809 C28.734,1.0809 28.736,1.0809 28.736,1.0819 C28.737,1.0819 28.737,1.0839 28.739,1.0859 L28.74,1.0859 C28.742,1.0869 28.742,1.0889 28.744,1.0899 L28.745,1.0899 C28.747,1.0909 28.748,1.0929 28.75,1.0939 C28.751,1.0959 28.753,1.0979 28.755,1.0989 C28.764,1.1089 28.772,1.1179 28.782,1.1269 C28.783,1.1289 28.785,1.1299 28.787,1.1319 C28.788,1.1329 28.79,1.1339 28.791,1.1339 C28.791,1.1359 28.791,1.1359 28.793,1.1359 C28.793,1.1379 28.795,1.1389 28.796,1.1389 C28.796,1.1409 28.796,1.1409 28.798,1.1409 C28.798,1.1419 28.799,1.1419 28.801,1.1439 C28.801,1.1439 28.801,1.1449 28.802,1.1449 C28.804,1.1469 28.804,1.1469 28.806,1.1489 L28.807,1.1499 C28.808,1.1519 28.809,1.1529 28.811,1.1539 C28.819,1.1619 28.827,1.1699 28.834,1.1779 L28.838,1.1809 L28.839,1.1819 C28.841,1.1839 28.842,1.1849 28.842,1.1849 L28.844,1.1869 C28.846,1.1889 28.846,1.1889 28.847,1.1899 C28.847,1.1919 28.849,1.1919 28.849,1.1919 C28.85,1.1929 28.85,1.1949 28.851,1.1949 L28.852,1.1959 C28.854,1.1979 28.854,1.1989 28.856,1.1989 C28.856,1.2009 28.857,1.2009 28.857,1.2009 C28.863,1.2069 28.87,1.2129 28.874,1.2189 C28.876,1.2189 28.876,1.2189 28.876,1.2209 C28.878,1.2209 28.879,1.2219 28.879,1.2239 C28.881,1.2239 28.881,1.2249 28.881,1.2249 C28.882,1.2249 28.882,1.2269 28.884,1.2289 L28.886,1.2299 C28.887,1.2319 28.887,1.2319 28.889,1.2329 C28.889,1.2329 28.89,1.2329 28.89,1.2349 C28.892,1.2349 28.892,1.2359 28.892,1.2379 L28.894,1.2389 C28.894,1.2389 28.896,1.2409 28.897,1.2419 L28.899,1.2439 C28.899,1.2439 28.9,1.2449 28.9,1.2469 C28.902,1.2469 28.902,1.2469 28.903,1.2489 L28.907,1.2519 L28.907,1.2529 C28.908,1.2529 28.91,1.2549 28.911,1.2559 L28.911,1.2579 C28.913,1.2589 28.914,1.2609 28.916,1.2619 C28.918,1.2639 28.919,1.2649 28.921,1.2669 L28.922,1.2689 L28.926,1.2719 L28.927,1.2729 C28.927,1.2749 28.929,1.2749 28.929,1.2759 C28.93,1.2759 28.93,1.2779 28.932,1.2779 C28.932,1.2789 28.933,1.2789 28.933,1.2809 C28.934,1.2809 28.934,1.2819 28.934,1.2819 C28.936,1.2839 28.936,1.2839 28.937,1.2849 L28.939,1.2869 C28.94,1.2889 28.94,1.2889 28.942,1.2899 L28.943,1.2919 C28.943,1.2929 28.945,1.2929 28.945,1.2949 C28.947,1.2949 28.947,1.2959 28.948,1.2959 C28.948,1.2979 28.95,1.2979 28.95,1.2989 C28.951,1.2989 28.951,1.3009 28.953,1.3009 C28.953,1.3019 28.953,1.3019 28.954,1.3019 C28.954,1.3039 28.956,1.3049 28.956,1.3049 L28.958,1.3069 C28.959,1.3089 28.959,1.3089 28.961,1.3099 C28.961,1.3119 28.962,1.3119 28.962,1.3129 C28.964,1.3149 28.965,1.3159 28.967,1.3179 C28.969,1.3179 28.969,1.3199 28.969,1.3199 C28.97,1.3209 28.972,1.3209 28.972,1.3219 C28.973,1.3219 28.973,1.3239 28.973,1.3239 L28.976,1.3269 L28.977,1.3289 C28.977,1.3299 28.979,1.3299 28.979,1.3319 C28.98,1.3319 28.98,1.3329 28.98,1.3329 C28.982,1.3349 28.983,1.3349 28.983,1.3359 C28.985,1.3359 28.985,1.3379 28.985,1.3379 C28.987,1.3399 28.987,1.3399 28.988,1.3409 L28.99,1.3419 C28.99,1.3439 28.991,1.3439 28.993,1.3449 C28.993,1.3449 28.993,1.3469 28.994,1.3469 C28.994,1.3489 28.996,1.3489 28.996,1.3499 C28.998,1.3499 28.998,1.3519 28.998,1.3519 C28.999,1.3529 28.999,1.3529 29.001,1.3549 L29.001,1.3559 C29.009,1.3619 29.015,1.3699 29.02,1.3779 C29.022,1.3799 29.022,1.3809 29.023,1.3829 L29.025,1.3829 L29.025,1.3839 L28.269,2.0379 Z M19.432,1.0009 L23.433,1.0009 L23.433,0.0009 L19.432,0.0009 L19.432,1.0009 Z M13.433,1.0009 L17.433,1.0009 L17.433,0.0009 L13.433,0.0009 L13.433,1.0009 Z M7.433,1.0009 L11.432,1.0009 L11.432,0.0009 L7.433,0.0009 L7.433,1.0009 Z M2.204,1.5959 L1.605,0.7959 C1.834,0.6249 2.08,0.4769 2.343,0.3589 C2.35,0.3559 2.353,0.3529 2.36,0.3509 C2.363,0.3499 2.366,0.3479 2.371,0.3459 C2.375,0.3429 2.382,0.3409 2.386,0.3389 L2.388,0.3389 C2.391,0.3369 2.393,0.3359 2.398,0.3339 C2.403,0.3309 2.409,0.3299 2.414,0.3259 L2.415,0.3259 C2.422,0.3229 2.426,0.3219 2.431,0.3189 L2.433,0.3189 C2.435,0.3169 2.438,0.3159 2.441,0.3159 C2.441,0.3139 2.443,0.3139 2.444,0.3139 C2.449,0.3109 2.454,0.3099 2.459,0.3079 C2.46,0.3079 2.46,0.3059 2.462,0.3059 C2.463,0.3049 2.466,0.3049 2.47,0.3029 C2.471,0.3029 2.471,0.3029 2.471,0.3019 C2.474,0.3019 2.475,0.2999 2.476,0.2999 L2.478,0.2999 C2.481,0.2989 2.483,0.2969 2.486,0.2959 L2.489,0.2959 C2.492,0.2939 2.494,0.2929 2.497,0.2929 C2.498,0.2909 2.498,0.2909 2.5,0.2909 C2.502,0.2909 2.503,0.2899 2.505,0.2899 C2.505,0.2879 2.506,0.2879 2.508,0.2879 C2.51,0.2859 2.513,0.2859 2.514,0.2849 C2.516,0.2849 2.517,0.2849 2.517,0.2829 C2.518,0.2829 2.52,0.2819 2.521,0.2819 C2.523,0.2819 2.526,0.2799 2.527,0.2799 C2.529,0.2789 2.531,0.2789 2.532,0.2789 C2.532,0.2769 2.534,0.2769 2.535,0.2769 C2.537,0.2759 2.54,0.2759 2.542,0.2739 C2.543,0.2739 2.545,0.2729 2.546,0.2729 C2.546,0.2729 2.548,0.2709 2.549,0.2709 C2.551,0.2709 2.553,0.2699 2.554,0.2699 C2.557,0.2679 2.559,0.2679 2.56,0.2659 L2.563,0.2659 C2.564,0.2649 2.567,0.2649 2.569,0.2629 C2.571,0.2629 2.572,0.2619 2.574,0.2619 C2.575,0.2619 2.577,0.2599 2.577,0.2599 C2.578,0.2599 2.58,0.2589 2.582,0.2589 C2.583,0.2569 2.586,0.2569 2.588,0.2569 C2.589,0.2559 2.591,0.2559 2.593,0.2539 L2.596,0.2539 C2.597,0.2529 2.6,0.2529 2.601,0.2509 C2.603,0.2509 2.604,0.2499 2.606,0.2499 C2.607,0.2499 2.609,0.2479 2.611,0.2479 C2.612,0.2479 2.614,0.2459 2.615,0.2459 C2.617,0.2449 2.618,0.2449 2.62,0.2449 C2.622,0.2429 2.623,0.2429 2.623,0.2429 C2.626,0.2419 2.628,0.2419 2.631,0.2399 C2.631,0.2399 2.633,0.2399 2.634,0.2389 C2.636,0.2389 2.637,0.2389 2.639,0.2369 C2.641,0.2369 2.642,0.2369 2.642,0.2359 C2.644,0.2359 2.646,0.2339 2.647,0.2339 C2.649,0.2339 2.651,0.2329 2.652,0.2329 C2.654,0.2329 2.655,0.2309 2.657,0.2309 C2.658,0.2309 2.66,0.2299 2.662,0.2299 C2.663,0.2279 2.665,0.2279 2.666,0.2279 C2.668,0.2259 2.669,0.2259 2.671,0.2259 C2.673,0.2249 2.674,0.2249 2.677,0.2229 L2.68,0.2229 C2.682,0.2219 2.684,0.2219 2.684,0.2199 C2.686,0.2199 2.687,0.2199 2.689,0.2189 C2.691,0.2189 2.694,0.2189 2.695,0.2169 C2.697,0.2169 2.697,0.2169 2.698,0.2159 C2.702,0.2159 2.703,0.2139 2.706,0.2139 C2.706,0.2139 2.708,0.2139 2.709,0.2129 C2.711,0.2129 2.713,0.2129 2.714,0.2109 C2.716,0.2109 2.716,0.2109 2.717,0.2099 C2.719,0.2099 2.722,0.2079 2.724,0.2079 C2.725,0.2079 2.726,0.2059 2.727,0.2059 C2.729,0.2059 2.731,0.2049 2.734,0.2049 C2.734,0.2049 2.735,0.2029 2.737,0.2029 C2.738,0.2029 2.74,0.2019 2.743,0.2019 L2.745,0.1999 C2.748,0.1999 2.751,0.1989 2.753,0.1989 C2.754,0.1989 2.754,0.1969 2.756,0.1969 C2.757,0.1969 2.76,0.1949 2.762,0.1949 C2.764,0.1949 2.764,0.1939 2.764,0.1939 C2.767,0.1939 2.769,0.1929 2.771,0.1929 C2.772,0.1929 2.772,0.1909 2.774,0.1909 C2.777,0.1909 2.778,0.1899 2.782,0.1899 C2.782,0.1879 2.783,0.1879 2.783,0.1879 C2.786,0.1879 2.788,0.1859 2.791,0.1859 C2.791,0.1859 2.793,0.1859 2.793,0.1849 C2.796,0.1849 2.797,0.1829 2.8,0.1829 C2.802,0.1829 2.802,0.1829 2.804,0.1819 C2.805,0.1819 2.808,0.1799 2.81,0.1799 L2.812,0.1789 C2.814,0.1789 2.817,0.1769 2.818,0.1769 L2.822,0.1769 C2.823,0.1749 2.826,0.1749 2.829,0.1739 L2.831,0.1739 C2.834,0.1729 2.836,0.1729 2.839,0.1709 L2.84,0.1709 C2.844,0.1699 2.845,0.1699 2.848,0.1679 L2.85,0.1679 C2.852,0.1659 2.855,0.1659 2.858,0.1649 L2.86,0.1649 C2.861,0.1629 2.865,0.1629 2.866,0.1629 C2.868,0.1619 2.868,0.1619 2.869,0.1619 C2.871,0.1619 2.874,0.1599 2.877,0.1599 L2.879,0.1589 C2.882,0.1589 2.885,0.1569 2.888,0.1569 L2.89,0.1549 C2.891,0.1549 2.894,0.1549 2.895,0.1539 L2.897,0.1539 C2.9,0.1529 2.903,0.1529 2.906,0.1509 L2.908,0.1509 C2.911,0.1499 2.914,0.1499 2.916,0.1479 L2.917,0.1479 C2.919,0.1479 2.922,0.1459 2.925,0.1459 C2.927,0.1459 2.927,0.1459 2.927,0.1449 C2.93,0.1449 2.933,0.1429 2.935,0.1429 L2.937,0.1429 C2.94,0.1419 2.941,0.1419 2.945,0.1399 L2.946,0.1399 C2.949,0.1399 2.951,0.1389 2.954,0.1389 L2.956,0.1369 C2.959,0.1369 2.962,0.1349 2.965,0.1349 L2.967,0.1349 C2.968,0.1339 2.971,0.1339 2.975,0.1329 L2.975,0.1329 C2.978,0.1309 2.98,0.1309 2.983,0.1309 L2.985,0.1299 C2.991,0.1279 2.997,0.1259 3.004,0.1249 L3.005,0.1249 C3.008,0.1249 3.011,0.1229 3.013,0.1229 L3.015,0.1219 C3.017,0.1219 3.02,0.1199 3.021,0.1199 L3.023,0.1199 C3.026,0.1189 3.029,0.1189 3.032,0.1169 L3.034,0.1169 C3.037,0.1169 3.04,0.1149 3.043,0.1149 C3.047,0.1139 3.05,0.1139 3.053,0.1119 C3.056,0.1119 3.059,0.1109 3.061,0.1109 L3.063,0.1109 C3.069,0.1099 3.076,0.1079 3.082,0.1059 L3.084,0.1059 C3.087,0.1049 3.088,0.1049 3.091,0.1029 L3.093,0.1029 C3.096,0.1029 3.099,0.1019 3.101,0.1019 C3.105,0.0999 3.108,0.0999 3.111,0.0989 L3.112,0.0989 C3.116,0.0989 3.119,0.0969 3.122,0.0969 C3.125,0.0949 3.128,0.0949 3.131,0.0939 C3.135,0.0939 3.138,0.0919 3.141,0.0919 L3.142,0.0919 C3.148,0.0909 3.154,0.0899 3.16,0.0879 L3.162,0.0879 C3.165,0.0879 3.168,0.0859 3.171,0.0859 C3.174,0.0849 3.178,0.0849 3.181,0.0829 C3.184,0.0829 3.186,0.0829 3.189,0.0819 L3.191,0.0819 C3.194,0.0819 3.197,0.0799 3.2,0.0799 L3.202,0.0799 C3.203,0.0789 3.207,0.0789 3.21,0.0789 L3.211,0.0769 C3.215,0.0769 3.218,0.0769 3.221,0.0749 L3.222,0.0749 C3.228,0.0739 3.234,0.0739 3.24,0.0719 C3.243,0.0709 3.247,0.0709 3.25,0.0709 L3.251,0.0699 C3.254,0.0699 3.258,0.0699 3.261,0.0679 C3.264,0.0679 3.267,0.0659 3.269,0.0659 L3.271,0.0659 C3.274,0.0659 3.277,0.0649 3.28,0.0649 C3.283,0.0629 3.287,0.0629 3.29,0.0629 L3.291,0.0629 C3.294,0.0619 3.298,0.0619 3.301,0.0619 C3.301,0.0619 3.301,0.0599 3.302,0.0599 C3.309,0.0599 3.314,0.0589 3.319,0.0569 L3.32,0.0569 C3.323,0.0569 3.327,0.0569 3.33,0.0549 L3.331,0.0549 C3.334,0.0549 3.338,0.0539 3.341,0.0539 C3.344,0.0539 3.347,0.0519 3.35,0.0519 L3.351,0.0519 C3.354,0.0519 3.357,0.0509 3.36,0.0509 L3.362,0.0509 C3.365,0.0509 3.367,0.0489 3.37,0.0489 L3.371,0.0489 C3.374,0.0489 3.378,0.0479 3.381,0.0479 L3.382,0.0479 C3.389,0.0459 3.394,0.0459 3.4,0.0449 L3.402,0.0449 C3.405,0.0429 3.408,0.0429 3.411,0.0429 L3.413,0.0429 C3.414,0.0419 3.418,0.0419 3.421,0.0419 L3.422,0.0419 C3.425,0.0419 3.429,0.0399 3.432,0.0399 L3.433,0.0399 C3.435,0.0399 3.439,0.0389 3.442,0.0389 C3.445,0.0389 3.448,0.0369 3.451,0.0369 C3.454,0.0369 3.458,0.0369 3.461,0.0349 L3.462,0.0349 C3.469,0.0349 3.475,0.0339 3.482,0.0339 L3.482,0.0319 L3.491,0.0319 L3.493,0.0319 C3.496,0.0309 3.499,0.0309 3.502,0.0309 C3.505,0.0309 3.509,0.0289 3.512,0.0289 L3.513,0.0289 C3.516,0.0289 3.519,0.0279 3.522,0.0279 L3.523,0.0279 C3.526,0.0279 3.53,0.0279 3.533,0.0259 L3.542,0.0259 L3.544,0.0259 C3.547,0.0249 3.55,0.0249 3.553,0.0249 L3.555,0.0249 C3.558,0.0249 3.56,0.0229 3.563,0.0229 L3.573,0.0229 L3.574,0.0219 L3.584,0.0219 C3.587,0.0219 3.592,0.0199 3.595,0.0199 C3.598,0.0199 3.6,0.0199 3.603,0.0189 L3.605,0.0189 L3.614,0.0189 L3.616,0.0189 C3.619,0.0189 3.621,0.0169 3.624,0.0169 L3.627,0.0169 L3.636,0.0169 C3.64,0.0149 3.642,0.0149 3.645,0.0149 L3.646,0.0149 C3.65,0.0149 3.653,0.0149 3.656,0.0139 L3.657,0.0139 L3.665,0.0139 L3.667,0.0139 C3.67,0.0139 3.673,0.0119 3.676,0.0119 L3.678,0.0119 L3.686,0.0119 L3.688,0.0119 C3.691,0.0119 3.694,0.0109 3.696,0.0109 L3.697,0.0109 L3.707,0.0109 L3.708,0.0109 C3.712,0.0109 3.715,0.0089 3.718,0.0089 L3.72,0.0089 L3.726,0.0089 L3.728,0.0089 C3.731,0.0089 3.734,0.0089 3.737,0.0079 L3.739,0.0079 L3.748,0.0079 L3.75,0.0079 L3.758,0.0079 L3.761,0.0079 C3.764,0.0059 3.767,0.0059 3.77,0.0059 L3.771,0.0059 L3.779,0.0059 L3.781,0.0059 C3.784,0.0059 3.787,0.0059 3.79,0.0049 L3.792,0.0049 L3.801,0.0049 L3.803,0.0049 L3.81,0.0049 L3.811,0.0049 C3.814,0.0049 3.817,0.0049 3.821,0.0029 L3.822,0.0029 L3.832,0.0029 L3.833,0.0029 L3.843,0.0029 L3.844,0.0029 L3.853,0.0029 L3.854,0.0029 C3.857,0.0029 3.859,0.0019 3.862,0.0019 L3.864,0.0019 L3.873,0.0019 L3.875,0.0019 L3.884,0.0019 L3.886,0.0019 L3.894,0.0019 L3.896,0.0019 L3.904,0.0019 L3.907,0.0019 C3.91,0.0019 3.913,0.0019 3.915,-0.0001 L3.916,-0.0001 L3.926,-0.0001 L3.927,-0.0001 L3.936,-0.0001 L3.937,-0.0001 L3.947,-0.0001 L3.956,-0.0001 L3.959,-0.0001 L3.969,-0.0001 L3.977,-0.0001 L3.979,-0.0001 L3.988,-0.0001 L3.99,-0.0001 L3.999,-0.0001 L5.433,-0.0001 L5.433,1.0009 L3.999,1.0009 C3.347,1.0009 2.725,1.2069 2.204,1.5959 L2.204,1.5959 Z M1.001,6.2839 L0,6.2839 L0,3.9999 L0,3.9929 L0,3.9919 L0,3.9869 L0,3.9839 L0,3.9799 L0,3.9779 L0,3.9729 L0,3.9699 L0,3.9659 L0,3.9639 L0,3.9599 L0,3.9559 L0,3.9529 L0,3.9499 L0,3.9449 L0,3.9429 L0,3.9399 L0,3.9359 L0,3.9329 L0,3.9299 L0,3.9249 L0,3.9229 L0,3.9199 L0,3.9159 C0,3.9149 0.002,3.9119 0.002,3.9099 L0.002,3.9029 L0.002,3.9009 L0.002,3.8959 L0.002,3.8949 L0.002,3.8899 L0.002,3.8869 L0.002,3.8829 L0.002,3.8799 L0.002,3.8759 L0.002,3.8729 L0.002,3.8699 L0.002,3.8669 L0.002,3.8619 L0.002,3.8599 C0.002,3.8599 0.003,3.8579 0.003,3.8559 L0.003,3.8529 L0.003,3.8499 L0.003,3.8469 L0.003,3.8419 L0.003,3.8399 L0.003,3.8359 L0.003,3.8329 L0.003,3.8299 L0.003,3.8269 L0.003,3.8209 L0.003,3.8199 C0.005,3.8179 0.005,3.8149 0.005,3.8129 L0.005,3.8119 L0.005,3.8069 L0.005,3.8039 L0.005,3.7989 L0.005,3.7979 L0.005,3.7929 L0.005,3.7899 C0.005,3.7889 0.005,3.7889 0.006,3.7869 L0.006,3.7839 L0.006,3.7809 L0.006,3.7759 L0.006,3.7729 L0.006,3.7699 L0.006,3.7669 L0.006,3.7639 L0.006,3.7609 C0.008,3.7589 0.008,3.7579 0.008,3.7559 L0.008,3.7529 L0.008,3.7499 L0.008,3.7469 L0.008,3.7439 L0.008,3.7389 L0.008,3.7379 C0.008,3.7359 0.01,3.7349 0.01,3.7329 L0.01,3.7299 L0.01,3.7269 L0.01,3.7209 L0.01,3.7179 L0.01,3.7149 C0.01,3.7129 0.011,3.7119 0.011,3.7119 L0.011,3.7089 L0.011,3.7039 L0.011,3.7009 L0.011,3.6979 L0.011,3.6949 C0.011,3.6929 0.011,3.6919 0.013,3.6919 L0.013,3.6889 L0.013,3.6839 L0.013,3.6809 L0.013,3.6779 L0.013,3.6739 C0.013,3.6729 0.013,3.6729 0.014,3.6719 L0.014,3.6689 L0.014,3.6649 L0.014,3.6609 L0.014,3.6589 L0.014,3.6539 C0.014,3.6539 0.016,3.6529 0.016,3.6519 L0.016,3.6489 L0.016,3.6449 L0.016,3.6419 L0.016,3.6409 C0.017,3.6339 0.017,3.6299 0.017,3.6239 L0.017,3.6219 C0.017,3.6209 0.017,3.6189 0.018,3.6189 L0.018,3.6159 L0.018,3.6119 L0.018,3.6099 L0.018,3.6049 C0.018,3.6039 0.02,3.6039 0.02,3.6019 L0.02,3.5989 L0.02,3.5959 L0.02,3.5929 L0.02,3.5899 C0.02,3.5889 0.021,3.5869 0.021,3.5849 L0.021,3.5839 L0.021,3.5789 L0.021,3.5759 C0.021,3.5759 0.021,3.5739 0.023,3.5729 L0.023,3.5699 L0.023,3.5669 L0.023,3.5639 L0.023,3.5589 L0.024,3.5589 L0.024,3.5529 C0.026,3.5449 0.026,3.5379 0.027,3.5299 L0.027,3.5289 L0.027,3.5239 L0.027,3.5219 C0.027,3.5209 0.029,3.5189 0.029,3.5179 L0.029,3.5139 L0.029,3.5099 L0.029,3.5079 C0.029,3.5069 0.031,3.5059 0.031,3.5039 L0.031,3.5019 L0.031,3.4979 L0.031,3.4959 C0.031,3.4939 0.032,3.4929 0.032,3.4909 L0.032,3.4879 L0.032,3.4859 L0.032,3.4819 C0.034,3.4809 0.034,3.4809 0.034,3.4789 L0.034,3.4759 L0.034,3.4709 L0.034,3.4699 C0.035,3.4609 0.037,3.4499 0.039,3.4409 C0.039,3.4389 0.039,3.4379 0.04,3.4339 L0.04,3.4279 C0.04,3.4269 0.042,3.4239 0.042,3.4219 L0.042,3.4209 L0.042,3.4159 L0.042,3.4149 C0.043,3.4129 0.043,3.4109 0.043,3.4099 L0.043,3.4079 C0.043,3.4069 0.043,3.4049 0.045,3.4039 L0.045,3.4019 L0.045,3.3979 L0.045,3.3959 C0.045,3.3949 0.046,3.3929 0.046,3.3909 L0.046,3.3899 L0.046,3.3849 L0.046,3.3829 C0.05,3.3699 0.051,3.3559 0.054,3.3419 L0.054,3.3409 C0.054,3.3389 0.054,3.3379 0.056,3.3359 L0.056,3.3349 L0.056,3.3299 L0.056,3.3279 C0.057,3.3269 0.057,3.3249 0.057,3.3239 L0.057,3.3219 C0.057,3.3199 0.057,3.3189 0.059,3.3179 L0.059,3.3159 L0.059,3.3099 C0.06,3.3079 0.06,3.3069 0.06,3.3039 C0.063,3.2839 0.067,3.2639 0.071,3.2439 L0.071,3.2419 C0.072,3.2399 0.072,3.2389 0.072,3.2369 L0.072,3.2359 C0.072,3.2349 0.074,3.2329 0.074,3.2309 L0.074,3.2299 C0.112,3.0339 0.165,2.8429 0.229,2.6589 C0.231,2.6549 0.232,2.6529 0.234,2.6479 C0.235,2.6459 0.235,2.6429 0.235,2.6419 L0.237,2.6419 C0.237,2.6399 0.237,2.6389 0.238,2.6369 L0.238,2.6349 C0.238,2.6339 0.24,2.6329 0.24,2.6309 L0.24,2.6299 C0.242,2.6279 0.242,2.6259 0.242,2.6249 C0.243,2.6249 0.243,2.6249 0.243,2.6229 C0.243,2.6219 0.245,2.6199 0.245,2.6189 C0.246,2.6169 0.246,2.6149 0.246,2.6139 C0.246,2.6119 0.246,2.6119 0.248,2.6119 C0.248,2.6109 0.248,2.6099 0.249,2.6079 C0.251,2.5999 0.254,2.5919 0.257,2.5859 L0.257,2.5849 C0.259,2.5829 0.259,2.5819 0.259,2.5799 L0.26,2.5789 C0.26,2.5769 0.26,2.5749 0.262,2.5739 L0.262,2.5719 C0.264,2.5709 0.264,2.5709 0.264,2.5699 C0.264,2.5679 0.265,2.5679 0.265,2.5659 C0.265,2.5649 0.265,2.5649 0.267,2.5629 L0.267,2.5599 C0.267,2.5599 0.267,2.5589 0.267,2.5569 C0.267,2.5569 0.267,2.5549 0.269,2.5539 L0.269,2.5509 C0.271,2.5509 0.271,2.5489 0.271,2.5479 L0.272,2.5459 C0.272,2.5449 0.274,2.5429 0.274,2.5419 L0.274,2.5399 C0.275,2.5389 0.275,2.5369 0.275,2.5349 C0.277,2.5349 0.277,2.5349 0.277,2.5339 C0.277,2.5319 0.278,2.5309 0.278,2.5289 L0.278,2.5279 C0.28,2.5259 0.28,2.5249 0.282,2.5229 L0.282,2.5219 C0.285,2.5169 0.286,2.5109 0.289,2.5049 L0.289,2.5029 C0.289,2.5019 0.291,2.4999 0.291,2.4989 C0.293,2.4949 0.293,2.4939 0.294,2.4919 C0.294,2.4889 0.296,2.4879 0.296,2.4859 L0.297,2.4859 C0.297,2.4829 0.299,2.4819 0.299,2.4799 C0.301,2.4769 0.301,2.4749 0.302,2.4739 C0.32,2.4279 0.34,2.3819 0.362,2.3349 L1.27,2.7529 C1.092,3.1449 1.001,3.5639 1.001,3.9999 L1.001,6.2839 Z M0,12.2839 L1.001,12.2839 L1.001,8.2829 L0,8.2829 L0,12.2839 Z M0,18.2829 L1.001,18.2829 L1.001,14.2839 L0,14.2839 L0,18.2829 Z M0,24.2839 L1.001,24.2839 L1.001,20.2829 L0,20.2829 L0,24.2839 Z M2.083,29.5119 C1.248,29.0549 0.596,28.3109 0.257,27.4119 C0.24,27.3699 0.226,27.3289 0.211,27.2859 C0.208,27.2769 0.205,27.2679 0.202,27.2569 C0.099,26.9469 0.034,26.6209 0.01,26.2829 L1.007,26.2139 C1.079,27.2359 1.659,28.1399 2.561,28.6339 L2.083,29.5119 Z M3.999,29.9999 L8,29.9999 L8,28.9989 L3.999,28.9989 L3.999,29.9999 Z M10,29.9999 L13.999,29.9999 L13.999,28.9989 L10,28.9989 L10,29.9999 Z M16.001,29.9999 L20,29.9999 L20,28.9989 L16.001,28.9989 L16.001,29.9999 Z M22,29.9999 L26,29.9999 L26,28.9989 L22,28.9989 L22,29.9999 Z" id="Fill-1"></path>
                <polygon id="路径" points="14 22.9997 16 22.9997 16 6.9997 14 6.9997"></polygon>
                <polygon id="路径" points="7 15.9987 23 15.9987 23 13.9997 7 13.9997"></polygon>
            </g>
        </g>
    </g>
</svg>