<?xml version="1.0" encoding="UTF-8"?>
<svg width="33px" height="33px" viewBox="0 0 33 33" version="1.1" xmlns="http://www.w3.org/2000/svg" xmlns:xlink="http://www.w3.org/1999/xlink">
    <!-- Generator: Sketch 61 (89581) - https://sketch.com -->
    <title>绑定银行卡icon</title>
    <desc>Created with Sketch.</desc>
    <defs>
        <polygon id="path-1" points="0.000113333333 0.792313333 32.1152667 0.792313333 32.1152667 32.8666667 0.000113333333 32.8666667"></polygon>
    </defs>
    <g id="页面-1" stroke="none" stroke-width="1" fill="none" fill-rule="evenodd">
        <g id="个人中心" transform="translate(-341.000000, -18.000000)">
            <g id="绑定银行卡icon" transform="translate(341.000000, 17.000000)">
                <g id="编组" transform="translate(0.000000, 0.340907)">
                    <mask id="mask-2" fill="white">
                        <use xlink:href="#path-1"></use>
                    </mask>
                    <g id="Clip-2"></g>
                    <path d="M16.0549133,31.9476467 C7.70678,31.9476467 0.914713333,25.16578 0.914713333,16.8301133 C0.914713333,8.49331333 7.70678,1.71144667 16.0549133,1.71144667 C24.4030467,1.71144667 31.1951133,8.49331333 31.1951133,16.8301133 C31.19398,25.16578 24.4030467,31.9476467 16.0549133,31.9476467 M30.8528467,10.58658 C30.0436467,8.67691333 28.88538,6.96218 27.4120467,5.48884667 C25.9364467,4.01664667 24.2183133,2.86064667 22.30638,2.05258 C20.3264467,1.21618 18.22298,0.792313333 16.0549133,0.792313333 C13.8868467,0.792313333 11.78338,1.21618 9.80344667,2.05258 C7.89151333,2.86064667 6.17338,4.01664667 4.69778,5.48884667 C3.22444667,6.96218 2.06504667,8.67691333 1.25698,10.58658 C0.44778,12.49738 0.0273133333,14.5226467 0.000113333333,16.6102467 L0.000113333333,17.0488467 C0.0273133333,19.1364467 0.44778,21.1617133 1.25698,23.07138 C2.06504667,24.98218 3.22444667,26.6969133 4.69778,28.1702467 C6.17338,29.6424467 7.89038,30.7984467 9.80344667,31.6065133 C11.78338,32.4429133 13.8868467,32.86678 16.0549133,32.86678 L16.0549133,32.86678 C18.22298,32.86678 20.3264467,32.4429133 22.30638,31.6065133 C24.2183133,30.7984467 25.9364467,29.6424467 27.4120467,28.1702467 C28.88538,26.6969133 30.0436467,24.98218 30.8528467,23.07138 C31.69038,21.0948467 32.11538,18.9936467 32.11538,16.8301133 C32.11538,14.6643133 31.69038,12.5642467 30.8528467,10.58658" id="Fill-1" fill="#8C8D8D" mask="url(#mask-2)"></path>
                </g>
                <path d="M21.8710667,10.7469467 L10.2442,10.7469467 C8.64053333,10.7469467 7.3372,12.0514133 7.3372,13.6539467 L7.3372,13.9112133 L24.7780667,13.9112133 L24.7780667,13.6539467 C24.7780667,12.0514133 23.4747333,10.7469467 21.8710667,10.7469467" id="Fill-3" fill="#8C8D8D"></path>
                <path d="M17.7638667,20.0244133 L18.4654,18.7913467 C18.5504,18.6383467 18.7124667,18.5454133 18.887,18.5454133 L21.913,18.5454133 C22.2847333,18.5454133 22.5182,18.9466133 22.3357333,19.2696133 L21.6353333,20.50268 C21.5503333,20.65568 21.3882667,20.7486133 21.2126,20.7486133 L18.1866,20.7486133 C17.8148667,20.7486133 17.5814,20.3474133 17.7638667,20.0244133 L17.7638667,20.0244133 Z M7.3372,20.68628 C7.3372,22.2899467 8.64053333,23.59328 10.2442,23.59328 L21.8710667,23.59328 C23.4747333,23.59328 24.7780667,22.2899467 24.7780667,20.68628 L24.7780667,16.4918133 L7.3372,16.4918133 L7.3372,20.68628 Z" id="Fill-5" fill="#8C8D8D"></path>
            </g>
        </g>
    </g>
</svg>