<?xml version="1.0" encoding="UTF-8"?>
<svg width="33px" height="33px" viewBox="0 0 33 33" version="1.1" xmlns="http://www.w3.org/2000/svg" xmlns:xlink="http://www.w3.org/1999/xlink">
    <!-- Generator: Sketch 61 (89581) - https://sketch.com -->
    <title>绑定邮箱icon</title>
    <desc>Created with Sketch.</desc>
    <defs>
        <polygon id="path-1" points="0.000113333333 0.800246667 32.096 0.800246667 32.096 32.8666667 0.000113333333 32.8666667"></polygon>
    </defs>
    <g id="页面-1" stroke="none" stroke-width="1" fill="none" fill-rule="evenodd">
        <g id="个人中心" transform="translate(-272.000000, -18.000000)">
            <g id="绑定邮箱icon" transform="translate(272.000000, 17.000000)">
                <g id="编组" transform="translate(0.000000, 0.333087)">
                    <mask id="mask-2" fill="white">
                        <use xlink:href="#path-1"></use>
                    </mask>
                    <g id="Clip-2"></g>
                    <path d="M16.0458467,31.8649133 C7.73511333,31.8649133 0.99858,25.13518 0.99858,16.8335133 C0.99858,8.53184667 7.73511333,1.80211333 16.0458467,1.80211333 C24.3554467,1.80211333 31.0931133,8.53184667 31.0931133,16.8335133 C31.0931133,25.13518 24.3554467,31.8649133 16.0458467,31.8649133 M16.0458467,0.800246667 C7.24324667,0.800246667 0.10098,7.87791333 0.000113333333,16.6476467 L0.000113333333,17.01938 C0.10098,25.78798 7.24324667,32.86678 16.0458467,32.86678 C24.9096467,32.86678 32.0961133,25.6882467 32.0961133,16.8335133 C32.0961133,7.97764667 24.9096467,0.800246667 16.0458467,0.800246667" id="Fill-1" fill="#8C8D8D" mask="url(#mask-2)"></path>
                </g>
                <path d="M22.71302,10.6874467 L9.38275333,10.6874467 C8.47155333,10.6874467 7.73148667,11.4071133 7.72355333,12.2922467 L16.05242,16.81198 L24.3801533,12.2888467 C24.3676867,11.4048467 23.62422,10.6874467 22.71302,10.6874467" id="Fill-3" fill="#8C8D8D"></path>
                <path d="M15.8488733,18.33246 L7.72400667,14.0235267 L7.71720667,22.02486 C7.71720667,22.9167933 8.46634,23.6455267 9.38320667,23.6455267 L22.7134733,23.6455267 C23.6292067,23.6455267 24.3794733,22.9167933 24.3794733,22.02486 L24.3794733,14.0189933 L16.2478067,18.33246 C16.12314,18.3993267 15.9724067,18.3993267 15.8488733,18.33246" id="Fill-5" fill="#8C8D8D"></path>
            </g>
        </g>
    </g>
</svg>