<?xml version="1.0" encoding="UTF-8"?>
<svg width="33px" height="33px" viewBox="0 0 33 33" version="1.1" xmlns="http://www.w3.org/2000/svg" xmlns:xlink="http://www.w3.org/1999/xlink">
    <!-- Generator: Sketch 61 (89581) - https://sketch.com -->
    <title>绑定手机icon</title>
    <desc>Created with Sketch.</desc>
    <defs>
        <polygon id="path-1" points="0 0.79254 32.11504 0.79254 32.11504 32.8666667 0 32.8666667"></polygon>
    </defs>
    <g id="页面-1" stroke="none" stroke-width="1" fill="none" fill-rule="evenodd">
        <g id="个人中心" transform="translate(-133.000000, -18.000000)">
            <g id="绑定手机icon" transform="translate(133.000000, 17.000000)">
                <g id="编组" transform="translate(0.000000, 0.340907)">
                    <mask id="mask-2" fill="white">
                        <use xlink:href="#path-1"></use>
                    </mask>
                    <g id="Clip-2"></g>
                    <path d="M16.0545733,31.9478733 C7.70644,31.9478733 0.915506667,25.1660067 0.915506667,16.8292067 C0.915506667,8.49354 7.70644,1.71167333 16.0545733,1.71167333 C24.4027067,1.71167333 31.1947733,8.49354 31.1947733,16.8292067 C31.1947733,25.1660067 24.4027067,31.9478733 16.0545733,31.9478733 M30.85364,10.5868067 C30.04444,8.67714 28.88504,6.96240667 27.4117067,5.48907333 C25.9361067,4.01687333 24.2191067,2.86087333 22.3071733,2.05280667 C20.3261067,1.21640667 18.22264,0.79254 16.0545733,0.79254 C13.8865067,0.79254 11.78304,1.21640667 9.80310667,2.05280667 C7.89117333,2.86087333 6.17304,4.01687333 4.69744,5.48907333 C3.22410667,6.96240667 2.06584,8.67714 1.25664,10.5868067 C0.44744,12.4976067 0.0269733333,14.5228733 -0.000226666667,16.6104733 L-0.000226666667,17.0490733 C0.0269733333,19.13554 0.44744,21.1608067 1.25664,23.0716067 C2.06584,24.9824067 3.22410667,26.69714 4.69744,28.16934 C6.17304,29.6426733 7.89117333,30.7986733 9.80310667,31.60674 C11.78304,32.44314 13.8865067,32.8670067 16.0545733,32.8670067 C18.22264,32.8670067 20.3261067,32.44314 22.3071733,31.60674 C24.2191067,30.7986733 25.9361067,29.6426733 27.4117067,28.16934 C28.88504,26.69714 30.04444,24.9824067 30.85364,23.0716067 C31.69004,21.09394 32.11504,18.9938733 32.11504,16.8292067 C32.11504,14.66454 31.69004,12.5644733 30.85364,10.5868067" id="Fill-1" fill="#8C8D8D" mask="url(#mask-2)"></path>
                </g>
                <path d="M20.51594,21.62944 C20.51594,21.85384 20.3346067,22.03404 20.11134,22.03404 L12.0034733,22.03404 C11.7802067,22.03404 11.5988733,21.85384 11.5988733,21.62944 L11.5988733,11.9009067 C11.5988733,11.6765067 11.7802067,11.4951733 12.0034733,11.4951733 L20.11134,11.4951733 C20.3346067,11.4951733 20.51594,11.6765067 20.51594,11.9009067 L20.51594,21.62944 Z M17.2734733,24.0615733 C17.2734733,24.28484 17.09214,24.4661733 16.86774,24.4661733 L15.2470733,24.4661733 C15.0226733,24.4661733 14.84134,24.28484 14.84134,24.0615733 L14.84134,23.25124 C14.84134,23.02684 15.0226733,22.8455067 15.2470733,22.8455067 L16.86774,22.8455067 C17.09214,22.8455067 17.2734733,23.02684 17.2734733,23.25124 L17.2734733,24.0615733 Z M14.84134,10.2791067 C14.84134,10.05584 15.0226733,9.87450667 15.2470733,9.87450667 L16.86774,9.87450667 C17.09214,9.87450667 17.2734733,10.05584 17.2734733,10.2791067 C17.2734733,10.5035067 17.09214,10.68484 16.86774,10.68484 L15.2470733,10.68484 C15.0226733,10.68484 14.84134,10.5035067 14.84134,10.2791067 L14.84134,10.2791067 Z M20.51594,9.06304 L11.5988733,9.06304 C11.1500733,9.06304 10.7874067,9.42684 10.7874067,9.87450667 L10.7874067,24.4661733 C10.7874067,24.91384 11.1500733,25.27764 11.5988733,25.27764 L20.51594,25.27764 C20.96474,25.27764 21.3274067,24.91384 21.3274067,24.4661733 L21.3274067,9.87450667 C21.3274067,9.42684 20.96474,9.06304 20.51594,9.06304 L20.51594,9.06304 Z" id="Fill-3" fill="#8C8D8D"></path>
            </g>
        </g>
    </g>
</svg>