<?xml version="1.0" encoding="UTF-8"?>
<svg width="24px" height="24px" viewBox="0 0 24 24" version="1.1" xmlns="http://www.w3.org/2000/svg" xmlns:xlink="http://www.w3.org/1999/xlink">
    <!-- Generator: Sketch 61 (89581) - https://sketch.com -->
    <title>消息记录icon</title>
    <desc>Created with Sketch.</desc>
    <g id="页面-1" stroke="none" stroke-width="1" fill="none" fill-rule="evenodd">
        <g id="个人中心" transform="translate(-23.000000, -184.000000)" fill="#FFFFFF" fill-rule="nonzero">
            <g id="消息记录icon" transform="translate(23.000000, 184.000000)">
                <path d="M6.41634885,17.6390777 L0,17.6390777 L0,5.66189317 L6.41634885,5.66189317 L6.41634885,17.6390777 Z M1.71102636,15.9280513 L4.70532249,15.9280513 L4.70532249,7.37291953 L1.71102636,7.37291953 L1.71102636,15.9280513 Z" id="形状"></path>
                <path d="M16.682507,23.3009709 L4.70532249,17.3123786 L4.70532249,5.98859226 L16.682507,0 L16.682507,23.3009709 Z M6.41634885,16.2547504 L14.9714807,20.5323163 L14.9714807,2.76865454 L6.41634885,7.04622044 L6.41634885,16.2547504 Z" id="形状"></path>
                <path d="M20.5323163,10.7949722 L23.9543691,10.7949722 L23.9543691,12.5059986 L20.5323163,12.5059986 L20.5323163,10.7949722 Z M18.1722763,3.80529589 L21.1358274,2.09426953 L21.9913406,3.57607184 L19.0277895,5.28709819 L18.1722763,3.80529589 Z M18.2257459,19.5100316 L19.081259,18.0282293 L22.0448369,19.7392556 L21.1893237,21.2210579 L18.2257459,19.5100316 Z" id="形状"></path>
            </g>
        </g>
    </g>
</svg>