<?xml version="1.0" encoding="UTF-8"?>
<svg width="16px" height="16px" viewBox="0 0 16 16" version="1.1" xmlns="http://www.w3.org/2000/svg" xmlns:xlink="http://www.w3.org/1999/xlink">
    <!-- Generator: Sketch 61 (89581) - https://sketch.com -->
    <title>主账户刷新icon</title>
    <desc>Created with Sketch.</desc>
    <defs>
        <polygon id="path-1" points="0.000114285714 0.00019047619 15.632381 0.00019047619 15.632381 15.6294957 0.000114285714 15.6294957"></polygon>
    </defs>
    <g id="页面-1" stroke="none" stroke-width="1" fill="none" fill-rule="evenodd">
        <g id="个人中心" transform="translate(-80.000000, -199.000000)">
            <g id="主账户刷新icon" transform="translate(80.000000, 199.000000)">
                <mask id="mask-2" fill="white">
                    <use xlink:href="#path-1"></use>
                </mask>
                <g id="Clip-2"></g>
                <path d="M12.9970667,13.6679619 C11.5688762,14.9346286 9.72544762,15.6325333 7.81611429,15.6294957 C3.49878095,15.6294957 0.000114285714,12.130819 0.000114285714,7.81500952 C0.000114285714,6.15329524 0.518209524,4.61462857 1.4016381,3.34948571 L3.51668571,7.81500952 L1.5624,7.81500952 C1.5624,10.3574857 3.10259048,12.6473905 5.45878095,13.6051048 C7.81459048,14.5643429 10.5155429,14.0012952 12.2919238,12.1814857 L12.9955429,13.6679619 L12.9970667,13.6679619 Z M2.63706667,1.96167619 C4.06525714,0.694628571 5.9071619,-0.0028952381 7.81611429,0.000142436311 C12.1334476,0.000142436311 15.6325094,3.49881905 15.6325094,7.81500952 C15.6355429,9.41158095 15.1471619,10.971581 14.2309714,12.2812952 L12.1159238,7.81500952 L14.0698286,7.81500952 C14.0698286,5.27215238 12.5292571,2.98339048 10.1738286,2.02453333 C7.8176381,1.06529524 5.11668571,1.62834286 3.34030476,3.44815238 L2.63706667,1.96281905 L2.63706667,1.96167619 Z" id="Fill-1" fill="#FFFFFF" mask="url(#mask-2)"></path>
            </g>
        </g>
    </g>
</svg>