<?xml version="1.0" encoding="UTF-8"?>
<svg width="28px" height="21px" viewBox="0 0 28 21" version="1.1" xmlns="http://www.w3.org/2000/svg" xmlns:xlink="http://www.w3.org/1999/xlink">
    <!-- Generator: Sketch 61 (89581) - https://sketch.com -->
    <title>资金密码icon</title>
    <desc>Created with Sketch.</desc>
    <g id="页面-1" stroke="none" stroke-width="1" fill="none" fill-rule="evenodd">
        <g id="个人中心" transform="translate(-20.000000, -270.000000)" fill="#FFFFFF" fill-rule="nonzero">
            <g id="资金密码icon" transform="translate(20.000000, 270.000000)">
                <path d="M26.065,0.3675 L1.8725,0.3675 C0.838346806,0.3675 0,1.02865679 0,1.84423502 L0,18.890765 C0,19.7063432 0.838346806,20.3675 1.8725,20.3675 L26.065,20.3675 C26.5616179,20.3675 27.0378956,20.2119159 27.3890574,19.9349743 C27.7402193,19.6580328 27.9375,19.2824195 27.9375,18.890765 L27.9375,1.84423502 C27.9375,1.02865679 27.0991532,0.3675 26.065,0.3675 Z M27.9375,15.1778125 L17.8465625,15.1778125 C15.32625,15.1778125 13.2840625,13.1778125 13.2840625,10.71375 C13.2840625,8.248125 15.3271875,6.249375 17.8465625,6.249375 L27.9090625,6.249375" id="形状"></path>
                <path d="M18.17125,7.72062485 C17.4131486,7.72037631 16.6860119,8.02135661 16.1498653,8.55732737 C15.6137187,9.09329814 15.3125,9.82033604 15.3125,10.5784375 L15.3125,10.7971875 C15.3125,12.3755138 16.5919862,13.655 18.1703125,13.655 L27.91,13.655 L27.91,7.72062485 L18.17125,7.72062485 Z M18.7125,11.9265635 C18.1994496,11.9271946 17.7365659,11.618627 17.5397918,11.1448116 C17.3430178,10.6709961 17.4511271,10.1252969 17.8136851,9.76229161 C18.1762431,9.39928635 18.7218087,9.29050427 19.1958663,9.48669402 C19.669924,9.68288378 19.9790628,10.1453867 19.9790628,10.6584375 C19.9793112,10.9945707 19.8459999,11.3170309 19.6084644,11.5548595 C19.3709289,11.7926881 19.0486332,11.9263968 18.7125,11.9265635 L18.7125,11.9265635 Z" id="形状"></path>
            </g>
        </g>
    </g>
</svg>