<?xml version="1.0" encoding="UTF-8"?>
<svg width="33px" height="33px" viewBox="0 0 33 33" version="1.1" xmlns="http://www.w3.org/2000/svg" xmlns:xlink="http://www.w3.org/1999/xlink">
    <!-- Generator: Sketch 61 (89581) - https://sketch.com -->
    <title>绑定个人资料icon</title>
    <desc>Created with Sketch.</desc>
    <defs>
        <polygon id="path-1" points="0.000453333333 0.800133333 32.096 0.800133333 32.096 32.8663267 0.000453333333 32.8663267"></polygon>
    </defs>
    <g id="页面-1" stroke="none" stroke-width="1" fill="none" fill-rule="evenodd">
        <g id="个人中心" transform="translate(-202.000000, -18.000000)">
            <g id="绑定个人资料icon" transform="translate(202.000000, 17.000000)">
                <g id="编组" transform="translate(0.000000, 0.333087)">
                    <mask id="mask-2" fill="white">
                        <use xlink:href="#path-1"></use>
                    </mask>
                    <g id="Clip-2"></g>
                    <path d="M16.0461867,31.86446 C7.73545333,31.86446 0.99892,25.1347267 0.99892,16.83306 C0.99892,8.53139333 7.73545333,1.80279333 16.0461867,1.80279333 C24.3546533,1.80279333 31.09232,8.53139333 31.09232,16.83306 C31.09232,25.1347267 24.3546533,31.86446 16.0461867,31.86446 M16.0461867,0.799793333 C7.24245333,0.799793333 0.100186667,7.87859333 0.000453333333,16.6471933 L0.000453333333,17.0189267 C0.100186667,25.78866 7.24245333,32.8663267 16.0461867,32.8663267 C24.9088533,32.8663267 32.0964533,25.6877933 32.0964533,16.83306 C32.0964533,7.97832667 24.9088533,0.799793333 16.0461867,0.799793333" id="Fill-1" fill="#8C8D8D" mask="url(#mask-2)"></path>
                </g>
                <path d="M18.6902533,18.4127 C18.5723867,18.3764333 17.8266533,18.0591 18.2924533,16.7263 L18.2867867,16.7263 C19.5005867,15.5499 20.4287867,13.6538333 20.4287867,11.7883667 C20.4287867,8.9199 18.4023867,7.4171 16.0461867,7.4171 C13.6899867,7.4171 11.67492,8.9199 11.67492,11.7883667 C11.67492,13.6617667 12.5974533,15.5646333 13.8191867,16.7387667 C14.2951867,17.9151667 13.4440533,18.3503667 13.26612,18.4127 C10.7988533,19.2525 7.90432,20.7825 7.90432,22.2932333 L7.90432,22.8587667 C7.90432,24.9169 12.1452533,25.3849667 16.0688533,25.3849667 C19.9992533,25.3849667 24.18692,24.9169 24.18692,22.8587667 L24.18692,22.2932333 C24.18692,20.7371667 21.2787867,19.2185 18.6902533,18.4127" id="Fill-3" fill="#8C8D8D"></path>
            </g>
        </g>
    </g>
</svg>