<?xml version="1.0" encoding="UTF-8"?>
<svg width="18px" height="27px" viewBox="0 0 18 27" version="1.1" xmlns="http://www.w3.org/2000/svg" xmlns:xlink="http://www.w3.org/1999/xlink">
    <!-- Generator: Sketch 61 (89581) - https://sketch.com -->
    <title>手机号icon</title>
    <desc>Created with Sketch.</desc>
    <g id="页面-1" stroke="none" stroke-width="1" fill="none" fill-rule="evenodd">
        <g id="个人中心" transform="translate(-26.000000, -339.000000)" fill="#FFFFFF">
            <g id="手机号icon" transform="translate(25.000000, 339.000000)">
                <path d="M17.3203718,20.8014306 C17.3203718,21.1710306 17.0217051,21.4678306 16.6539718,21.4678306 L3.29983843,21.4678306 C2.9321051,21.4678306 2.63343843,21.1710306 2.63343843,20.8014306 L2.63343843,4.77796392 C2.63343843,4.40836392 2.9321051,4.10969725 3.29983843,4.10969725 L16.6539718,4.10969725 C17.0217051,4.10969725 17.3203718,4.40836392 17.3203718,4.77796392 L17.3203718,20.8014306 Z M11.9798384,24.8072973 C11.9798384,25.1750306 11.6811718,25.4736973 11.3115718,25.4736973 L8.64223843,25.4736973 C8.27263843,25.4736973 7.97397176,25.1750306 7.97397176,24.8072973 L7.97397176,23.4726306 C7.97397176,23.1030306 8.27263843,22.8043639 8.64223843,22.8043639 L11.3115718,22.8043639 C11.6811718,22.8043639 11.9798384,23.1030306 11.9798384,23.4726306 L11.9798384,24.8072973 Z M7.97397176,2.10676392 C7.97397176,1.73903059 8.27263843,1.44036392 8.64223843,1.44036392 L11.3115718,1.44036392 C11.6811718,1.44036392 11.9798384,1.73903059 11.9798384,2.10676392 C11.9798384,2.47636392 11.6811718,2.77503059 11.3115718,2.77503059 L8.64223843,2.77503059 C8.27263843,2.77503059 7.97397176,2.47636392 7.97397176,2.10676392 L7.97397176,2.10676392 Z M17.3203718,0.103830588 L2.63343843,0.103830588 C1.89423843,0.103830588 1.2969051,0.703030588 1.2969051,1.44036392 L1.2969051,25.4736973 C1.2969051,26.2110306 1.89423843,26.8102306 2.63343843,26.8102306 L17.3203718,26.8102306 C18.0595718,26.8102306 18.6569051,26.2110306 18.6569051,25.4736973 L18.6569051,1.44036392 C18.6569051,0.703030588 18.0595718,0.103830588 17.3203718,0.103830588 L17.3203718,0.103830588 Z" id="Fill-3"></path>
            </g>
        </g>
    </g>
</svg>