<?xml version="1.0" encoding="UTF-8"?>
<svg width="26px" height="28px" viewBox="0 0 26 28" version="1.1" xmlns="http://www.w3.org/2000/svg" xmlns:xlink="http://www.w3.org/1999/xlink">
    <!-- Generator: Sketch 61 (89581) - https://sketch.com -->
    <title>编组备份</title>
    <desc>Created with Sketch.</desc>
    <g id="页面-1" stroke="none" stroke-width="1" fill="none" fill-rule="evenodd">
        <g id="个人中心" transform="translate(-23.000000, -226.000000)" fill="#FFFFFF">
            <g id="编组备份" transform="translate(23.000000, 226.000000)">
                <path d="M16.5953849,17.1348556 C16.4140336,17.0783399 15.2666381,16.5838274 15.9833244,14.5068752 L15.9746055,14.5068752 C17.8421749,12.673647 19.2703161,9.71893528 19.2703161,6.81190867 C19.2703161,2.34186956 16.1524693,0 12.5271877,0 C8.90190605,0 5.80149685,2.34186956 5.80149685,6.81190867 C5.80149685,9.7312981 7.22091929,12.6966065 9.10069494,14.5263025 C9.83307507,16.3595307 8.52350965,17.0377192 8.24973899,17.1348556 C4.45356867,18.4435474 0,20.8278037 0,23.1820361 L0,24.0633279 C0,27.2705942 6.52515817,28 12.5620629,28 C18.6094302,28 25.0526316,27.2705942 25.0526316,24.0633279 L25.0526316,23.1820361 C25.0526316,20.7571591 20.5781378,18.3905639 16.5953849,17.1348556" id="Fill-3"></path>
            </g>
        </g>
    </g>
</svg>