<?xml version="1.0" encoding="UTF-8"?>
<svg width="27px" height="27px" viewBox="0 0 27 27" version="1.1" xmlns="http://www.w3.org/2000/svg" xmlns:xlink="http://www.w3.org/1999/xlink">
    <!-- Generator: Sketch 61 (89581) - https://sketch.com -->
    <title>密保问题icon</title>
    <desc>Created with Sketch.</desc>
    <defs>
        <polygon id="path-1" points="0 0.347783333 26.4856667 0.347783333 26.4856667 26.8333333 0 26.8333333"></polygon>
    </defs>
    <g id="页面-1" stroke="none" stroke-width="1" fill="none" fill-rule="evenodd">
        <g id="个人中心" transform="translate(-20.000000, -300.000000)">
            <g id="密保问题icon" transform="translate(20.000000, 299.000000)">
                <g id="编组" transform="translate(0.000000, 0.819117)">
                    <g id="Clip-2"></g>
                    <path d="M22.5246,13.1542833 C22.5001,13.3012833 22.4732667,13.44595 22.4464333,13.5906167 L13.2426,13.5906167 L13.2426,23.8911167 C13.1119333,23.88295 12.5706,23.8362833 11.7714333,23.6041167 C11.0212667,23.3836167 10.2967667,23.0826167 9.61076667,22.7081167 C8.97726667,22.3662833 7.72776667,21.52045 6.47943333,19.7027833 C5.30926667,17.99595 4.4891,15.9426167 4.04343333,13.5917833 L13.2426,13.5917833 L13.2426,3.96678333 C13.6684333,4.22811667 14.1596,4.50461667 14.7149333,4.78111667 C15.8547667,5.34695 17.0459333,5.80428333 18.2721,6.14845 C19.9276,6.62095 21.6251,6.93245 23.3412667,7.07945 C23.1966,8.58911667 22.9492667,10.6377833 22.5246,13.1542833 M25.0597667,4.20945 C23.7787667,4.20945 21.6962667,4.05545 19.0689333,3.31461667 C17.5359333,2.88878333 16.0694333,2.24828333 14.7149333,1.41411667 C13.7489333,0.81445 13.2426,0.347783333 13.2426,0.347783333 C13.2426,0.347783333 12.7374333,0.81445 11.7714333,1.41411667 C10.4157667,2.24828333 8.94926667,2.88878333 7.41626667,3.31578333 C4.78776667,4.05545 2.70526667,4.20945 1.42543333,4.20945 C0.5061,4.20945 -0.000233333333,4.13128333 -0.000233333333,4.13128333 C-0.000233333333,4.13128333 0.0359333333,7.57061667 1.05793333,13.6431167 C1.89443333,18.59795 4.08076667,21.94745 6.2461,23.8911167 C6.8446,24.4336167 7.50376667,24.9061167 8.21076667,25.2957833 C10.0167667,26.2722833 11.5439333,26.6292833 12.4271,26.7587833 C12.6966,26.80195 12.9696,26.82645 13.2426,26.83345 C13.3091,26.83345 15.4499333,26.8217833 18.2732667,25.2957833 C20.9216,23.8666167 24.3329333,20.1297833 25.4284333,13.6431167 C26.4527667,7.57061667 26.4866,4.13128333 26.4866,4.13128333 C26.4866,4.13128333 25.9802667,4.20945 25.0597667,4.20945" id="Fill-1" fill="#FFFFFF" mask="url(#mask-2)"></path>
                </g>
            </g>
        </g>
    </g>
</svg>