<?xml version="1.0" encoding="UTF-8"?>
<svg width="28px" height="28px" viewBox="0 0 28 28" version="1.1" xmlns="http://www.w3.org/2000/svg" xmlns:xlink="http://www.w3.org/1999/xlink">
    <!-- Generator: Sketch 61 (89581) - https://sketch.com -->
    <title>谷歌验证icon</title>
    <desc>Created with Sketch.</desc>
    <defs>
        <polygon id="path-1" points="0 -6.51162791e-05 27.6275349 -6.51162791e-05 27.6275349 27.6274698 0 27.6274698"></polygon>
    </defs>
    <g id="页面-1" stroke="none" stroke-width="1" fill="none" fill-rule="evenodd">
        <g id="个人中心" transform="translate(-21.000000, -424.000000)">
            <g id="谷歌验证icon" transform="translate(21.000000, 424.000000)">
                <g id="Clip-2"></g>
                <path d="M19.1269953,18.9142605 C17.8513674,20.2953767 16.045693,21.0396558 14.1325767,20.9335163 L13.9202977,20.9335163 C9.98857674,20.9335163 6.80048372,17.6392837 6.90662326,13.7075628 C6.90662326,9.77584186 10.2008558,6.58774884 14.1325767,6.69388837 C15.9389023,6.69388837 17.7452279,7.33202791 19.0202047,8.71314419 L17.6390884,10.0942605 C16.6825302,9.13835349 15.4075535,8.71314419 14.1325767,8.71314419 C11.2635535,8.71314419 8.92587907,11.0508186 8.92587907,13.9198419 C8.92587907,16.7888651 11.2635535,19.1265395 14.1325767,19.1265395 C15.513693,19.2326791 16.7886698,18.7019814 17.7452279,17.7454233 C18.3827163,17.1079349 18.701786,16.1513767 18.8079256,15.3009581 L14.1325767,15.3009581 L14.1325767,13.3891442 L20.7203907,13.3891442 C20.8265302,13.8137023 20.8265302,14.2382605 20.8265302,14.5579814 C20.8265302,16.0452372 20.189693,17.7454233 19.1269953,18.9142605 M13.813507,-6.51162791e-05 C6.16299535,-6.51162791e-05 -0.000260465116,6.1631907 -0.000260465116,13.8137023 C-0.000260465116,21.464214 6.16299535,27.6274698 13.813507,27.6274698 C21.4646698,27.6274698 27.6279256,21.464214 27.6279256,13.8137023 C27.6279256,6.1631907 21.4646698,-6.51162791e-05 13.813507,-6.51162791e-05" id="Fill-1" fill="#FFFFFF" mask="url(#mask-2)"></path>
            </g>
        </g>
    </g>
</svg>