<?xml version="1.0" encoding="UTF-8"?>
<svg width="24px" height="24px" viewBox="0 0 24 24" version="1.1" xmlns="http://www.w3.org/2000/svg" xmlns:xlink="http://www.w3.org/1999/xlink">
    <!-- Generator: Sketch 61 (89581) - https://sketch.com -->
    <title>提款方式icon</title>
    <desc>Created with Sketch.</desc>
    <g id="页面-1" stroke="none" stroke-width="1" fill="none" fill-rule="evenodd">
        <g id="个人中心" transform="translate(-23.000000, -57.000000)" fill="#FFFFFF" fill-rule="nonzero">
            <g id="提款方式icon" transform="translate(23.000000, 57.000000)">
                <path d="M4.57767401,5.29867259 L17.5438891,5.29867259 C17.7377602,5.29867259 17.9200569,5.22054541 18.056056,5.0845463 C18.1920552,4.94854716 18.2672887,4.76335685 18.2672887,4.56948577 L18.24414,0.718106086 C18.24414,0.489511805 18.1341832,0.275385516 17.9518865,0.142279969 C17.7695898,0.00628082812 17.5323147,-0.0342295313 17.3152948,0.029429625 L4.36933491,3.8808093 C4.02499669,3.98208525 3.80797678,4.32352987 3.86006156,4.67944249 C3.91214634,5.03246152 4.21886777,5.29867259 4.57767401,5.29867259 Z M16.8031279,1.6932488 L16.8175959,3.85187332 L9.5459827,3.85187332 L16.8031279,1.6932488 Z M23.2153422,10.4521716 C23.3513414,10.4521716 23.4815533,10.4145548 23.5886165,10.348002 C23.8258916,10.2293645 23.9908267,9.98340862 23.9908267,9.69983597 L23.9908267,9.07771228 C23.9908267,7.72061456 22.8883656,6.61815352 21.5312679,6.61815352 L2.46245346,6.61815352 C1.10535574,6.61815352 0.00289469531,7.72061456 0.00289469531,9.07771228 L0.00289469531,14.8272926 C0.00289469531,15.2266092 0.326977734,15.5506922 0.726294352,15.5506922 C1.12561097,15.5506922 1.44969398,15.2266092 1.44969398,14.8272926 L1.44969398,9.07771228 C1.44969398,8.51924775 1.90398895,8.06495278 2.46245346,8.0649528 L21.5312679,8.0649528 C22.0607964,8.0649528 22.4977298,8.4758438 22.5411338,8.99379792 L18.3830327,8.91856437 L18.3714583,8.91856437 C16.1260258,8.91856437 14.3001651,10.744425 14.3001651,12.9898575 C14.3001651,14.074957 14.7226305,15.0992909 15.4923277,15.8776689 C16.2649185,16.6589405 17.2863588,17.0900867 18.3714583,17.0900867 L22.5440274,17.0900867 L22.5440274,21.5317604 C22.5440274,22.090225 22.0897324,22.5445199 21.5312679,22.5445199 L2.46245346,22.5445199 C1.90398893,22.5445199 1.44969396,22.090225 1.44969398,21.5317604 L1.44969398,19.2776472 L8.81100867,19.2776472 L7.66225005,20.6115961 C7.4018262,20.9154239 7.43654937,21.3697189 7.73748363,21.6330364 C7.87348277,21.7516739 8.04131147,21.8095459 8.20914019,21.8095459 C8.41169208,21.8095459 8.61424399,21.7256315 8.75892391,21.5578028 L10.9030804,19.0664145 C11.0390796,18.9304153 11.1085259,18.7510122 11.1114195,18.5716091 L11.1114195,18.5600347 L11.1114195,18.5397795 C11.1085259,18.3603764 11.036186,18.1809733 10.9030804,18.0449742 L8.75603032,15.5535859 C8.49560646,15.249758 8.03841788,15.2179284 7.73459002,15.4783523 C7.43076218,15.7387761 7.39893258,16.1959647 7.65935646,16.4997926 L8.81100867,17.8366351 L0.723400734,17.8366351 C0.324084141,17.8366351 1.1015625e-06,18.1607181 1.1015625e-06,18.5600347 L1.1015625e-06,21.5404412 C1.1015625e-06,22.897539 1.10246215,24 2.45955987,24 L21.5283743,24 C22.885472,24 23.9879331,22.897539 23.9879331,21.5404412 L23.9879331,16.366687 C23.9879331,15.9673704 23.66385,15.6432874 23.2645334,15.6432874 L18.3685647,15.6432874 C16.9449142,15.6432874 15.7440708,14.427976 15.7440708,12.9898575 C15.7440708,11.5459519 16.9188718,10.3682573 18.3627775,10.3653637 L23.2008742,10.4521716 L23.2153422,10.4521716 Z" id="形状"></path>
                <path d="M18.1920552,12.2809259 C17.7927386,12.2809259 17.4686555,12.6050089 17.4686555,13.0043255 C17.4686555,13.4036421 17.7927386,13.7277251 18.1920552,13.7277251 L21.0133138,13.7277251 C21.4126304,13.7277251 21.7367134,13.4036421 21.7367134,13.0043255 C21.7367134,12.6050089 21.4126304,12.2809259 21.0133138,12.2809259 L18.1920552,12.2809259 Z" id="路径"></path>
            </g>
        </g>
    </g>
</svg>