<?xml version="1.0" encoding="utf-8"?>
<!-- Generator: Adobe Illustrator 23.0.3, SVG Export Plug-In . SVG Version: 6.00 Build 0)  -->
<svg version="1.1" id="图层_1" xmlns="http://www.w3.org/2000/svg" xmlns:xlink="http://www.w3.org/1999/xlink" x="0px" y="0px"
	 viewBox="0 0 50 50" style="enable-background:new 0 0 50 50;" xml:space="preserve">
<style type="text/css">
	.st0{display:none;fill:#C42B2A;}
	.st1{display:none;fill:#E3AE1A;}
	.st2{fill:#BA2C2A;}
</style>
<path class="st0" d="M25,0C11.19,0,0,11.19,0,25c0,13.81,11.19,25,25,25c13.81,0,25-11.19,25-25C50,11.19,38.81,0,25,0z M24.82,8.8
	c2.31,0,3.38,0.54,3.38,1.8c0,0.9-0.18,2.34-0.35,4.86c-0.89,7.02-1.25,6.84-1.78,14.76c-0.35,0.36-1.96,0.36-2.14,0
	c-0.54-7.74-0.89-7.74-1.78-14.76c-0.18-2.52-0.35-3.96-0.35-4.86C21.62,9.34,22.69,8.8,24.82,8.8z M25,41.2
	c-1.96,0-3.56-1.44-3.56-3.6c0-1.98,1.6-3.6,3.56-3.6c2.14,0,3.56,1.44,3.56,3.6C28.56,39.76,26.95,41.2,25,41.2z"/>
<path class="st1" d="M25,0C11.19,0,0,11.19,0,25c0,13.81,11.19,25,25,25c13.81,0,25-11.19,25-25C50,11.19,38.81,0,25,0z M24.82,8.8
	c2.31,0,3.38,0.54,3.38,1.8c0,0.9-0.18,2.34-0.35,4.86c-0.89,7.02-1.25,6.84-1.78,14.76c-0.35,0.36-1.96,0.36-2.14,0
	c-0.54-7.74-0.89-7.74-1.78-14.76c-0.18-2.52-0.35-3.96-0.35-4.86C21.62,9.34,22.69,8.8,24.82,8.8z M25,41.2
	c-1.96,0-3.56-1.44-3.56-3.6c0-1.98,1.6-3.6,3.56-3.6c2.14,0,3.56,1.44,3.56,3.6C28.56,39.76,26.95,41.2,25,41.2z"/>
<path class="st2" d="M24.99,0c-13.81,0-25,11.19-25,25c0,13.81,11.19,25,25,25c13.81,0,25-11.19,25-25C49.99,11.19,38.8,0,24.99,0z
	 M38.45,35.98c0.23,0.23,0.23,0.6,0,0.83l-1.65,1.65c-0.23,0.23-0.6,0.23-0.83,0L24.99,27.48L14.01,38.46
	c-0.23,0.23-0.6,0.23-0.83,0l-1.65-1.65c-0.23-0.23-0.23-0.6,0-0.83L22.51,25L11.53,14.02c-0.23-0.23-0.23-0.6,0-0.83l1.65-1.65
	c0.23-0.23,0.6-0.23,0.83,0l10.98,10.98l10.98-10.98c0.23-0.23,0.6-0.23,0.83,0l1.65,1.65c0.23,0.23,0.23,0.6,0,0.83L27.47,25
	L38.45,35.98z"/>
</svg>
