<?xml version="1.0" encoding="UTF-8"?>
<svg width="16px" height="16px" viewBox="0 0 16 16" version="1.1" xmlns="http://www.w3.org/2000/svg" xmlns:xlink="http://www.w3.org/1999/xlink">
    <!-- Generator: Sketch 61 (89581) - https://sketch.com -->
    <title>忘记密码icon</title>
    <desc>Created with Sketch.</desc>
    <defs>
        <polygon id="path-1" points="0 0.000339393939 15.6043636 0.000339393939 15.6043636 15.6042182 0 15.6042182"></polygon>
    </defs>
    <g id="页面-1" stroke="none" stroke-width="1" fill="none" fill-rule="evenodd">
        <g id="首页" transform="translate(-24.000000, -506.000000)">
            <g id="忘记密码icon" transform="translate(24.000000, 506.000000)">
                <mask id="mask-2" fill="white">
                    <use xlink:href="#path-1"></use>
                </mask>
                <g id="Clip-2"></g>
                <path d="M10.4719515,5.75258182 C10.4719515,6.08033939 10.4094061,6.37415758 10.2818909,6.63985455 C10.1553455,6.90506667 9.88673939,7.23621818 9.47267879,7.63185455 C9.06298182,8.02700606 8.78758788,8.30918788 8.6528,8.47549091 C8.51801212,8.64276364 8.41764848,8.84106667 8.34734545,9.07524848 C8.27704242,9.30700606 8.24698182,9.61924848 8.25473939,10.0114909 L7.17934545,10.0114909 C7.17934545,9.55476364 7.21570909,9.18773333 7.28989091,8.91573333 C7.36455758,8.64276364 7.47316364,8.40324848 7.62152727,8.20009697 C7.76795152,7.99500606 8.03316364,7.69779394 8.41667879,7.29924848 C8.80116364,6.90409697 9.04649697,6.61512727 9.15752727,6.43573333 C9.26807273,6.25633939 9.32286061,5.98967273 9.32286061,5.63427879 C9.32286061,5.27985455 9.19534545,4.96567273 8.94273939,4.69173333 C8.68819394,4.41827879 8.32164848,4.28155152 7.84116364,4.28155152 C6.75461818,4.28155152 6.21304242,4.9264 6.21304242,6.21512727 L5.1337697,6.21512727 C5.1488,5.62991515 5.21958788,5.1814303 5.34225455,4.87646061 C5.47170909,4.56130909 5.67243636,4.28058182 5.92843636,4.05609697 C6.19849697,3.81512727 6.49813333,3.63718788 6.8288,3.52324848 C7.16140606,3.40833939 7.50952727,3.35306667 7.87607273,3.35306667 C8.61934545,3.35306667 9.23655758,3.57027879 9.72964848,4.00664242 C10.2232242,4.44397576 10.470497,5.02482424 10.4719515,5.75258182 L10.4719515,5.75258182 Z M7.15316364,12.2514909 L8.34055758,12.2514909 L8.34055758,11.0020364 L7.15316364,11.0020364 L7.15316364,12.2514909 Z M7.80237576,14.5268848 C4.13643636,14.4599758 1.19922424,11.4689455 1.19922424,7.80252121 C1.19922424,4.13561212 4.13643636,1.14458182 7.80237576,1.07767273 C11.4683152,1.14458182 14.4050424,4.13561212 14.4050424,7.80252121 C14.4050424,11.4689455 11.4683152,14.4599758 7.80237576,14.5268848 L7.80237576,14.5268848 Z M7.80237576,0.000339393939 C3.49304242,0.000339393939 -0.000290909091,3.49318788 -0.000290909091,7.80252121 C-0.000290909091,12.1113697 3.49304242,15.6042182 7.80237576,15.6042182 C12.1112242,15.6042182 15.6045576,12.1113697 15.6045576,7.80252121 C15.6045576,3.49318788 12.1112242,0.000339393939 7.80237576,0.000339393939 L7.80237576,0.000339393939 Z" id="Fill-1" fill="#8C8C8D" mask="url(#mask-2)"></path>
            </g>
        </g>
    </g>
</svg>