<svg xmlns="http://www.w3.org/2000/svg" width="15.969" height="15.906" viewBox="0 0 15.969 15.906">
  <defs>
    <style>
      .cls-1 {
        fill: #fff;
        fill-rule: evenodd;
      }
    </style>
  </defs>
  <path id="时间" class="cls-1" d="M761.131,196.113v-0.545c0.056-.355.111-0.71,0.17-1.064a7.954,7.954,0,1,1,.365,4.074A22.224,22.224,0,0,1,761.131,196.113Zm6.079-1.963c0,0.878-.009,1.756,0,2.633a1.274,1.274,0,0,0,1.14,1.514l4.767,1.424c0.635,0.19,1.087.036,1.2-.407s-0.143-.74-0.81-0.934c-1.476-.431-2.95-0.869-4.431-1.283a0.475,0.475,0,0,1-.42-0.553c0.019-1.664.014-3.329,0.006-4.994a0.782,0.782,0,0,0-.766-0.882,0.751,0.751,0,0,0-.692.895C767.206,192.425,767.21,193.288,767.21,194.15Z" transform="translate(-761.125 -187.906)"/>
</svg>
