<svg xmlns="http://www.w3.org/2000/svg" width="15.93" height="19.76" viewBox="0 0 15.93 19.76">
  <defs>
    <style>
      .cls-1 {
        fill: #8c8d8d;
        fill-rule: evenodd;
      }
    </style>
  </defs>
  <path id="垃圾桶" class="cls-1" d="M1117.9,1116.25c-0.86-.3-1.76-0.49-2.65-0.71a1.358,1.358,0,0,0-.29-0.03c-0.87-.08-1.65-0.16-1.92-1.31a2.676,2.676,0,0,0-1.93-1.56h-1.29a3.843,3.843,0,0,0-1.86,1.57,0.735,0.735,0,0,1-.6.16c-1.13-.13-2.26-0.29-3.39-0.45a1.675,1.675,0,0,0-1.58.59v0.43c0.71,1.09,1.9.96,2.95,1.13,3,0.48,6,.91,9,1.46h-4.71c-1.34,0-2.67-.01-4.01.01a1.563,1.563,0,0,0-1.65,1.6c-0.01,3.86,0,7.72-.01,11.59a1.835,1.835,0,0,0,1.29,1.63h10.3a2.131,2.131,0,0,0,1.3-2.22c-0.05-3.48-.03-6.95-0.01-10.43a1.991,1.991,0,0,0-.77-1.92,8.488,8.488,0,0,0,1.57-.14,1.031,1.031,0,0,0,.68-0.6A0.9,0.9,0,0,0,1117.9,1116.25Zm-8.81-1.62a1.57,1.57,0,0,1,3.08.46C1111.13,1114.94,1110.11,1114.78,1109.09,1114.63Zm-1.41,13.17a2.953,2.953,0,0,1-.15,1.12,3.93,3.93,0,0,1-.74.85,3.377,3.377,0,0,1-.77-0.84,2.585,2.585,0,0,1-.15-1.12c-0.01-1.92-.03-3.83.01-5.75a4,4,0,0,1,.35-1.57,0.593,0.593,0,0,1,1.14.03,3.893,3.893,0,0,1,.3,1.39c0.04,1.03.01,2.06,0.01,3.09C1107.68,1125.93,1107.69,1126.86,1107.68,1127.8Zm3.58,0.23a1.775,1.775,0,0,1-.1.84,5.471,5.471,0,0,1-.78.9,5.6,5.6,0,0,1-.79-0.91,2.132,2.132,0,0,1-.08-0.92c-0.01-2.01-.02-4.02,0-6.03a3.508,3.508,0,0,1,.23-1.25,0.894,0.894,0,0,1,.65-0.51,1.066,1.066,0,0,1,.68.59,2.566,2.566,0,0,1,.19,1.04c0.02,1.08.01,2.15,0.01,3.23C1111.27,1126.02,1111.27,1127.02,1111.26,1128.03Zm3.58,0.38c-0.01.8-.43,1.45-0.87,1.34a1.213,1.213,0,0,1-.85-1.34c-0.03-2.31-.02-4.63,0-6.95,0.01-.78.46-1.43,0.91-1.34a1.141,1.141,0,0,1,.81,1.33c0.03,1.17.01,2.34,0.01,3.51C1114.85,1126.11,1114.87,1127.26,1114.84,1128.41Z" transform="translate(-1102.38 -1112.62)"/>
</svg>
