<svg xmlns="http://www.w3.org/2000/svg" width="12.438" height="12.438" viewBox="0 0 12.438 12.438">
  <defs>
    <style>
      .cls-1 {
        fill: #fff;
        fill-rule: evenodd;
      }
    </style>
  </defs>
  <path id="问题" class="cls-1" d="M386.5,473.288a6.212,6.212,0,1,0,6.211,6.212A6.212,6.212,0,0,0,386.5,473.288Zm-2.733,4.648a2.733,2.733,0,1,1,5.466-.026,2.166,2.166,0,0,1-.966,1.627c-0.991.763-1.195,0.711-1.195,1.857h-1.348a2.4,2.4,0,0,1,1.524-2.644,1.044,1.044,0,0,0,.562-1.195,1.131,1.131,0,0,0-1.2-1.222c-0.712,0-1.449.128-1.449,1.577l-1.4.026h0Zm1.932,4.526h1.373v1.374H385.7v-1.374Z" transform="translate(-380.281 -473.281)"/>
</svg>
