<svg xmlns="http://www.w3.org/2000/svg" width="13.63" height="13.094" viewBox="0 0 13.63 13.094">
  <defs>
    <style>
      .cls-1 {
        fill: #fff;
        fill-rule: evenodd;
      }
    </style>
  </defs>
  <path id="星" class="cls-1" d="M1216.79,203.69c0.15-1.037.29-1.967,0.43-2.9,0.07-.466.14-0.931,0.23-1.393a0.743,0.743,0,0,0-.28-0.764c-0.95-.848-1.86-1.725-2.8-2.588a3.06,3.06,0,0,0-.34-0.263,0.612,0.612,0,0,0,.07-0.107l2.9-.485a1.611,1.611,0,0,1,.34-0.057,1.9,1.9,0,0,0,2.01-1.548c0.36-1,.88-1.944,1.37-2.989,0.13,0.23.22,0.388,0.31,0.551,0.59,1.122,1.16,2.248,1.77,3.363a0.631,0.631,0,0,0,.4.319c1.45,0.2,2.92.376,4.46,0.569-0.13.145-.23,0.261-0.33,0.367-0.9.914-1.8,1.832-2.72,2.734a0.654,0.654,0,0,0-.21.7c0.29,1.394.55,2.794,0.83,4.252-0.16-.066-0.28-0.106-0.39-0.161-1.15-.568-2.3-1.129-3.44-1.714a0.775,0.775,0,0,0-.84.017C1219.35,202.29,1218.12,202.955,1216.79,203.69Z" transform="translate(-1214.03 -190.594)"/>
</svg>
